<svg width="1303" height="294" viewBox="0 0 1303 294" fill="none" xmlns="http://www.w3.org/2000/svg">
<path d="M67.342 168.061C55.2021 168.061 44.7229 165.885 35.9043 161.533C27.2002 157.067 20.5004 150.94 15.8048 143.152C11.1091 135.249 8.76134 126.145 8.76134 115.837C8.76134 105.53 10.5365 96.0238 14.0869 87.3198C17.6372 78.5012 22.6764 70.8851 29.2045 64.4716C35.847 57.9435 43.6922 52.8471 52.7398 49.1822C61.902 45.5173 72.0377 43.6849 83.1468 43.6849C95.2867 43.6849 105.709 45.9182 114.413 50.3847C123.231 54.7368 129.988 60.864 134.684 68.7663C139.38 76.5542 141.727 85.6019 141.727 95.9093C141.727 106.217 139.952 115.78 136.402 124.598C132.852 133.302 127.755 140.919 121.113 147.447C114.585 153.86 106.739 158.899 97.5772 162.564C88.5296 166.229 78.4512 168.061 67.342 168.061ZM69.7471 144.354C76.5042 144.354 82.5742 143.152 87.9569 140.747C93.4542 138.227 98.0926 134.791 101.872 130.439C105.651 126.087 108.515 121.105 110.462 115.493C112.523 109.767 113.554 103.754 113.554 97.4554C113.554 91.5 112.294 86.289 109.774 81.8225C107.255 77.2414 103.533 73.691 98.608 71.1714C93.7978 68.6518 87.8424 67.392 80.7417 67.392C73.9846 67.392 67.9147 68.6518 62.5319 71.1714C57.1491 73.5765 52.5108 76.955 48.6168 81.3071C44.8374 85.6591 41.917 90.6983 39.8555 96.4247C37.9085 102.037 36.935 107.992 36.935 114.291C36.935 120.246 38.1948 125.515 40.7144 130.096C43.3486 134.562 47.0707 138.055 51.8809 140.575C56.8055 143.095 62.7609 144.354 69.7471 144.354ZM182.777 166L260.427 45.7464H288.085L317.633 166H289.803L266.44 59.4896H277.434L212.497 166H182.777ZM214.902 140.231L226.241 119.101H288.257L291.521 140.231H214.902ZM330.11 166L354.16 45.7464H382.162L362.578 143.324H422.877L418.238 166H330.11ZM494.994 168.061C482.854 168.061 472.318 165.885 463.384 161.533C454.566 157.067 447.694 150.94 442.77 143.152C437.959 135.249 435.554 126.145 435.554 115.837C435.554 105.644 437.33 96.1384 440.88 87.3198C444.545 78.5012 449.698 70.8851 456.341 64.4716C462.984 57.9435 470.943 52.8471 480.22 49.1822C489.497 45.5173 499.804 43.6849 511.142 43.6849C522.595 43.6849 532.502 45.5173 540.862 49.1822C549.337 52.7325 556.152 57.8863 561.305 64.6434L541.378 80.7917C537.369 75.9816 532.788 72.5457 527.634 70.4843C522.595 68.4228 516.697 67.392 509.94 67.392C502.839 67.392 496.426 68.5946 490.699 70.9996C485.087 73.2902 480.277 76.5542 476.269 80.7917C472.26 85.0292 469.168 90.0112 466.992 95.7375C464.816 101.349 463.728 107.477 463.728 114.119C463.728 120.189 465.045 125.515 467.679 130.096C470.313 134.562 474.207 138.055 479.361 140.575C484.629 143.095 491.043 144.354 498.602 144.354C504.328 144.354 509.825 143.381 515.094 141.434C520.362 139.487 525.458 136.452 530.383 132.329L541.034 153.459C534.964 158.155 527.921 161.762 519.904 164.282C512.001 166.802 503.698 168.061 494.994 168.061ZM516.64 149.164L525.573 103.983H550.998L541.034 153.459L516.64 149.164ZM626.669 168.061C614.529 168.061 604.05 165.885 595.231 161.533C586.527 157.067 579.827 150.94 575.132 143.152C570.436 135.249 568.088 126.145 568.088 115.837C568.088 105.53 569.864 96.0238 573.414 87.3198C576.964 78.5012 582.003 70.8851 588.531 64.4716C595.174 57.9435 603.019 52.8471 612.067 49.1822C621.229 45.5173 631.365 43.6849 642.474 43.6849C654.614 43.6849 665.036 45.9182 673.74 50.3847C682.558 54.7368 689.315 60.864 694.011 68.7663C698.707 76.5542 701.055 85.6019 701.055 95.9093C701.055 106.217 699.279 115.78 695.729 124.598C692.179 133.302 687.082 140.919 680.44 147.447C673.912 153.86 666.066 158.899 656.904 162.564C647.857 166.229 637.778 168.061 626.669 168.061ZM629.074 144.354C635.831 144.354 641.901 143.152 647.284 140.747C652.781 138.227 657.42 134.791 661.199 130.439C664.978 126.087 667.842 121.105 669.789 115.493C671.85 109.767 672.881 103.754 672.881 97.4554C672.881 91.5 671.621 86.289 669.101 81.8225C666.582 77.2414 662.86 73.691 657.935 71.1714C653.125 68.6518 647.169 67.392 640.069 67.392C633.312 67.392 627.242 68.6518 621.859 71.1714C616.476 73.5765 611.838 76.955 607.944 81.3071C604.164 85.6591 601.244 90.6983 599.183 96.4247C597.236 102.037 596.262 107.992 596.262 114.291C596.262 120.246 597.522 125.515 600.041 130.096C602.676 134.562 606.398 138.055 611.208 140.575C616.133 143.095 622.088 144.354 629.074 144.354ZM709.258 166L733.308 45.7464H782.269C797.272 45.7464 808.839 49.0104 816.97 55.5385C825.216 62.0665 829.339 71.2287 829.339 83.025C829.339 93.1034 826.934 101.865 822.124 109.309C817.429 116.639 810.671 122.308 801.853 126.316C793.149 130.325 782.841 132.329 770.93 132.329H731.762L746.364 120.132L737.259 166H709.258ZM786.563 166L761.997 122.365H791.202L815.94 166H786.563ZM745.677 123.396L736.057 110.168H771.961C781.238 110.168 788.396 108.106 793.435 103.983C798.589 99.746 801.166 93.6188 801.166 85.6019C801.166 79.761 799.161 75.4662 795.153 72.7175C791.259 69.8544 785.762 68.4228 778.661 68.4228H744.818L759.42 54.8513L745.677 123.396ZM835.584 166L859.635 45.7464H887.637L863.586 166H835.584ZM916.863 166L936.275 68.4228H897.794L902.432 45.7464H1007.22L1002.59 68.4228H964.277L944.693 166H916.863ZM998.148 166L1022.2 45.7464H1044.88L1079.06 130.955L1067.04 130.783L1133.69 45.7464H1157.57L1133.69 166H1107.58L1123.56 85.4301H1128.88L1075.8 153.287H1063.43L1035.08 85.2583L1040.24 85.7737L1024.26 166H998.148ZM1224.58 168.061C1212.44 168.061 1201.96 165.885 1193.14 161.533C1184.44 157.067 1177.74 150.94 1173.04 143.152C1168.35 135.249 1166 126.145 1166 115.837C1166 105.53 1167.78 96.0238 1171.33 87.3198C1174.88 78.5012 1179.92 70.8851 1186.44 64.4716C1193.09 57.9435 1200.93 52.8471 1209.98 49.1822C1219.14 45.5173 1229.28 43.6849 1240.39 43.6849C1252.53 43.6849 1262.95 45.9182 1271.65 50.3847C1280.47 54.7368 1287.23 60.864 1291.92 68.7663C1296.62 76.5542 1298.97 85.6019 1298.97 95.9093C1298.97 106.217 1297.19 115.78 1293.64 124.598C1290.09 133.302 1285 140.919 1278.35 147.447C1271.82 153.86 1263.98 158.899 1254.82 162.564C1245.77 166.229 1235.69 168.061 1224.58 168.061ZM1226.99 144.354C1233.74 144.354 1239.81 143.152 1245.2 140.747C1250.69 138.227 1255.33 134.791 1259.11 130.439C1262.89 126.087 1265.75 121.105 1267.7 115.493C1269.76 109.767 1270.79 103.754 1270.79 97.4554C1270.79 91.5 1269.53 86.289 1267.01 81.8225C1264.49 77.2414 1260.77 73.691 1255.85 71.1714C1251.04 68.6518 1245.08 67.392 1237.98 67.392C1231.22 67.392 1225.15 68.6518 1219.77 71.1714C1214.39 73.5765 1209.75 76.955 1205.86 81.3071C1202.08 85.6591 1199.16 90.6983 1197.1 96.4247C1195.15 102.037 1194.17 107.992 1194.17 114.291C1194.17 120.246 1195.43 125.515 1197.95 130.096C1200.59 134.562 1204.31 138.055 1209.12 140.575C1214.05 143.095 1220 144.354 1226.99 144.354Z" fill="url(#paint0_linear_12_2)"/>
<path d="M27.35 277V228H48C53.2267 228 57.8233 229.027 61.79 231.08C65.8033 233.133 68.9067 236.003 71.1 239.69C73.34 243.377 74.46 247.647 74.46 252.5C74.46 257.353 73.34 261.623 71.1 265.31C68.9067 268.997 65.8033 271.867 61.79 273.92C57.8233 275.973 53.2267 277 48 277H27.35ZM34.35 270.91H47.58C51.64 270.91 55.14 270.14 58.08 268.6C61.0667 267.06 63.3767 264.913 65.01 262.16C66.6433 259.36 67.46 256.14 67.46 252.5C67.46 248.813 66.6433 245.593 65.01 242.84C63.3767 240.087 61.0667 237.94 58.08 236.4C55.14 234.86 51.64 234.09 47.58 234.09H34.35V270.91ZM164.002 277.56C160.269 277.56 156.792 276.93 153.572 275.67C150.399 274.41 147.645 272.66 145.312 270.42C142.979 268.133 141.159 265.473 139.852 262.44C138.545 259.407 137.892 256.093 137.892 252.5C137.892 248.907 138.545 245.593 139.852 242.56C141.159 239.527 142.979 236.89 145.312 234.65C147.645 232.363 150.399 230.59 153.572 229.33C156.745 228.07 160.222 227.44 164.002 227.44C167.735 227.44 171.165 228.07 174.292 229.33C177.465 230.543 180.219 232.293 182.552 234.58C184.932 236.82 186.752 239.457 188.012 242.49C189.319 245.523 189.972 248.86 189.972 252.5C189.972 256.14 189.319 259.477 188.012 262.51C186.752 265.543 184.932 268.203 182.552 270.49C180.219 272.73 177.465 274.48 174.292 275.74C171.165 276.953 167.735 277.56 164.002 277.56ZM164.002 271.33C166.709 271.33 169.205 270.863 171.492 269.93C173.825 268.997 175.832 267.69 177.512 266.01C179.239 264.283 180.569 262.277 181.502 259.99C182.482 257.703 182.972 255.207 182.972 252.5C182.972 249.793 182.482 247.297 181.502 245.01C180.569 242.723 179.239 240.74 177.512 239.06C175.832 237.333 173.825 236.003 171.492 235.07C169.205 234.137 166.709 233.67 164.002 233.67C161.249 233.67 158.705 234.137 156.372 235.07C154.085 236.003 152.079 237.333 150.352 239.06C148.625 240.74 147.272 242.723 146.292 245.01C145.359 247.297 144.892 249.793 144.892 252.5C144.892 255.207 145.359 257.703 146.292 259.99C147.272 262.277 148.625 264.283 150.352 266.01C152.079 267.69 154.085 268.997 156.372 269.93C158.705 270.863 161.249 271.33 164.002 271.33ZM332.87 277V228H339.87V277H332.87ZM411.24 277V228H416.98L449.39 268.25H446.38V228H453.38V277H447.64L415.23 236.75H418.24V277H411.24ZM538.408 277L516.848 228H524.408L544.218 273.22H539.878L559.828 228H566.828L545.338 277H538.408ZM636.147 249.14H661.347V255.09H636.147V249.14ZM636.777 270.91H665.337V277H629.777V228H664.357V234.09H636.777V270.91ZM747.651 277.56C743.918 277.56 740.348 277 736.941 275.88C733.534 274.713 730.851 273.22 728.891 271.4L731.481 265.94C733.348 267.573 735.728 268.927 738.621 270C741.514 271.073 744.524 271.61 747.651 271.61C750.498 271.61 752.808 271.283 754.581 270.63C756.354 269.977 757.661 269.09 758.501 267.97C759.341 266.803 759.761 265.497 759.761 264.05C759.761 262.37 759.201 261.017 758.081 259.99C757.008 258.963 755.584 258.147 753.811 257.54C752.084 256.887 750.171 256.327 748.071 255.86C745.971 255.393 743.848 254.857 741.701 254.25C739.601 253.597 737.664 252.78 735.891 251.8C734.164 250.82 732.764 249.513 731.691 247.88C730.618 246.2 730.081 244.053 730.081 241.44C730.081 238.92 730.734 236.61 732.041 234.51C733.394 232.363 735.448 230.66 738.201 229.4C741.001 228.093 744.548 227.44 748.841 227.44C751.688 227.44 754.511 227.813 757.311 228.56C760.111 229.307 762.538 230.38 764.591 231.78L762.281 237.38C760.181 235.98 757.964 234.977 755.631 234.37C753.298 233.717 751.034 233.39 748.841 233.39C746.088 233.39 743.824 233.74 742.051 234.44C740.278 235.14 738.971 236.073 738.131 237.24C737.338 238.407 736.941 239.713 736.941 241.16C736.941 242.887 737.478 244.263 738.551 245.29C739.671 246.317 741.094 247.133 742.821 247.74C744.594 248.347 746.531 248.907 748.631 249.42C750.731 249.887 752.831 250.423 754.931 251.03C757.078 251.637 759.014 252.43 760.741 253.41C762.514 254.39 763.938 255.697 765.011 257.33C766.084 258.963 766.621 261.063 766.621 263.63C766.621 266.103 765.944 268.413 764.591 270.56C763.238 272.66 761.138 274.363 758.291 275.67C755.491 276.93 751.944 277.56 747.651 277.56ZM842.594 277V234.09H825.794V228H866.324V234.09H849.524V277H842.594ZM930.648 277V228H937.648V277H930.648ZM1009.02 277V228H1029.67C1034.89 228 1039.49 229.027 1043.46 231.08C1047.47 233.133 1050.57 236.003 1052.77 239.69C1055.01 243.377 1056.13 247.647 1056.13 252.5C1056.13 257.353 1055.01 261.623 1052.77 265.31C1050.57 268.997 1047.47 271.867 1043.46 273.92C1039.49 275.973 1034.89 277 1029.67 277H1009.02ZM1016.02 270.91H1029.25C1033.31 270.91 1036.81 270.14 1039.75 268.6C1042.73 267.06 1045.04 264.913 1046.68 262.16C1048.31 259.36 1049.13 256.14 1049.13 252.5C1049.13 248.813 1048.31 245.593 1046.68 242.84C1045.04 240.087 1042.73 237.94 1039.75 236.4C1036.81 234.86 1033.31 234.09 1029.25 234.09H1016.02V270.91ZM1145.67 277.56C1141.94 277.56 1138.46 276.93 1135.24 275.67C1132.07 274.41 1129.31 272.66 1126.98 270.42C1124.65 268.133 1122.83 265.473 1121.52 262.44C1120.21 259.407 1119.56 256.093 1119.56 252.5C1119.56 248.907 1120.21 245.593 1121.52 242.56C1122.83 239.527 1124.65 236.89 1126.98 234.65C1129.31 232.363 1132.07 230.59 1135.24 229.33C1138.41 228.07 1141.89 227.44 1145.67 227.44C1149.4 227.44 1152.83 228.07 1155.96 229.33C1159.13 230.543 1161.89 232.293 1164.22 234.58C1166.6 236.82 1168.42 239.457 1169.68 242.49C1170.99 245.523 1171.64 248.86 1171.64 252.5C1171.64 256.14 1170.99 259.477 1169.68 262.51C1168.42 265.543 1166.6 268.203 1164.22 270.49C1161.89 272.73 1159.13 274.48 1155.96 275.74C1152.83 276.953 1149.4 277.56 1145.67 277.56ZM1145.67 271.33C1148.38 271.33 1150.87 270.863 1153.16 269.93C1155.49 268.997 1157.5 267.69 1159.18 266.01C1160.91 264.283 1162.24 262.277 1163.17 259.99C1164.15 257.703 1164.64 255.207 1164.64 252.5C1164.64 249.793 1164.15 247.297 1163.17 245.01C1162.24 242.723 1160.91 240.74 1159.18 239.06C1157.5 237.333 1155.49 236.003 1153.16 235.07C1150.87 234.137 1148.38 233.67 1145.67 233.67C1142.92 233.67 1140.37 234.137 1138.04 235.07C1135.75 236.003 1133.75 237.333 1132.02 239.06C1130.29 240.74 1128.94 242.723 1127.96 245.01C1127.03 247.297 1126.56 249.793 1126.56 252.5C1126.56 255.207 1127.03 257.703 1127.96 259.99C1128.94 262.277 1130.29 264.283 1132.02 266.01C1133.75 267.69 1135.75 268.997 1138.04 269.93C1140.37 270.863 1142.92 271.33 1145.67 271.33ZM1239.04 277V228H1258.15C1262.44 228 1266.11 228.677 1269.14 230.03C1272.17 231.383 1274.51 233.343 1276.14 235.91C1277.77 238.477 1278.59 241.533 1278.59 245.08C1278.59 248.627 1277.77 251.683 1276.14 254.25C1274.51 256.77 1272.17 258.707 1269.14 260.06C1266.11 261.413 1262.44 262.09 1258.15 262.09H1242.89L1246.04 258.87V277H1239.04ZM1271.8 277L1259.34 259.22H1266.83L1279.43 277H1271.8ZM1246.04 259.57L1242.89 256.14H1257.94C1262.42 256.14 1265.8 255.183 1268.09 253.27C1270.42 251.31 1271.59 248.58 1271.59 245.08C1271.59 241.58 1270.42 238.873 1268.09 236.96C1265.8 235.047 1262.42 234.09 1257.94 234.09H1242.89L1246.04 230.59V259.57Z" fill="white"/>
<defs>
<linearGradient id="paint0_linear_12_2" x1="0" y1="104.5" x2="1303" y2="104.5" gradientUnits="userSpaceOnUse">
<stop stop-color="#03CE95"/>
<stop offset="0.501" stop-color="#63FAD6"/>
<stop offset="1" stop-color="#03CE95"/>
</linearGradient>
</defs>
</svg>
