<svg width="591" height="327" viewBox="0 0 591 327" fill="none" xmlns="http://www.w3.org/2000/svg">
<path d="M539.25 0H166.84V0.0400009C165.91 0.0200009 164.99 0 164.06 0C73.4501 0 0 73.04 0 163.14C0 253.24 73.4501 326.28 164.06 326.28C164.21 326.28 164.35 326.28 164.5 326.28C164.65 326.28 164.79 326.28 164.94 326.28C203.06 326.28 239.06 313.21 267.74 291.39C282.77 279.96 295.8 266.12 306.06 250.51C306.78 249.41 359.43 163.14 359.43 163.14H275.33C275.33 163.14 243.36 218.57 235.34 227.19C217.8 246.05 192.86 258.06 164.98 258.07V258.05C164.82 258.05 164.66 258.05 164.49 258.06C164.33 258.06 164.17 258.05 164 258.05V258.07C111.29 258.05 68.57 215.55 68.57 163.14C68.57 110.73 111.22 68.3 163.87 68.21H167.05L498.35 68.6L344.63 326.28H428.34L590.02 56.32V0.0100021H539.22L539.25 0Z" fill="url(#paint0_linear_115_6)"/>
<defs>
<linearGradient id="paint0_linear_115_6" x1="590.01" y1="163.457" x2="0.010024" y2="162.823" gradientUnits="userSpaceOnUse">
<stop stop-color="#023C83"/>
<stop offset="1" stop-color="#1DA4F3"/>
</linearGradient>
</defs>
</svg>
