<svg width="1048" height="115" viewBox="0 0 1048 115" fill="none" xmlns="http://www.w3.org/2000/svg">
<path d="M0.208358 52L17.681 12.4179H28.7075L46.2367 52H34.5882L20.9041 17.9029H25.3147L11.6306 52H0.208358ZM9.76461 44.3098L12.6484 36.0541H31.9871L34.871 44.3098H9.76461ZM55.8481 52V21.2956H43.6908V12.4179H79.145V21.2956H67.0442V52H55.8481ZM93.6075 27.7418H111.985V36.1106H93.6075V27.7418ZM94.3992 43.3485H115.095V52H83.3162V12.4179H114.36V21.0694H94.3992V43.3485ZM93.3248 9.19479L100.902 0.599825H111.646L101.015 9.19479H93.3248ZM149.582 52.7916C146.868 52.7916 144.134 52.4524 141.383 51.7738C138.631 51.0953 136.256 50.134 134.258 48.89L138.273 40.4646C139.894 41.5202 141.646 42.3307 143.531 42.8961C145.454 43.4616 147.358 43.7443 149.242 43.7443C151.127 43.7443 152.654 43.3862 153.823 42.6699C154.991 41.916 155.576 40.8793 155.576 39.5599C155.576 38.7683 155.349 38.0709 154.897 37.4677C154.445 36.8269 153.672 36.3556 152.579 36.0541C151.485 35.7148 149.921 35.5452 147.885 35.5452H137.142L139.121 12.4179H164.34V21.0694H143.079L148.79 16.1499L147.49 31.7566L141.778 26.8371H150.543C154.464 26.8371 157.611 27.4026 159.986 28.5335C162.361 29.6267 164.095 31.1157 165.188 33.0006C166.282 34.8478 166.828 36.94 166.828 39.2772C166.828 41.6144 166.206 43.8197 164.962 45.893C163.756 47.9287 161.89 49.5874 159.364 50.8691C156.838 52.1508 153.578 52.7916 149.582 52.7916ZM175.462 52L190.899 16.5458L193.896 21.2956H173.822L178.402 16.1499V27.4026H168.846V12.4179H201.642V19.4296L187.676 52H175.462ZM211.406 52L238.435 12.4179H246.578L219.549 52H211.406ZM215.025 33.8488C213.103 33.8488 211.369 33.4153 209.823 32.5482C208.277 31.6812 207.071 30.4372 206.204 28.8162C205.337 27.1575 204.903 25.1784 204.903 22.8789C204.903 20.5794 205.337 18.6191 206.204 16.9981C207.071 15.3771 208.277 14.1331 209.823 13.2661C211.369 12.3614 213.103 11.909 215.025 11.909C216.985 11.909 218.719 12.3614 220.227 13.2661C221.773 14.1331 222.979 15.3771 223.846 16.9981C224.751 18.6191 225.203 20.5794 225.203 22.8789C225.203 25.1407 224.751 27.101 223.846 28.7597C222.979 30.4183 221.773 31.6812 220.227 32.5482C218.719 33.4153 216.985 33.8488 215.025 33.8488ZM215.082 28.4769C216.024 28.4769 216.797 28.0434 217.4 27.1764C218.041 26.3093 218.361 24.8768 218.361 22.8789C218.361 20.8809 218.041 19.4484 217.4 18.5814C216.797 17.7144 216.024 17.2808 215.082 17.2808C214.139 17.2808 213.329 17.7144 212.65 18.5814C212.009 19.4484 211.689 20.8809 211.689 22.8789C211.689 24.8768 212.009 26.3093 212.65 27.1764C213.329 28.0434 214.139 28.4769 215.082 28.4769ZM242.959 52.5089C240.999 52.5089 239.246 52.0754 237.7 51.2084C236.192 50.3413 235.005 49.0973 234.138 47.4763C233.271 45.8177 232.837 43.8385 232.837 41.539C232.837 39.2395 233.271 37.2792 234.138 35.6583C235.005 34.0373 236.192 32.7933 237.7 31.9262C239.246 31.0215 240.999 30.5691 242.959 30.5691C244.919 30.5691 246.653 31.0215 248.161 31.9262C249.707 32.7933 250.913 34.0373 251.78 35.6583C252.685 37.2792 253.137 39.2395 253.137 41.539C253.137 43.8385 252.685 45.8177 251.78 47.4763C250.913 49.0973 249.707 50.3413 248.161 51.2084C246.653 52.0754 244.919 52.5089 242.959 52.5089ZM242.959 47.1371C243.901 47.1371 244.693 46.7035 245.334 45.8365C245.975 44.9695 246.295 43.537 246.295 41.539C246.295 39.5411 245.975 38.1086 245.334 37.2415C244.693 36.3745 243.901 35.941 242.959 35.941C242.054 35.941 241.262 36.3745 240.584 37.2415C239.943 38.1086 239.623 39.5411 239.623 41.539C239.623 43.537 239.943 44.9695 240.584 45.8365C241.262 46.7035 242.054 47.1371 242.959 47.1371ZM274.783 52.5089C271.428 52.5089 268.45 51.8304 265.849 50.4733C263.248 49.1162 261.193 47.2501 259.685 44.8752C258.215 42.4626 257.48 39.7107 257.48 36.6195C257.48 33.5284 258.215 30.7953 259.685 28.4204C261.193 26.0455 263.248 24.1983 265.849 22.8789C268.45 21.5218 271.428 20.8432 274.783 20.8432C278.138 20.8432 281.116 21.5218 283.717 22.8789C286.356 24.1983 288.411 26.0455 289.881 28.4204C291.351 30.7953 292.086 33.5284 292.086 36.6195C292.086 39.7107 291.351 42.4626 289.881 44.8752C288.411 47.2501 286.356 49.1162 283.717 50.4733C281.116 51.8304 278.138 52.5089 274.783 52.5089ZM274.783 43.9705C276.027 43.9705 277.12 43.6878 278.063 43.1223C279.043 42.5568 279.816 41.7275 280.381 40.6343C280.947 39.5034 281.229 38.1651 281.229 36.6195C281.229 35.0739 280.947 33.7734 280.381 32.7179C279.816 31.6246 279.043 30.7953 278.063 30.2298C277.12 29.6644 276.027 29.3817 274.783 29.3817C273.577 29.3817 272.484 29.6644 271.503 30.2298C270.561 30.7953 269.788 31.6246 269.185 32.7179C268.62 33.7734 268.337 35.0739 268.337 36.6195C268.337 38.1651 268.62 39.5034 269.185 40.6343C269.788 41.7275 270.561 42.5568 271.503 43.1223C272.484 43.6878 273.577 43.9705 274.783 43.9705ZM298.307 52V21.6914C298.307 17.9971 299.4 15.0567 301.587 12.8703C303.811 10.6461 306.977 9.53407 311.086 9.53407C312.406 9.53407 313.706 9.66601 314.988 9.92989C316.27 10.1938 317.344 10.5896 318.211 11.1174L315.553 18.6945C315.101 18.4306 314.592 18.2233 314.027 18.0725C313.461 17.884 312.896 17.7898 312.33 17.7898C311.199 17.7898 310.314 18.129 309.673 18.8076C309.07 19.4484 308.768 20.4474 308.768 21.8045V24.0098L309.051 28.4769V52H298.307ZM293.84 30.5126V22.4831H316.062V30.5126H293.84ZM322.052 52V21.6914C322.052 17.9971 323.145 15.0567 325.332 12.8703C327.556 10.6461 330.722 9.53407 334.831 9.53407C336.151 9.53407 337.451 9.66601 338.733 9.92989C340.015 10.1938 341.089 10.5896 341.956 11.1174L339.298 18.6945C338.846 18.4306 338.337 18.2233 337.772 18.0725C337.206 17.884 336.641 17.7898 336.075 17.7898C334.944 17.7898 334.058 18.129 333.418 18.8076C332.814 19.4484 332.513 20.4474 332.513 21.8045V24.0098L332.796 28.4769V52H322.052ZM317.585 30.5126V22.4831H339.807V30.5126H317.585ZM371.036 27.7418H389.413V36.1106H371.036V27.7418ZM371.827 43.3485H392.523V52H360.744V12.4179H391.788V21.0694H371.827V43.3485ZM398.736 52V12.4179H407.953L424.351 39.3337H419.488L435.434 12.4179H444.651L444.764 52H434.473L434.36 28.0811H436.113L424.182 48.0983H419.206L406.935 28.0811H409.084V52H398.736ZM477.568 52V21.2956H465.41V12.4179H500.864V21.2956H488.764V52H477.568ZM524.444 52.7916C521.277 52.7916 518.356 52.2827 515.679 51.2649C513.003 50.2471 510.666 48.8146 508.668 46.9674C506.707 45.0826 505.181 42.8961 504.088 40.4081C502.994 37.9201 502.448 35.187 502.448 32.209C502.448 29.2309 502.994 26.4978 504.088 24.0098C505.181 21.5218 506.707 19.3542 508.668 17.507C510.666 15.6222 513.003 14.1708 515.679 13.153C518.356 12.1352 521.277 11.6263 524.444 11.6263C527.648 11.6263 530.57 12.1352 533.209 13.153C535.885 14.1708 538.203 15.6222 540.164 17.507C542.124 19.3542 543.651 21.5218 544.744 24.0098C545.875 26.4978 546.44 29.2309 546.44 32.209C546.44 35.187 545.875 37.9389 544.744 40.4646C543.651 42.9527 542.124 45.1203 540.164 46.9674C538.203 48.8146 535.885 50.2471 533.209 51.2649C530.57 52.2827 527.648 52.7916 524.444 52.7916ZM524.444 43.5181C525.952 43.5181 527.347 43.2542 528.628 42.7265C529.948 42.1987 531.079 41.4448 532.021 40.4646C533.001 39.4468 533.755 38.2405 534.283 36.8457C534.848 35.4509 535.131 33.9053 535.131 32.209C535.131 30.4749 534.848 28.9293 534.283 27.5722C533.755 26.1774 533.001 24.9899 532.021 24.0098C531.079 22.992 529.948 22.2192 528.628 21.6914C527.347 21.1637 525.952 20.8998 524.444 20.8998C522.936 20.8998 521.522 21.1637 520.203 21.6914C518.921 22.2192 517.79 22.992 516.81 24.0098C515.868 24.9899 515.114 26.1774 514.548 27.5722C514.021 28.9293 513.757 30.4749 513.757 32.209C513.757 33.9053 514.021 35.4509 514.548 36.8457C515.114 38.2405 515.868 39.4468 516.81 40.4646C517.79 41.4448 518.921 42.1987 520.203 42.7265C521.522 43.2542 522.936 43.5181 524.444 43.5181ZM552.304 52V12.4179H571.021C575.394 12.4179 579.239 13.2284 582.556 14.8494C585.874 16.4704 588.456 18.751 590.303 21.6914C592.188 24.6318 593.13 28.1377 593.13 32.209C593.13 36.2426 592.188 39.7484 590.303 42.7265C588.456 45.6669 585.874 47.9475 582.556 49.5685C579.239 51.1895 575.394 52 571.021 52H552.304ZM563.5 43.0658H570.569C572.83 43.0658 574.791 42.6511 576.449 41.8217C578.146 40.9547 579.465 39.7107 580.408 38.0897C581.35 36.431 581.821 34.4708 581.821 32.209C581.821 29.9094 581.35 27.9492 580.408 26.3282C579.465 24.7072 578.146 23.482 576.449 22.6527C574.791 21.7857 572.83 21.3521 570.569 21.3521H563.5V43.0658ZM618.982 52.7916C615.815 52.7916 612.893 52.2827 610.217 51.2649C607.54 50.2471 605.203 48.8146 603.205 46.9674C601.245 45.0826 599.718 42.8961 598.625 40.4081C597.532 37.9201 596.985 35.187 596.985 32.209C596.985 29.2309 597.532 26.4978 598.625 24.0098C599.718 21.5218 601.245 19.3542 603.205 17.507C605.203 15.6222 607.54 14.1708 610.217 13.153C612.893 12.1352 615.815 11.6263 618.982 11.6263C622.186 11.6263 625.107 12.1352 627.746 13.153C630.423 14.1708 632.741 15.6222 634.701 17.507C636.662 19.3542 638.188 21.5218 639.282 24.0098C640.412 26.4978 640.978 29.2309 640.978 32.209C640.978 35.187 640.412 37.9389 639.282 40.4646C638.188 42.9527 636.662 45.1203 634.701 46.9674C632.741 48.8146 630.423 50.2471 627.746 51.2649C625.107 52.2827 622.186 52.7916 618.982 52.7916ZM618.982 43.5181C620.489 43.5181 621.884 43.2542 623.166 42.7265C624.485 42.1987 625.616 41.4448 626.559 40.4646C627.539 39.4468 628.293 38.2405 628.821 36.8457C629.386 35.4509 629.669 33.9053 629.669 32.209C629.669 30.4749 629.386 28.9293 628.821 27.5722C628.293 26.1774 627.539 24.9899 626.559 24.0098C625.616 22.992 624.485 22.2192 623.166 21.6914C621.884 21.1637 620.489 20.8998 618.982 20.8998C617.474 20.8998 616.06 21.1637 614.741 21.6914C613.459 22.2192 612.328 22.992 611.348 24.0098C610.405 24.9899 609.652 26.1774 609.086 27.5722C608.558 28.9293 608.294 30.4749 608.294 32.209C608.294 33.9053 608.558 35.4509 609.086 36.8457C609.652 38.2405 610.405 39.4468 611.348 40.4646C612.328 41.4448 613.459 42.1987 614.741 42.7265C616.06 43.2542 617.474 43.5181 618.982 43.5181ZM660.752 52.7916C657.51 52.7916 654.381 52.3958 651.366 51.6042C648.388 50.7748 645.956 49.7193 644.071 48.4376L647.747 40.1819C649.518 41.3128 651.554 42.2553 653.854 43.0092C656.191 43.7255 658.509 44.0836 660.809 44.0836C662.354 44.0836 663.598 43.9516 664.541 43.6878C665.483 43.3862 666.162 43.0092 666.576 42.5568C667.029 42.0668 667.255 41.5013 667.255 40.8605C667.255 39.9557 666.84 39.2395 666.011 38.7117C665.182 38.184 664.107 37.7504 662.788 37.4112C661.468 37.0719 659.998 36.7326 658.377 36.3933C656.794 36.0541 655.192 35.6206 653.571 35.0928C651.988 34.565 650.536 33.8865 649.217 33.0571C647.897 32.1901 646.823 31.078 645.994 29.7209C645.164 28.3261 644.75 26.5732 644.75 24.4622C644.75 22.0872 645.391 19.9385 646.672 18.0159C647.992 16.0934 649.952 14.5478 652.553 13.3792C655.154 12.2106 658.396 11.6263 662.279 11.6263C664.88 11.6263 667.425 11.9278 669.913 12.531C672.438 13.0965 674.681 13.9446 676.642 15.0756L673.192 23.3878C671.307 22.37 669.441 21.616 667.594 21.126C665.747 20.5982 663.956 20.3343 662.222 20.3343C660.677 20.3343 659.433 20.504 658.49 20.8432C657.548 21.1448 656.869 21.5595 656.455 22.0872C656.04 22.615 655.833 23.2182 655.833 23.8967C655.833 24.7637 656.229 25.4611 657.02 25.9889C657.85 26.479 658.924 26.8936 660.243 27.2329C661.6 27.5345 663.071 27.8549 664.654 28.1942C666.275 28.5335 667.877 28.967 669.46 29.4948C671.081 29.9848 672.551 30.6634 673.871 31.5304C675.19 32.3597 676.246 33.4718 677.037 34.8666C677.867 36.2237 678.281 37.9389 678.281 40.0123C678.281 42.3118 677.622 44.4417 676.302 46.402C675.021 48.3245 673.079 49.8701 670.478 51.0387C667.915 52.2073 664.673 52.7916 660.752 52.7916ZM719.87 52.7916C716.703 52.7916 713.781 52.2827 711.105 51.2649C708.428 50.2471 706.091 48.8146 704.093 46.9674C702.133 45.0826 700.606 42.8961 699.513 40.4081C698.42 37.9201 697.873 35.187 697.873 32.209C697.873 29.2309 698.42 26.4978 699.513 24.0098C700.606 21.5218 702.133 19.3542 704.093 17.507C706.091 15.6222 708.428 14.1708 711.105 13.153C713.781 12.1352 716.703 11.6263 719.87 11.6263C723.074 11.6263 725.995 12.1352 728.634 13.153C731.311 14.1708 733.629 15.6222 735.589 17.507C737.55 19.3542 739.076 21.5218 740.169 24.0098C741.3 26.4978 741.866 29.2309 741.866 32.209C741.866 35.187 741.3 37.9389 740.169 40.4646C739.076 42.9527 737.55 45.1203 735.589 46.9674C733.629 48.8146 731.311 50.2471 728.634 51.2649C725.995 52.2827 723.074 52.7916 719.87 52.7916ZM719.87 43.5181C721.377 43.5181 722.772 43.2542 724.054 42.7265C725.373 42.1987 726.504 41.4448 727.447 40.4646C728.427 39.4468 729.181 38.2405 729.708 36.8457C730.274 35.4509 730.557 33.9053 730.557 32.209C730.557 30.4749 730.274 28.9293 729.708 27.5722C729.181 26.1774 728.427 24.9899 727.447 24.0098C726.504 22.992 725.373 22.2192 724.054 21.6914C722.772 21.1637 721.377 20.8998 719.87 20.8998C718.362 20.8998 716.948 21.1637 715.629 21.6914C714.347 22.2192 713.216 22.992 712.236 24.0098C711.293 24.9899 710.539 26.1774 709.974 27.5722C709.446 28.9293 709.182 30.4749 709.182 32.209C709.182 33.9053 709.446 35.4509 709.974 36.8457C710.539 38.2405 711.293 39.4468 712.236 40.4646C713.216 41.4448 714.347 42.1987 715.629 42.7265C716.948 43.2542 718.362 43.5181 719.87 43.5181ZM761.64 52.7916C758.398 52.7916 755.269 52.3958 752.254 51.6042C749.275 50.7748 746.844 49.7193 744.959 48.4376L748.635 40.1819C750.406 41.3128 752.442 42.2553 754.742 43.0092C757.079 43.7255 759.397 44.0836 761.697 44.0836C763.242 44.0836 764.486 43.9516 765.429 43.6878C766.371 43.3862 767.05 43.0092 767.464 42.5568C767.917 42.0668 768.143 41.5013 768.143 40.8605C768.143 39.9557 767.728 39.2395 766.899 38.7117C766.07 38.184 764.995 37.7504 763.676 37.4112C762.356 37.0719 760.886 36.7326 759.265 36.3933C757.682 36.0541 756.08 35.6206 754.459 35.0928C752.876 34.565 751.424 33.8865 750.105 33.0571C748.785 32.1901 747.711 31.078 746.882 29.7209C746.052 28.3261 745.638 26.5732 745.638 24.4622C745.638 22.0872 746.279 19.9385 747.56 18.0159C748.88 16.0934 750.84 14.5478 753.441 13.3792C756.042 12.2106 759.284 11.6263 763.167 11.6263C765.768 11.6263 768.313 11.9278 770.801 12.531C773.326 13.0965 775.569 13.9446 777.53 15.0756L774.08 23.3878C772.195 22.37 770.329 21.616 768.482 21.126C766.635 20.5982 764.844 20.3343 763.11 20.3343C761.565 20.3343 760.321 20.504 759.378 20.8432C758.436 21.1448 757.757 21.5595 757.343 22.0872C756.928 22.615 756.721 23.2182 756.721 23.8967C756.721 24.7637 757.116 25.4611 757.908 25.9889C758.737 26.479 759.812 26.8936 761.131 27.2329C762.488 27.5345 763.959 27.8549 765.542 28.1942C767.163 28.5335 768.765 28.967 770.348 29.4948C771.969 29.9848 773.439 30.6634 774.759 31.5304C776.078 32.3597 777.134 33.4718 777.925 34.8666C778.755 36.2237 779.169 37.9389 779.169 40.0123C779.169 42.3118 778.51 44.4417 777.19 46.402C775.909 48.3245 773.967 49.8701 771.366 51.0387C768.803 52.2073 765.561 52.7916 761.64 52.7916ZM800.797 52V12.4179H818.892C822.51 12.4179 825.62 13.0022 828.222 14.1708C830.86 15.3394 832.896 17.0358 834.329 19.26C835.761 21.4464 836.477 24.0475 836.477 27.0633C836.477 30.0414 835.761 32.6236 834.329 34.8101C832.896 36.9965 830.86 38.6929 828.222 39.8992C825.62 41.0678 822.51 41.6521 818.892 41.6521H807.017L811.993 36.7892V52H800.797ZM811.993 37.9766L807.017 32.831H818.213C820.55 32.831 822.284 32.322 823.415 31.3042C824.584 30.2864 825.168 28.8727 825.168 27.0633C825.168 25.2161 824.584 23.7836 823.415 22.7658C822.284 21.748 820.55 21.2391 818.213 21.2391H807.017L811.993 16.0934V37.9766ZM841.936 52V12.4179H853.132V43.1223H872.019V52H841.936ZM872.086 52L889.558 12.4179H900.585L918.114 52H906.466L892.781 17.9029H897.192L883.508 52H872.086ZM881.642 44.3098L884.526 36.0541H903.864L906.748 44.3098H881.642ZM921.288 52V12.4179H930.505L952.332 38.7683H947.978V12.4179H958.948V52H949.731L927.904 25.6496H932.258V52H921.288ZM986.806 52.7916C983.639 52.7916 980.718 52.2827 978.041 51.2649C975.365 50.2471 973.027 48.8146 971.029 46.9674C969.069 45.0826 967.542 42.8961 966.449 40.4081C965.356 37.9201 964.809 35.187 964.809 32.209C964.809 29.2309 965.356 26.4978 966.449 24.0098C967.542 21.5218 969.069 19.3542 971.029 17.507C973.027 15.6222 975.365 14.1708 978.041 13.153C980.718 12.1352 983.639 11.6263 986.806 11.6263C990.01 11.6263 992.931 12.1352 995.57 13.153C998.247 14.1708 1000.57 15.6222 1002.53 17.507C1004.49 19.3542 1006.01 21.5218 1007.11 24.0098C1008.24 26.4978 1008.8 29.2309 1008.8 32.209C1008.8 35.187 1008.24 37.9389 1007.11 40.4646C1006.01 42.9527 1004.49 45.1203 1002.53 46.9674C1000.57 48.8146 998.247 50.2471 995.57 51.2649C992.931 52.2827 990.01 52.7916 986.806 52.7916ZM986.806 43.5181C988.314 43.5181 989.708 43.2542 990.99 42.7265C992.309 42.1987 993.44 41.4448 994.383 40.4646C995.363 39.4468 996.117 38.2405 996.645 36.8457C997.21 35.4509 997.493 33.9053 997.493 32.209C997.493 30.4749 997.21 28.9293 996.645 27.5722C996.117 26.1774 995.363 24.9899 994.383 24.0098C993.44 22.992 992.309 22.2192 990.99 21.6914C989.708 21.1637 988.314 20.8998 986.806 20.8998C985.298 20.8998 983.884 21.1637 982.565 21.6914C981.283 22.2192 980.152 22.992 979.172 24.0098C978.23 24.9899 977.476 26.1774 976.91 27.5722C976.382 28.9293 976.119 30.4749 976.119 32.209C976.119 33.9053 976.382 35.4509 976.91 36.8457C977.476 38.2405 978.23 39.4468 979.172 40.4646C980.152 41.4448 981.283 42.1987 982.565 42.7265C983.884 43.2542 985.298 43.5181 986.806 43.5181ZM1028.58 52.7916C1025.33 52.7916 1022.21 52.3958 1019.19 51.6042C1016.21 50.7748 1013.78 49.7193 1011.9 48.4376L1015.57 40.1819C1017.34 41.3128 1019.38 42.2553 1021.68 43.0092C1024.01 43.7255 1026.33 44.0836 1028.63 44.0836C1030.18 44.0836 1031.42 43.9516 1032.36 43.6878C1033.31 43.3862 1033.99 43.0092 1034.4 42.5568C1034.85 42.0668 1035.08 41.5013 1035.08 40.8605C1035.08 39.9557 1034.66 39.2395 1033.84 38.7117C1033.01 38.184 1031.93 37.7504 1030.61 37.4112C1029.29 37.0719 1027.82 36.7326 1026.2 36.3933C1024.62 36.0541 1023.02 35.6206 1021.39 35.0928C1019.81 34.565 1018.36 33.8865 1017.04 33.0571C1015.72 32.1901 1014.65 31.078 1013.82 29.7209C1012.99 28.3261 1012.57 26.5732 1012.57 24.4622C1012.57 22.0872 1013.21 19.9385 1014.5 18.0159C1015.82 16.0934 1017.78 14.5478 1020.38 13.3792C1022.98 12.2106 1026.22 11.6263 1030.1 11.6263C1032.7 11.6263 1035.25 11.9278 1037.74 12.531C1040.26 13.0965 1042.51 13.9446 1044.47 15.0756L1041.02 23.3878C1039.13 22.37 1037.27 21.616 1035.42 21.126C1033.57 20.5982 1031.78 20.3343 1030.05 20.3343C1028.5 20.3343 1027.26 20.504 1026.31 20.8432C1025.37 21.1448 1024.69 21.5595 1024.28 22.0872C1023.86 22.615 1023.66 23.2182 1023.66 23.8967C1023.66 24.7637 1024.05 25.4611 1024.84 25.9889C1025.67 26.479 1026.75 26.8936 1028.07 27.2329C1029.42 27.5345 1030.89 27.8549 1032.48 28.1942C1034.1 28.5335 1035.7 28.967 1037.28 29.4948C1038.91 29.9848 1040.38 30.6634 1041.69 31.5304C1043.01 32.3597 1044.07 33.4718 1044.86 34.8666C1045.69 36.2237 1046.11 37.9389 1046.11 40.0123C1046.11 42.3118 1045.45 44.4417 1044.13 46.402C1042.84 48.3245 1040.9 49.8701 1038.3 51.0387C1035.74 52.2073 1032.5 52.7916 1028.58 52.7916Z" fill="white"/>
<path d="M10.3287 103.417V83.9418H16.6297V103.417H10.3287ZM3.37309 96.6665V90.6928H23.5444V96.6665H3.37309Z" fill="white"/>
<path d="M48.2323 91.9203H61.4479V98.1803H48.2323V91.9203ZM48.8051 108H40.7039V79.3593H63.1664V85.6193H48.8051V108ZM74.4018 90.4473H87.6993V96.5028H74.4018V90.4473ZM74.9746 101.74H89.9496V108H66.9552V79.3593H89.4177V85.6193H74.9746V101.74ZM94.4452 108V79.3593H107.538C110.157 79.3593 112.407 79.7821 114.289 80.6276C116.199 81.4732 117.671 82.7007 118.708 84.31C119.745 85.8921 120.263 87.7742 120.263 89.9563C120.263 92.1112 119.745 93.9797 118.708 95.5617C117.671 97.1165 116.199 98.3167 114.289 99.1623C112.407 99.9806 110.157 100.39 107.538 100.39H98.9459L102.546 96.9938V108H94.4452ZM112.162 108L105.042 97.5666H113.675L120.836 108H112.162ZM102.546 97.853L98.9459 94.1297H107.047C108.738 94.1297 109.993 93.7615 110.811 93.025C111.657 92.2885 112.08 91.2656 112.08 89.9563C112.08 88.6198 111.657 87.5832 110.811 86.8468C109.993 86.1103 108.738 85.7421 107.047 85.7421H98.9459L102.546 82.0188V97.853ZM124.732 108V79.3593H137.825C140.444 79.3593 142.694 79.7821 144.576 80.6276C146.485 81.4732 147.958 82.7007 148.995 84.31C150.031 85.8921 150.55 87.7742 150.55 89.9563C150.55 92.1112 150.031 93.9797 148.995 95.5617C147.958 97.1165 146.485 98.3167 144.576 99.1623C142.694 99.9806 140.444 100.39 137.825 100.39H129.233L132.833 96.9938V108H124.732ZM142.448 108L135.329 97.5666H143.962L151.123 108H142.448ZM132.833 97.853L129.233 94.1297H137.334C139.025 94.1297 140.28 93.7615 141.098 93.025C141.944 92.2885 142.367 91.2656 142.367 89.9563C142.367 88.6198 141.944 87.5832 141.098 86.8468C140.28 86.1103 139.025 85.7421 137.334 85.7421H129.233L132.833 82.0188V97.853ZM151.582 108L164.225 79.3593H172.204L184.887 108H176.459L166.557 83.328H169.749L159.847 108H151.582ZM158.497 102.436L160.584 96.4619H174.577L176.663 102.436H158.497ZM187.184 108V79.3593H193.853L205.719 98.835H202.2L213.738 79.3593H220.407L220.489 108H213.042L212.961 90.6928H214.229L205.596 105.177H201.995L193.117 90.6928H194.671V108H187.184ZM233.668 90.4473H246.965V96.5028H233.668V90.4473ZM234.241 101.74H249.216V108H226.221V79.3593H248.684V85.6193H234.241V101.74ZM253.711 108V79.3593H260.381L276.174 98.4258H273.023V79.3593H280.961V108H274.292L258.498 88.9335H261.649V108H253.711ZM292.772 108V85.783H283.975V79.3593H309.629V85.783H300.873V108H292.772ZM307.772 108L320.415 79.3593H328.393L341.077 108H332.648L322.747 83.328H325.938L316.037 108H307.772ZM314.686 102.436L316.773 96.4619H330.766L332.853 102.436H314.686ZM353.439 108.573C351.093 108.573 348.829 108.286 346.647 107.714C344.492 107.114 342.732 106.35 341.369 105.422L344.028 99.4487C345.31 100.267 346.783 100.949 348.447 101.494C350.138 102.013 351.816 102.272 353.48 102.272C354.598 102.272 355.498 102.176 356.18 101.985C356.862 101.767 357.353 101.494 357.653 101.167C357.98 100.813 358.144 100.403 358.144 99.9397C358.144 99.285 357.844 98.7668 357.244 98.3849C356.644 98.003 355.866 97.6893 354.912 97.4438C353.957 97.1983 352.893 96.9529 351.72 96.7074C350.575 96.4619 349.415 96.1482 348.242 95.7663C347.097 95.3844 346.047 94.8935 345.092 94.2934C344.137 93.666 343.36 92.8613 342.76 91.8794C342.16 90.8701 341.86 89.6017 341.86 88.0742C341.86 86.3558 342.323 84.801 343.251 83.4099C344.205 82.0188 345.624 80.9004 347.506 80.0548C349.388 79.2092 351.734 78.7864 354.543 78.7864C356.425 78.7864 358.267 79.0047 360.067 79.4411C361.895 79.8502 363.517 80.464 364.936 81.2823L362.44 87.2968C361.076 86.5604 359.726 86.0148 358.389 85.6602C357.053 85.2783 355.757 85.0874 354.502 85.0874C353.384 85.0874 352.484 85.2102 351.802 85.4556C351.12 85.6739 350.629 85.9739 350.329 86.3558C350.029 86.7377 349.879 87.1741 349.879 87.6651C349.879 88.2924 350.165 88.7971 350.738 89.1789C351.338 89.5335 352.116 89.8336 353.07 90.0791C354.052 90.2973 355.116 90.5291 356.262 90.7746C357.435 91.0201 358.594 91.3338 359.74 91.7157C360.913 92.0703 361.976 92.5613 362.931 93.1886C363.886 93.7887 364.649 94.5934 365.222 95.6027C365.822 96.5846 366.122 97.8257 366.122 99.3259C366.122 100.99 365.645 102.531 364.69 103.949C363.763 105.341 362.358 106.459 360.476 107.304C358.621 108.15 356.275 108.573 353.439 108.573ZM389.218 90.4473H402.516V96.5028H389.218V90.4473ZM389.791 101.74H404.766V108H381.772V79.3593H404.234V85.6193H389.791V101.74ZM406.076 108L418.596 90.611L418.555 96.38L406.526 79.3593H415.65L423.342 90.4473L419.455 90.4882L427.025 79.3593H435.78L423.751 96.0527V90.3246L436.435 108H427.106L419.292 96.3391H423.015L415.323 108H406.076ZM452.43 108.573C450.166 108.573 448.065 108.218 446.129 107.509C444.219 106.773 442.555 105.736 441.137 104.399C439.746 103.063 438.655 101.494 437.864 99.6942C437.073 97.8666 436.677 95.8618 436.677 93.6796C436.677 91.4975 437.073 89.5063 437.864 87.706C438.655 85.8784 439.746 84.2964 441.137 82.9598C442.555 81.6232 444.219 80.6004 446.129 79.8912C448.065 79.1547 450.166 78.7864 452.43 78.7864C455.075 78.7864 457.435 79.2502 459.508 80.1776C461.608 81.105 463.354 82.4415 464.745 84.1873L459.59 88.8516C458.662 87.7605 457.639 86.9286 456.521 86.3558C455.43 85.783 454.203 85.4966 452.839 85.4966C451.666 85.4966 450.588 85.6875 449.606 86.0694C448.624 86.4513 447.779 87.0104 447.07 87.7469C446.388 88.4561 445.842 89.3153 445.433 90.3246C445.051 91.3338 444.86 92.4522 444.86 93.6796C444.86 94.9071 445.051 96.0254 445.433 97.0347C445.842 98.0439 446.388 98.9168 447.07 99.6533C447.779 100.362 448.624 100.908 449.606 101.29C450.588 101.672 451.666 101.863 452.839 101.863C454.203 101.863 455.43 101.576 456.521 101.003C457.639 100.431 458.662 99.5987 459.59 98.5076L464.745 103.172C463.354 104.89 461.608 106.227 459.508 107.182C457.435 108.109 455.075 108.573 452.43 108.573ZM468.357 108V79.3593H476.458V101.576H490.124V108H468.357ZM506.266 108.573C502.038 108.573 498.737 107.414 496.364 105.095C493.991 102.776 492.805 99.4896 492.805 95.2344V79.3593H500.906V94.9889C500.906 97.4438 501.383 99.2032 502.338 100.267C503.32 101.331 504.656 101.863 506.348 101.863C508.039 101.863 509.362 101.331 510.316 100.267C511.271 99.2032 511.748 97.4438 511.748 94.9889V79.3593H519.727V95.2344C519.727 99.4896 518.54 102.776 516.167 105.095C513.794 107.414 510.494 108.573 506.266 108.573ZM535.28 108.573C532.934 108.573 530.67 108.286 528.488 107.714C526.333 107.114 524.574 106.35 523.21 105.422L525.87 99.4487C527.152 100.267 528.625 100.949 530.289 101.494C531.98 102.013 533.657 102.272 535.321 102.272C536.439 102.272 537.34 102.176 538.022 101.985C538.703 101.767 539.194 101.494 539.494 101.167C539.822 100.813 539.985 100.403 539.985 99.9397C539.985 99.285 539.685 98.7668 539.085 98.3849C538.485 98.003 537.708 97.6893 536.753 97.4438C535.798 97.1983 534.735 96.9529 533.562 96.7074C532.416 96.4619 531.257 96.1482 530.084 95.7663C528.938 95.3844 527.888 94.8935 526.933 94.2934C525.979 93.666 525.201 92.8613 524.601 91.8794C524.001 90.8701 523.701 89.6017 523.701 88.0742C523.701 86.3558 524.165 84.801 525.092 83.4099C526.047 82.0188 527.465 80.9004 529.347 80.0548C531.23 79.2092 533.575 78.7864 536.385 78.7864C538.267 78.7864 540.108 79.0047 541.908 79.4411C543.736 79.8502 545.359 80.464 546.777 81.2823L544.282 87.2968C542.918 86.5604 541.568 86.0148 540.231 85.6602C538.894 85.2783 537.599 85.0874 536.344 85.0874C535.226 85.0874 534.326 85.2102 533.644 85.4556C532.962 85.6739 532.471 85.9739 532.171 86.3558C531.871 86.7377 531.721 87.1741 531.721 87.6651C531.721 88.2924 532.007 88.7971 532.58 89.1789C533.18 89.5335 533.957 89.8336 534.912 90.0791C535.894 90.2973 536.958 90.5291 538.103 90.7746C539.276 91.0201 540.436 91.3338 541.581 91.7157C542.754 92.0703 543.818 92.5613 544.773 93.1886C545.727 93.7887 546.491 94.5934 547.064 95.6027C547.664 96.5846 547.964 97.8257 547.964 99.3259C547.964 100.99 547.487 102.531 546.532 103.949C545.605 105.341 544.2 106.459 542.318 107.304C540.463 108.15 538.117 108.573 535.28 108.573ZM551.706 108V79.3593H559.807V108H551.706ZM574.288 108L562.054 79.3593H570.81L581.121 104.154H575.965L586.522 79.3593H594.541L582.266 108H574.288ZM591.782 108L604.425 79.3593H612.403L625.087 108H616.658L606.757 83.328H609.948L600.047 108H591.782ZM598.696 102.436L600.783 96.4619H614.776L616.863 102.436H598.696ZM637.449 108.573C635.103 108.573 632.839 108.286 630.657 107.714C628.502 107.114 626.742 106.35 625.379 105.422L628.038 99.4487C629.32 100.267 630.793 100.949 632.457 101.494C634.148 102.013 635.826 102.272 637.49 102.272C638.608 102.272 639.508 102.176 640.19 101.985C640.872 101.767 641.363 101.494 641.663 101.167C641.99 100.813 642.154 100.403 642.154 99.9397C642.154 99.285 641.854 98.7668 641.254 98.3849C640.654 98.003 639.876 97.6893 638.922 97.4438C637.967 97.1983 636.903 96.9529 635.73 96.7074C634.585 96.4619 633.425 96.1482 632.252 95.7663C631.107 95.3844 630.057 94.8935 629.102 94.2934C628.147 93.666 627.37 92.8613 626.77 91.8794C626.17 90.8701 625.87 89.6017 625.87 88.0742C625.87 86.3558 626.333 84.801 627.261 83.4099C628.215 82.0188 629.634 80.9004 631.516 80.0548C633.398 79.2092 635.744 78.7864 638.553 78.7864C640.435 78.7864 642.277 79.0047 644.077 79.4411C645.904 79.8502 647.527 80.464 648.946 81.2823L646.45 87.2968C645.086 86.5604 643.736 86.0148 642.399 85.6602C641.063 85.2783 639.767 85.0874 638.512 85.0874C637.394 85.0874 636.494 85.2102 635.812 85.4556C635.13 85.6739 634.639 85.9739 634.339 86.3558C634.039 86.7377 633.889 87.1741 633.889 87.6651C633.889 88.2924 634.175 88.7971 634.748 89.1789C635.348 89.5335 636.126 89.8336 637.08 90.0791C638.062 90.2973 639.126 90.5291 640.272 90.7746C641.445 91.0201 642.604 91.3338 643.75 91.7157C644.923 92.0703 645.986 92.5613 646.941 93.1886C647.896 93.7887 648.659 94.5934 649.232 95.6027C649.832 96.5846 650.132 97.8257 650.132 99.3259C650.132 100.99 649.655 102.531 648.7 103.949C647.773 105.341 646.368 106.459 644.486 107.304C642.631 108.15 640.285 108.573 637.449 108.573Z" fill="url(#paint0_linear_243_2)"/>
<defs>
<linearGradient id="paint0_linear_243_2" x1="1" y1="93" x2="652" y2="93" gradientUnits="userSpaceOnUse">
<stop stop-color="#00A1FF"/>
<stop offset="1" stop-color="#0074C7"/>
</linearGradient>
</defs>
</svg>
