<svg width="837" height="191" viewBox="0 0 837 191" fill="none" xmlns="http://www.w3.org/2000/svg">
<path d="M14.9582 50V10.4179H33.6749C38.0478 10.4179 41.8929 11.2284 45.2102 12.8494C48.5276 14.4704 51.1099 16.751 52.957 19.6914C54.8419 22.6318 55.7843 26.1377 55.7843 30.209C55.7843 34.2426 54.8419 37.7484 52.957 40.7265C51.1099 43.6669 48.5276 45.9475 45.2102 47.5685C41.8929 49.1895 38.0478 50 33.6749 50H14.9582ZM26.1543 41.0658H33.2225C35.4844 41.0658 37.4446 40.6511 39.1033 39.8217C40.7997 38.9547 42.1191 37.7107 43.0615 36.0897C44.0039 34.431 44.4751 32.4708 44.4751 30.209C44.4751 27.9094 44.0039 25.9492 43.0615 24.3282C42.1191 22.7072 40.7997 21.482 39.1033 20.6527C37.4446 19.7857 35.4844 19.3521 33.2225 19.3521H26.1543V41.0658ZM61.6748 50V10.4179H72.8709V50H61.6748ZM76.0865 50L93.5591 10.4179H104.586L122.115 50H110.466L96.7823 15.9029H101.193L87.5087 50H76.0865ZM85.6427 42.3098L88.5266 34.0541H107.865L110.749 42.3098H85.6427ZM141.745 50V10.4179H160.461C164.834 10.4179 168.679 11.2284 171.997 12.8494C175.314 14.4704 177.896 16.751 179.743 19.6914C181.628 22.6318 182.571 26.1377 182.571 30.209C182.571 34.2426 181.628 37.7484 179.743 40.7265C177.896 43.6669 175.314 45.9475 171.997 47.5685C168.679 49.1895 164.834 50 160.461 50H141.745ZM152.941 41.0658H160.009C162.271 41.0658 164.231 40.6511 165.89 39.8217C167.586 38.9547 168.905 37.7107 169.848 36.0897C170.79 34.431 171.262 32.4708 171.262 30.209C171.262 27.9094 170.79 25.9492 169.848 24.3282C168.905 22.7072 167.586 21.482 165.89 20.6527C164.231 19.7857 162.271 19.3521 160.009 19.3521H152.941V41.0658ZM208.422 50.7916C205.255 50.7916 202.334 50.2827 199.657 49.2649C196.981 48.2471 194.644 46.8146 192.646 44.9674C190.685 43.0826 189.159 40.8961 188.065 38.4081C186.972 35.9201 186.426 33.187 186.426 30.209C186.426 27.2309 186.972 24.4978 188.065 22.0098C189.159 19.5218 190.685 17.3542 192.646 15.507C194.644 13.6222 196.981 12.1708 199.657 11.153C202.334 10.1352 205.255 9.62626 208.422 9.62626C211.626 9.62626 214.548 10.1352 217.186 11.153C219.863 12.1708 222.181 13.6222 224.142 15.507C226.102 17.3542 227.629 19.5218 228.722 22.0098C229.853 24.4978 230.418 27.2309 230.418 30.209C230.418 33.187 229.853 35.9389 228.722 38.4646C227.629 40.9527 226.102 43.1203 224.142 44.9674C222.181 46.8146 219.863 48.2471 217.186 49.2649C214.548 50.2827 211.626 50.7916 208.422 50.7916ZM208.422 41.5181C209.93 41.5181 211.325 41.2542 212.606 40.7265C213.926 40.1987 215.057 39.4448 215.999 38.4646C216.979 37.4468 217.733 36.2405 218.261 34.8457C218.826 33.4509 219.109 31.9053 219.109 30.209C219.109 28.4749 218.826 26.9293 218.261 25.5722C217.733 24.1774 216.979 22.9899 215.999 22.0098C215.057 20.992 213.926 20.2192 212.606 19.6914C211.325 19.1637 209.93 18.8998 208.422 18.8998C206.914 18.8998 205.5 19.1637 204.181 19.6914C202.899 20.2192 201.768 20.992 200.788 22.0098C199.846 22.9899 199.092 24.1774 198.526 25.5722C197.999 26.9293 197.735 28.4749 197.735 30.209C197.735 31.9053 197.999 33.4509 198.526 34.8457C199.092 36.2405 199.846 37.4468 200.788 38.4646C201.768 39.4448 202.899 40.1987 204.181 40.7265C205.5 41.2542 206.914 41.5181 208.422 41.5181ZM272.472 50.7916C269.344 50.7916 266.441 50.3016 263.764 49.3214C261.126 48.3036 258.826 46.8711 256.866 45.024C254.943 43.1768 253.435 41.0092 252.342 38.5212C251.249 35.9955 250.702 33.2247 250.702 30.209C250.702 27.1932 251.249 24.4413 252.342 21.9533C253.435 19.4275 254.943 17.2411 256.866 15.3939C258.826 13.5468 261.126 12.1331 263.764 11.153C266.441 10.1352 269.344 9.62626 272.472 9.62626C276.129 9.62626 279.39 10.2671 282.255 11.5488C285.158 12.8305 287.57 14.6777 289.493 17.0903L282.368 23.5365C281.086 22.0287 279.673 20.8789 278.127 20.0872C276.619 19.2956 274.923 18.8998 273.038 18.8998C271.417 18.8998 269.928 19.1637 268.571 19.6914C267.214 20.2192 266.045 20.992 265.065 22.0098C264.122 22.9899 263.369 24.1774 262.803 25.5722C262.275 26.967 262.011 28.5126 262.011 30.209C262.011 31.9053 262.275 33.4509 262.803 34.8457C263.369 36.2405 264.122 37.4468 265.065 38.4646C266.045 39.4448 267.214 40.1987 268.571 40.7265C269.928 41.2542 271.417 41.5181 273.038 41.5181C274.923 41.5181 276.619 41.1223 278.127 40.3307C279.673 39.539 281.086 38.3893 282.368 36.8814L289.493 43.3276C287.57 45.7025 285.158 47.5497 282.255 48.8691C279.39 50.1508 276.129 50.7916 272.472 50.7916ZM294.485 50V10.4179H305.681V41.1223H324.567V50H294.485ZM328.997 50V10.4179H340.194V50H328.997ZM358.45 25.7418H376.828V34.1106H358.45V25.7418ZM359.242 41.3485H379.938V50H348.159V10.4179H379.203V19.0694H359.242V41.3485ZM386.151 50V10.4179H395.368L417.194 36.7683H412.84V10.4179H423.81V50H414.593L392.767 23.6496H397.121V50H386.151ZM440.133 50V19.2956H427.976V10.4179H463.43V19.2956H451.329V50H440.133ZM477.892 25.7418H496.27V34.1106H477.892V25.7418ZM478.684 41.3485H499.38V50H467.601V10.4179H498.645V19.0694H478.684V41.3485ZM522.049 50V10.4179H531.266L553.092 36.7683H548.738V10.4179H559.708V50H550.491L528.664 23.6496H533.018V50H522.049ZM562.856 50L580.328 10.4179H591.355L608.884 50H597.236L583.551 15.9029H587.962L574.278 50H562.856ZM572.412 42.3098L575.296 34.0541H594.634L597.518 42.3098H572.412ZM626.535 50V42.9883L649.832 15.3374L651.189 19.2956H627.044V10.4179H661.141V17.4296L637.844 45.0805L636.487 41.1223H661.989V50H626.535ZM677.183 25.7418H695.561V34.1106H677.183V25.7418ZM677.975 41.3485H698.671V50H666.892V10.4179H697.936V19.0694H677.975V41.3485ZM704.884 50V10.4179H722.978C726.597 10.4179 729.707 11.0022 732.309 12.1708C734.947 13.3394 736.983 15.0358 738.415 17.26C739.848 19.4464 740.564 22.0475 740.564 25.0633C740.564 28.0414 739.848 30.6236 738.415 32.8101C736.983 34.9588 734.947 36.6175 732.309 37.7861C729.707 38.917 726.597 39.4825 722.978 39.4825H711.104L716.08 34.7892V50H704.884ZM729.368 50L719.529 35.5808H731.46L741.356 50H729.368ZM716.08 35.9766L711.104 30.831H722.3C724.637 30.831 726.371 30.322 727.502 29.3042C728.671 28.2864 729.255 26.8727 729.255 25.0633C729.255 23.2161 728.671 21.7836 727.502 20.7658C726.371 19.748 724.637 19.2391 722.3 19.2391H711.104L716.08 14.0934V35.9766ZM766.702 50.7916C763.535 50.7916 760.614 50.2827 757.937 49.2649C755.261 48.2471 752.923 46.8146 750.925 44.9674C748.965 43.0826 747.438 40.8961 746.345 38.4081C745.252 35.9201 744.705 33.187 744.705 30.209C744.705 27.2309 745.252 24.4978 746.345 22.0098C747.438 19.5218 748.965 17.3542 750.925 15.507C752.923 13.6222 755.261 12.1708 757.937 11.153C760.614 10.1352 763.535 9.62626 766.702 9.62626C769.906 9.62626 772.827 10.1352 775.466 11.153C778.143 12.1708 780.461 13.6222 782.421 15.507C784.382 17.3542 785.908 19.5218 787.002 22.0098C788.133 24.4978 788.698 27.2309 788.698 30.209C788.698 33.187 788.133 35.9389 787.002 38.4646C785.908 40.9527 784.382 43.1203 782.421 44.9674C780.461 46.8146 778.143 48.2471 775.466 49.2649C772.827 50.2827 769.906 50.7916 766.702 50.7916ZM766.702 41.5181C768.21 41.5181 769.604 41.2542 770.886 40.7265C772.205 40.1987 773.336 39.4448 774.279 38.4646C775.259 37.4468 776.013 36.2405 776.541 34.8457C777.106 33.4509 777.389 31.9053 777.389 30.209C777.389 28.4749 777.106 26.9293 776.541 25.5722C776.013 24.1774 775.259 22.9899 774.279 22.0098C773.336 20.992 772.205 20.2192 770.886 19.6914C769.604 19.1637 768.21 18.8998 766.702 18.8998C765.194 18.8998 763.78 19.1637 762.461 19.6914C761.179 20.2192 760.048 20.992 759.068 22.0098C758.126 22.9899 757.372 24.1774 756.806 25.5722C756.278 26.9293 756.015 28.4749 756.015 30.209C756.015 31.9053 756.278 33.4509 756.806 34.8457C757.372 36.2405 758.126 37.4468 759.068 38.4646C760.048 39.4448 761.179 40.1987 762.461 40.7265C763.78 41.2542 765.194 41.5181 766.702 41.5181ZM798.52 50L813.957 14.5458L816.954 19.2956H796.88L801.461 14.1499V25.4026H791.904V10.4179H824.701V17.4296L810.734 50H798.52Z" fill="white"/>
<path d="M12.2014 93.562V91.3488L23.5201 76.8685H26.9347L15.7108 91.3488L14.0984 90.843H31.772V93.562H12.2014ZM24.5002 99V93.562L24.5951 90.843V86.0373H27.567V99H24.5002ZM42.6073 99.2529C40.8157 99.2529 39.2665 98.9895 37.9597 98.4625C36.6528 97.9356 35.6411 97.1873 34.9245 96.2178C34.2078 95.2271 33.8495 94.0678 33.8495 92.74C33.8495 91.4331 34.1868 90.3266 34.8612 89.4202C35.5568 88.4928 36.558 87.7973 37.8648 87.3335C39.1716 86.8488 40.7524 86.6064 42.6073 86.6064C44.4621 86.6064 46.0429 86.8488 47.3497 87.3335C48.6776 87.7973 49.6893 88.4928 50.3849 89.4202C51.0805 90.3476 51.4282 91.4542 51.4282 92.74C51.4282 94.0678 51.0699 95.2271 50.3533 96.2178C49.6366 97.1873 48.6144 97.9356 47.2865 98.4625C45.9586 98.9895 44.3989 99.2529 42.6073 99.2529ZM42.6073 96.692C44.3778 96.692 45.7584 96.3337 46.749 95.617C47.7607 94.8793 48.2666 93.8887 48.2666 92.6451C48.2666 91.4226 47.7607 90.4636 46.749 89.768C45.7584 89.0514 44.3778 88.6931 42.6073 88.6931C40.8578 88.6931 39.4878 89.0514 38.4971 89.768C37.5065 90.4636 37.0112 91.4226 37.0112 92.6451C37.0112 93.8887 37.5065 94.8793 38.4971 95.617C39.4878 96.3337 40.8578 96.692 42.6073 96.692ZM42.6073 88.3137C40.9211 88.3137 39.4878 88.0923 38.3074 87.6497C37.1271 87.186 36.2207 86.5326 35.5884 85.6895C34.9561 84.8253 34.6399 83.803 34.6399 82.6227C34.6399 81.3791 34.9666 80.3147 35.62 79.4294C36.2945 78.5231 37.2325 77.8275 38.4339 77.3428C39.6353 76.858 41.0264 76.6156 42.6073 76.6156C44.2092 76.6156 45.6108 76.858 46.8122 77.3428C48.0137 77.8275 48.9516 78.5231 49.6261 79.4294C50.3006 80.3147 50.6378 81.3791 50.6378 82.6227C50.6378 83.803 50.3217 84.8253 49.6893 85.6895C49.057 86.5326 48.1401 87.186 46.9387 87.6497C45.7373 88.0923 44.2935 88.3137 42.6073 88.3137ZM42.6073 86.2902C44.1459 86.2902 45.3474 85.974 46.2115 85.3417C47.0968 84.7094 47.5394 83.8452 47.5394 82.7492C47.5394 81.6321 47.0863 80.7573 46.1799 80.125C45.2736 79.4927 44.0827 79.1765 42.6073 79.1765C41.1318 79.1765 39.9515 79.4927 39.0662 80.125C38.202 80.7573 37.77 81.6321 37.77 82.7492C37.77 83.8452 38.1915 84.7094 39.0346 85.3417C39.8988 85.974 41.0897 86.2902 42.6073 86.2902ZM73.1205 82.0852C74.4906 82.0852 75.692 82.3487 76.7248 82.8756C77.7787 83.4026 78.6007 84.2035 79.1909 85.2785C79.7811 86.3534 80.0762 87.7129 80.0762 89.357V99H77.041V89.7048C77.041 88.0818 76.6405 86.8593 75.8396 86.0373C75.0597 85.2152 73.9531 84.8042 72.5198 84.8042C71.4449 84.8042 70.5069 85.015 69.706 85.4366C68.905 85.8581 68.2832 86.4799 67.8406 87.3019C67.4191 88.124 67.2083 89.1462 67.2083 90.3687V99H64.1731V75.5406H67.2083V86.7645L66.6076 85.563C67.1556 84.467 67.9987 83.6134 69.1369 83.0021C70.2751 82.3908 71.603 82.0852 73.1205 82.0852ZM92.8702 99.1897C91.184 99.1897 89.6875 98.8208 88.3806 98.0831C87.0738 97.3454 86.041 96.3337 85.2822 95.0479C84.5234 93.7411 84.1441 92.2657 84.1441 90.6217C84.1441 88.9565 84.5234 87.4811 85.2822 86.1954C86.041 84.9096 87.0738 83.9084 88.3806 83.1918C89.6875 82.4541 91.184 82.0852 92.8702 82.0852C94.5353 82.0852 96.0213 82.4541 97.3281 83.1918C98.656 83.9084 99.6888 84.9096 100.426 86.1954C101.185 87.46 101.565 88.9354 101.565 90.6217C101.565 92.2868 101.185 93.7622 100.426 95.0479C99.6888 96.3337 98.656 97.3454 97.3281 98.0831C96.0213 98.8208 94.5353 99.1897 92.8702 99.1897ZM92.8702 96.5339C93.9451 96.5339 94.9042 96.2915 95.7473 95.8067C96.6115 95.322 97.2859 94.6369 97.7707 93.7517C98.2555 92.8453 98.4979 91.802 98.4979 90.6217C98.4979 89.4202 98.2555 88.3874 97.7707 87.5232C97.2859 86.638 96.6115 85.953 95.7473 85.4682C94.9042 84.9834 93.9451 84.741 92.8702 84.741C91.7952 84.741 90.8362 84.9834 89.9931 85.4682C89.15 85.953 88.4755 86.638 87.9696 87.5232C87.4638 88.3874 87.2108 89.4202 87.2108 90.6217C87.2108 91.802 87.4638 92.8453 87.9696 93.7517C88.4755 94.6369 89.15 95.322 89.9931 95.8067C90.8362 96.2915 91.7952 96.5339 92.8702 96.5339ZM105.762 99V82.2433H108.671V86.7961L108.386 85.6579C108.85 84.4986 109.63 83.6134 110.726 83.0021C111.822 82.3908 113.171 82.0852 114.773 82.0852V85.0255C114.646 85.0045 114.52 84.9939 114.394 84.9939C114.288 84.9939 114.183 84.9939 114.077 84.9939C112.454 84.9939 111.169 85.4787 110.22 86.4483C109.272 87.4179 108.797 88.8195 108.797 90.6533V99H105.762ZM127.681 99V95.459L127.522 94.795V88.7563C127.522 87.4706 127.143 86.4799 126.384 85.7843C125.647 85.0677 124.529 84.7094 123.033 84.7094C122.042 84.7094 121.073 84.878 120.124 85.2152C119.176 85.5314 118.375 85.9635 117.721 86.5115L116.457 84.2351C117.321 83.5396 118.354 83.0126 119.555 82.6543C120.778 82.2749 122.053 82.0852 123.381 82.0852C125.678 82.0852 127.449 82.6438 128.692 83.7609C129.936 84.878 130.558 86.5853 130.558 88.8828V99H127.681ZM122.179 99.1897C120.936 99.1897 119.84 98.9789 118.891 98.5574C117.964 98.1358 117.247 97.5562 116.741 96.8185C116.235 96.0597 115.983 95.206 115.983 94.2575C115.983 93.3512 116.193 92.5292 116.615 91.7915C117.057 91.0537 117.764 90.4636 118.733 90.0209C119.724 89.5783 121.052 89.357 122.717 89.357H128.028V91.5385H122.843C121.326 91.5385 120.303 91.7915 119.776 92.2973C119.25 92.8032 118.986 93.4144 118.986 94.1311C118.986 94.9531 119.313 95.617 119.966 96.1229C120.62 96.6077 121.526 96.8501 122.685 96.8501C123.823 96.8501 124.814 96.5972 125.657 96.0913C126.521 95.5854 127.143 94.8477 127.522 93.8781L128.123 95.9648C127.723 96.9555 127.017 97.7459 126.005 98.3361C124.993 98.9052 123.718 99.1897 122.179 99.1897ZM140.98 99.1897C139.589 99.1897 138.261 99 136.997 98.6206C135.753 98.2412 134.773 97.7775 134.056 97.2295L135.321 94.8266C136.038 95.3114 136.923 95.7224 137.977 96.0597C139.031 96.3969 140.105 96.5655 141.202 96.5655C142.614 96.5655 143.625 96.3653 144.237 95.9648C144.869 95.5644 145.185 95.0058 145.185 94.2892C145.185 93.7622 144.996 93.3512 144.616 93.0561C144.237 92.761 143.731 92.5397 143.099 92.3922C142.487 92.2446 141.802 92.1182 141.043 92.0128C140.285 91.8863 139.526 91.7388 138.767 91.5701C138.008 91.3804 137.313 91.1275 136.68 90.8114C136.048 90.4741 135.542 90.0209 135.163 89.4518C134.783 88.8617 134.594 88.0818 134.594 87.1122C134.594 86.1005 134.878 85.2152 135.447 84.4565C136.016 83.6977 136.817 83.118 137.85 82.7176C138.904 82.296 140.148 82.0852 141.581 82.0852C142.677 82.0852 143.784 82.2222 144.901 82.4962C146.039 82.7492 146.966 83.118 147.683 83.6028L146.387 86.0057C145.628 85.4998 144.837 85.152 144.015 84.9623C143.193 84.7726 142.371 84.6778 141.549 84.6778C140.221 84.6778 139.231 84.8991 138.577 85.3417C137.924 85.7633 137.597 86.3113 137.597 86.9858C137.597 87.5549 137.787 87.9975 138.166 88.3137C138.567 88.6087 139.073 88.8406 139.684 89.0092C140.316 89.1778 141.012 89.3254 141.771 89.4518C142.529 89.5572 143.288 89.7048 144.047 89.8945C144.806 90.0631 145.491 90.3055 146.102 90.6217C146.734 90.9378 147.24 91.3804 147.62 91.9495C148.02 92.5186 148.22 93.2774 148.22 94.2259C148.22 95.2376 147.925 96.1124 147.335 96.8501C146.745 97.5878 145.912 98.1674 144.837 98.589C143.762 98.9895 142.477 99.1897 140.98 99.1897ZM167.808 99.1897C166.1 99.1897 164.572 98.8208 163.223 98.0831C161.895 97.3454 160.852 96.3337 160.093 95.0479C159.335 93.7622 158.955 92.2868 158.955 90.6217C158.955 88.9565 159.335 87.4811 160.093 86.1954C160.852 84.9096 161.895 83.9084 163.223 83.1918C164.572 82.4541 166.1 82.0852 167.808 82.0852C169.325 82.0852 170.674 82.3908 171.855 83.0021C173.056 83.5923 173.983 84.4775 174.637 85.6579L172.329 87.1438C171.781 86.3218 171.106 85.7211 170.305 85.3417C169.526 84.9412 168.682 84.741 167.776 84.741C166.68 84.741 165.7 84.9834 164.836 85.4682C163.972 85.953 163.287 86.638 162.781 87.5232C162.275 88.3874 162.022 89.4202 162.022 90.6217C162.022 91.8231 162.275 92.8664 162.781 93.7517C163.287 94.6369 163.972 95.322 164.836 95.8067C165.7 96.2915 166.68 96.5339 167.776 96.5339C168.682 96.5339 169.526 96.3442 170.305 95.9648C171.106 95.5644 171.781 94.9531 172.329 94.1311L174.637 95.5854C173.983 96.7447 173.056 97.6405 171.855 98.2728C170.674 98.8841 169.325 99.1897 167.808 99.1897ZM185.496 99.1897C183.81 99.1897 182.314 98.8208 181.007 98.0831C179.7 97.3454 178.667 96.3337 177.908 95.0479C177.15 93.7411 176.77 92.2657 176.77 90.6217C176.77 88.9565 177.15 87.4811 177.908 86.1954C178.667 84.9096 179.7 83.9084 181.007 83.1918C182.314 82.4541 183.81 82.0852 185.496 82.0852C187.161 82.0852 188.647 82.4541 189.954 83.1918C191.282 83.9084 192.315 84.9096 193.053 86.1954C193.811 87.46 194.191 88.9354 194.191 90.6217C194.191 92.2868 193.811 93.7622 193.053 95.0479C192.315 96.3337 191.282 97.3454 189.954 98.0831C188.647 98.8208 187.161 99.1897 185.496 99.1897ZM185.496 96.5339C186.571 96.5339 187.53 96.2915 188.373 95.8067C189.238 95.322 189.912 94.6369 190.397 93.7517C190.882 92.8453 191.124 91.802 191.124 90.6217C191.124 89.4202 190.882 88.3874 190.397 87.5232C189.912 86.638 189.238 85.953 188.373 85.4682C187.53 84.9834 186.571 84.741 185.496 84.741C184.421 84.741 183.462 84.9834 182.619 85.4682C181.776 85.953 181.102 86.638 180.596 87.5232C180.09 88.3874 179.837 89.4202 179.837 90.6217C179.837 91.802 180.09 92.8453 180.596 93.7517C181.102 94.6369 181.776 95.322 182.619 95.8067C183.462 96.2915 184.421 96.5339 185.496 96.5339ZM219.35 82.0852C220.699 82.0852 221.89 82.3487 222.923 82.8756C223.956 83.4026 224.757 84.2035 225.326 85.2785C225.916 86.3534 226.211 87.7129 226.211 89.357V99H223.176V89.7048C223.176 88.0818 222.796 86.8593 222.037 86.0373C221.279 85.2152 220.214 84.8042 218.844 84.8042C217.833 84.8042 216.947 85.015 216.188 85.4366C215.43 85.8581 214.839 86.4799 214.418 87.3019C214.017 88.124 213.817 89.1462 213.817 90.3687V99H210.782V89.7048C210.782 88.0818 210.403 86.8593 209.644 86.0373C208.906 85.2152 207.842 84.8042 206.451 84.8042C205.46 84.8042 204.585 85.015 203.826 85.4366C203.068 85.8581 202.477 86.4799 202.056 87.3019C201.634 88.124 201.424 89.1462 201.424 90.3687V99H198.388V82.2433H201.297V86.7012L200.823 85.563C201.35 84.467 202.161 83.6134 203.257 83.0021C204.353 82.3908 205.629 82.0852 207.083 82.0852C208.685 82.0852 210.065 82.4857 211.225 83.2866C212.384 84.0665 213.143 85.2574 213.501 86.8593L212.268 86.3534C212.774 85.0677 213.659 84.0349 214.924 83.255C216.188 82.4752 217.664 82.0852 219.35 82.0852ZM246.072 99.2529C244.512 99.2529 242.995 99.0105 241.519 98.5258C240.065 98.041 238.874 97.3876 237.947 96.5655L239.401 94.0678C240.139 94.7634 241.098 95.3325 242.278 95.7751C243.459 96.2178 244.713 96.4391 246.041 96.4391C247.727 96.4391 249.023 96.0808 249.929 95.3641C250.836 94.6475 251.289 93.6884 251.289 92.487C251.289 91.665 251.089 90.9484 250.688 90.3371C250.288 89.7259 249.592 89.2621 248.601 88.946C247.632 88.6087 246.293 88.4401 244.586 88.4401H239.559L240.729 76.8685H253.217V79.6191H241.899L243.543 78.0699L242.626 87.2071L240.982 85.6895H245.25C247.463 85.6895 249.244 85.974 250.593 86.5431C251.942 87.1122 252.922 87.9026 253.534 88.9144C254.145 89.905 254.45 91.0537 254.45 92.3606C254.45 93.6252 254.145 94.7845 253.534 95.8384C252.922 96.8712 251.995 97.7037 250.751 98.3361C249.529 98.9473 247.969 99.2529 246.072 99.2529ZM260.506 99L269.896 78.1964L270.718 79.6191H257.565L259.146 78.0699V83.5712H256.111V76.8685H272.805V79.0184L263.857 99H260.506ZM278.611 99L293.724 76.8685H296.158L281.046 99H278.611ZM280.382 88.7563C279.37 88.7563 278.474 88.5034 277.694 87.9975C276.914 87.4916 276.303 86.7855 275.86 85.8792C275.439 84.9729 275.228 83.919 275.228 82.7176C275.228 81.5161 275.439 80.4622 275.86 79.5559C276.303 78.6496 276.914 77.9435 277.694 77.4376C278.474 76.9318 279.37 76.6788 280.382 76.6788C281.414 76.6788 282.31 76.9318 283.069 77.4376C283.849 77.9435 284.45 78.6496 284.871 79.5559C285.293 80.4622 285.503 81.5161 285.503 82.7176C285.503 83.919 285.293 84.9729 284.871 85.8792C284.45 86.7855 283.849 87.4916 283.069 87.9975C282.31 88.5034 281.414 88.7563 280.382 88.7563ZM280.382 86.9542C281.351 86.9542 282.11 86.5853 282.658 85.8476C283.206 85.0888 283.48 84.0454 283.48 82.7176C283.48 81.3897 283.206 80.3569 282.658 79.6191C282.11 78.8604 281.351 78.481 280.382 78.481C279.433 78.481 278.674 78.8604 278.105 79.6191C277.557 80.3569 277.283 81.3897 277.283 82.7176C277.283 84.0244 277.557 85.0572 278.105 85.816C278.674 86.5748 279.433 86.9542 280.382 86.9542ZM294.388 99.1897C293.376 99.1897 292.48 98.9368 291.7 98.4309C290.92 97.925 290.32 97.2189 289.898 96.3126C289.477 95.4063 289.266 94.3524 289.266 93.151C289.266 91.9495 289.477 90.8957 289.898 89.9893C290.32 89.083 290.92 88.3769 291.7 87.871C292.48 87.3652 293.376 87.1122 294.388 87.1122C295.42 87.1122 296.316 87.3652 297.075 87.871C297.855 88.3769 298.456 89.083 298.877 89.9893C299.32 90.8957 299.541 91.9495 299.541 93.151C299.541 94.3524 299.32 95.4063 298.877 96.3126C298.456 97.2189 297.855 97.925 297.075 98.4309C296.316 98.9368 295.42 99.1897 294.388 99.1897ZM294.388 97.3876C295.336 97.3876 296.084 97.0187 296.632 96.281C297.202 95.5222 297.486 94.4789 297.486 93.151C297.486 91.8442 297.202 90.8114 296.632 90.0526C296.084 89.2938 295.336 88.9144 294.388 88.9144C293.439 88.9144 292.68 89.2938 292.111 90.0526C291.563 90.7903 291.289 91.8231 291.289 93.151C291.289 94.4789 291.563 95.5222 292.111 96.281C292.68 97.0187 293.439 97.3876 294.388 97.3876ZM318.996 99.1897C317.373 99.1897 315.918 98.8314 314.633 98.1147C313.368 97.3981 312.367 96.3969 311.629 95.1112C310.891 93.8254 310.522 92.3289 310.522 90.6217C310.522 88.9144 310.891 87.4284 311.629 86.1637C312.367 84.878 313.368 83.8768 314.633 83.1602C315.918 82.4435 317.373 82.0852 318.996 82.0852C320.408 82.0852 321.683 82.4014 322.821 83.0337C323.959 83.666 324.866 84.6145 325.54 85.8792C326.236 87.1438 326.584 88.7247 326.584 90.6217C326.584 92.5186 326.246 94.0995 325.572 95.3641C324.918 96.6288 324.023 97.5878 322.884 98.2412C321.746 98.8735 320.45 99.1897 318.996 99.1897ZM319.249 96.5339C320.302 96.5339 321.251 96.2915 322.094 95.8067C322.958 95.322 323.633 94.6369 324.117 93.7517C324.623 92.8453 324.876 91.802 324.876 90.6217C324.876 89.4202 324.623 88.3874 324.117 87.5232C323.633 86.638 322.958 85.953 322.094 85.4682C321.251 84.9834 320.302 84.741 319.249 84.741C318.174 84.741 317.215 84.9834 316.371 85.4682C315.528 85.953 314.854 86.638 314.348 87.5232C313.842 88.3874 313.589 89.4202 313.589 90.6217C313.589 91.802 313.842 92.8453 314.348 93.7517C314.854 94.6369 315.528 95.322 316.371 95.8067C317.215 96.2915 318.174 96.5339 319.249 96.5339ZM324.971 99V94.4789L325.161 90.59L324.845 86.7012V75.5406H327.88V99H324.971ZM341.084 99.1897C339.293 99.1897 337.712 98.8208 336.342 98.0831C334.993 97.3454 333.939 96.3337 333.18 95.0479C332.442 93.7622 332.073 92.2868 332.073 90.6217C332.073 88.9565 332.432 87.4811 333.148 86.1954C333.886 84.9096 334.887 83.9084 336.152 83.1918C337.438 82.4541 338.882 82.0852 340.483 82.0852C342.106 82.0852 343.54 82.4435 344.783 83.1602C346.027 83.8768 346.996 84.8885 347.692 86.1954C348.409 87.4811 348.767 88.9881 348.767 90.7165C348.767 90.843 348.756 90.9905 348.735 91.1591C348.735 91.3278 348.725 91.4858 348.704 91.6334H334.445V89.4518H347.123L345.89 90.2106C345.911 89.1357 345.69 88.1767 345.226 87.3335C344.762 86.4904 344.119 85.837 343.297 85.3733C342.496 84.8885 341.558 84.6462 340.483 84.6462C339.43 84.6462 338.492 84.8885 337.67 85.3733C336.848 85.837 336.205 86.501 335.741 87.3652C335.277 88.2083 335.045 89.1778 335.045 90.2739V90.7797C335.045 91.8968 335.298 92.898 335.804 93.7833C336.331 94.6475 337.058 95.322 337.986 95.8067C338.913 96.2915 339.978 96.5339 341.179 96.5339C342.17 96.5339 343.065 96.3653 343.866 96.0281C344.688 95.6908 345.405 95.185 346.016 94.5105L347.692 96.4707C346.933 97.3559 345.985 98.0304 344.846 98.4941C343.729 98.9578 342.475 99.1897 341.084 99.1897ZM368.396 99.1897C366.773 99.1897 365.319 98.8314 364.033 98.1147C362.769 97.3981 361.767 96.3969 361.03 95.1112C360.292 93.8254 359.923 92.3289 359.923 90.6217C359.923 88.9144 360.292 87.4284 361.03 86.1637C361.767 84.878 362.769 83.8768 364.033 83.1602C365.319 82.4435 366.773 82.0852 368.396 82.0852C369.808 82.0852 371.084 82.4014 372.222 83.0337C373.36 83.666 374.266 84.6145 374.941 85.8792C375.636 87.1438 375.984 88.7247 375.984 90.6217C375.984 92.5186 375.647 94.0995 374.972 95.3641C374.319 96.6288 373.423 97.5878 372.285 98.2412C371.147 98.8735 369.851 99.1897 368.396 99.1897ZM368.649 96.5339C369.703 96.5339 370.652 96.2915 371.495 95.8067C372.359 95.322 373.033 94.6369 373.518 93.7517C374.024 92.8453 374.277 91.802 374.277 90.6217C374.277 89.4202 374.024 88.3874 373.518 87.5232C373.033 86.638 372.359 85.953 371.495 85.4682C370.652 84.9834 369.703 84.741 368.649 84.741C367.574 84.741 366.615 84.9834 365.772 85.4682C364.929 85.953 364.254 86.638 363.749 87.5232C363.243 88.3874 362.99 89.4202 362.99 90.6217C362.99 91.802 363.243 92.8453 363.749 93.7517C364.254 94.6369 364.929 95.322 365.772 95.8067C366.615 96.2915 367.574 96.5339 368.649 96.5339ZM374.372 99V94.4789L374.561 90.59L374.245 86.7012V75.5406H377.28V99H374.372ZM390.485 99.1897C388.693 99.1897 387.112 98.8208 385.742 98.0831C384.393 97.3454 383.339 96.3337 382.581 95.0479C381.843 93.7622 381.474 92.2868 381.474 90.6217C381.474 88.9565 381.832 87.4811 382.549 86.1954C383.287 84.9096 384.288 83.9084 385.553 83.1918C386.838 82.4541 388.282 82.0852 389.884 82.0852C391.507 82.0852 392.94 82.4435 394.184 83.1602C395.427 83.8768 396.397 84.8885 397.093 86.1954C397.809 87.4811 398.168 88.9881 398.168 90.7165C398.168 90.843 398.157 90.9905 398.136 91.1591C398.136 91.3278 398.125 91.4858 398.104 91.6334H383.845V89.4518H396.523L395.29 90.2106C395.312 89.1357 395.09 88.1767 394.626 87.3335C394.163 86.4904 393.52 85.837 392.698 85.3733C391.897 84.8885 390.959 84.6462 389.884 84.6462C388.83 84.6462 387.892 84.8885 387.07 85.3733C386.248 85.837 385.605 86.501 385.142 87.3652C384.678 88.2083 384.446 89.1778 384.446 90.2739V90.7797C384.446 91.8968 384.699 92.898 385.205 93.7833C385.732 94.6475 386.459 95.322 387.386 95.8067C388.314 96.2915 389.378 96.5339 390.58 96.5339C391.57 96.5339 392.466 96.3653 393.267 96.0281C394.089 95.6908 394.806 95.185 395.417 94.5105L397.093 96.4707C396.334 97.3559 395.385 98.0304 394.247 98.4941C393.13 98.9578 391.876 99.1897 390.485 99.1897ZM407.188 99.1897C405.797 99.1897 404.469 99 403.204 98.6206C401.961 98.2412 400.98 97.7775 400.264 97.2295L401.529 94.8266C402.245 95.3114 403.13 95.7224 404.184 96.0597C405.238 96.3969 406.313 96.5655 407.409 96.5655C408.821 96.5655 409.833 96.3653 410.444 95.9648C411.077 95.5644 411.393 95.0058 411.393 94.2892C411.393 93.7622 411.203 93.3512 410.824 93.0561C410.444 92.761 409.938 92.5397 409.306 92.3922C408.695 92.2446 408.01 92.1182 407.251 92.0128C406.492 91.8863 405.733 91.7388 404.975 91.5701C404.216 91.3804 403.52 91.1275 402.888 90.8114C402.256 90.4741 401.75 90.0209 401.37 89.4518C400.991 88.8617 400.801 88.0818 400.801 87.1122C400.801 86.1005 401.086 85.2152 401.655 84.4565C402.224 83.6977 403.025 83.118 404.058 82.7176C405.112 82.296 406.355 82.0852 407.789 82.0852C408.885 82.0852 409.991 82.2222 411.108 82.4962C412.246 82.7492 413.174 83.118 413.891 83.6028L412.594 86.0057C411.835 85.4998 411.045 85.152 410.223 84.9623C409.401 84.7726 408.579 84.6778 407.757 84.6778C406.429 84.6778 405.438 84.8991 404.785 85.3417C404.132 85.7633 403.805 86.3113 403.805 86.9858C403.805 87.5549 403.995 87.9975 404.374 88.3137C404.774 88.6087 405.28 88.8406 405.892 89.0092C406.524 89.1778 407.219 89.3254 407.978 89.4518C408.737 89.5572 409.496 89.7048 410.255 89.8945C411.013 90.0631 411.698 90.3055 412.31 90.6217C412.942 90.9378 413.448 91.3804 413.827 91.9495C414.228 92.5186 414.428 93.2774 414.428 94.2259C414.428 95.2376 414.133 96.1124 413.543 96.8501C412.953 97.5878 412.12 98.1674 411.045 98.589C409.97 98.9895 408.684 99.1897 407.188 99.1897ZM425.525 99.1897C423.817 99.1897 422.289 98.8208 420.94 98.0831C419.612 97.3454 418.569 96.3337 417.81 95.0479C417.051 93.7622 416.672 92.2868 416.672 90.6217C416.672 88.9565 417.051 87.4811 417.81 86.1954C418.569 84.9096 419.612 83.9084 420.94 83.1918C422.289 82.4541 423.817 82.0852 425.525 82.0852C427.042 82.0852 428.391 82.3908 429.572 83.0021C430.773 83.5923 431.7 84.4775 432.354 85.6579L430.046 87.1438C429.498 86.3218 428.823 85.7211 428.022 85.3417C427.242 84.9412 426.399 84.741 425.493 84.741C424.397 84.741 423.417 84.9834 422.553 85.4682C421.689 85.953 421.003 86.638 420.498 87.5232C419.992 88.3874 419.739 89.4202 419.739 90.6217C419.739 91.8231 419.992 92.8664 420.498 93.7517C421.003 94.6369 421.689 95.322 422.553 95.8067C423.417 96.2915 424.397 96.5339 425.493 96.5339C426.399 96.5339 427.242 96.3442 428.022 95.9648C428.823 95.5644 429.498 94.9531 430.046 94.1311L432.354 95.5854C431.7 96.7447 430.773 97.6405 429.572 98.2728C428.391 98.8841 427.042 99.1897 425.525 99.1897ZM443.213 99.1897C441.527 99.1897 440.031 98.8208 438.724 98.0831C437.417 97.3454 436.384 96.3337 435.625 95.0479C434.867 93.7411 434.487 92.2657 434.487 90.6217C434.487 88.9565 434.867 87.4811 435.625 86.1954C436.384 84.9096 437.417 83.9084 438.724 83.1918C440.031 82.4541 441.527 82.0852 443.213 82.0852C444.878 82.0852 446.364 82.4541 447.671 83.1918C448.999 83.9084 450.032 84.9096 450.77 86.1954C451.528 87.46 451.908 88.9354 451.908 90.6217C451.908 92.2868 451.528 93.7622 450.77 95.0479C450.032 96.3337 448.999 97.3454 447.671 98.0831C446.364 98.8208 444.878 99.1897 443.213 99.1897ZM443.213 96.5339C444.288 96.5339 445.247 96.2915 446.09 95.8067C446.955 95.322 447.629 94.6369 448.114 93.7517C448.599 92.8453 448.841 91.802 448.841 90.6217C448.841 89.4202 448.599 88.3874 448.114 87.5232C447.629 86.638 446.955 85.953 446.09 85.4682C445.247 84.9834 444.288 84.741 443.213 84.741C442.138 84.741 441.179 84.9834 440.336 85.4682C439.493 85.953 438.819 86.638 438.313 87.5232C437.807 88.3874 437.554 89.4202 437.554 90.6217C437.554 91.802 437.807 92.8453 438.313 93.7517C438.819 94.6369 439.493 95.322 440.336 95.8067C441.179 96.2915 442.138 96.5339 443.213 96.5339ZM465.053 82.0852C466.423 82.0852 467.624 82.3487 468.657 82.8756C469.711 83.4026 470.533 84.2035 471.123 85.2785C471.713 86.3534 472.008 87.7129 472.008 89.357V99H468.973V89.7048C468.973 88.0818 468.573 86.8593 467.772 86.0373C466.992 85.2152 465.885 84.8042 464.452 84.8042C463.377 84.8042 462.439 85.015 461.638 85.4366C460.837 85.8581 460.215 86.4799 459.773 87.3019C459.351 88.124 459.141 89.1462 459.141 90.3687V99H456.105V82.2433H459.014V86.7645L458.54 85.563C459.088 84.467 459.931 83.6134 461.069 83.0021C462.207 82.3908 463.535 82.0852 465.053 82.0852ZM483.38 99.1897C481.693 99.1897 480.387 98.7365 479.459 97.8302C478.532 96.9239 478.068 95.6276 478.068 93.9414V78.5758H481.103V93.8149C481.103 94.7212 481.325 95.4168 481.767 95.9016C482.231 96.3864 482.884 96.6288 483.727 96.6288C484.676 96.6288 485.466 96.3653 486.099 95.8384L487.047 98.0199C486.583 98.4204 486.025 98.7155 485.371 98.9052C484.739 99.0948 484.075 99.1897 483.38 99.1897ZM475.223 84.741V82.2433H485.909V84.741H475.223ZM497.338 99.1897C495.652 99.1897 494.155 98.8208 492.848 98.0831C491.541 97.3454 490.509 96.3337 489.75 95.0479C488.991 93.7411 488.612 92.2657 488.612 90.6217C488.612 88.9565 488.991 87.4811 489.75 86.1954C490.509 84.9096 491.541 83.9084 492.848 83.1918C494.155 82.4541 495.652 82.0852 497.338 82.0852C499.003 82.0852 500.489 82.4541 501.796 83.1918C503.124 83.9084 504.156 84.9096 504.894 86.1954C505.653 87.46 506.032 88.9354 506.032 90.6217C506.032 92.2868 505.653 93.7622 504.894 95.0479C504.156 96.3337 503.124 97.3454 501.796 98.0831C500.489 98.8208 499.003 99.1897 497.338 99.1897ZM497.338 96.5339C498.413 96.5339 499.372 96.2915 500.215 95.8067C501.079 95.322 501.754 94.6369 502.238 93.7517C502.723 92.8453 502.966 91.802 502.966 90.6217C502.966 89.4202 502.723 88.3874 502.238 87.5232C501.754 86.638 501.079 85.953 500.215 85.4682C499.372 84.9834 498.413 84.741 497.338 84.741C496.263 84.741 495.304 84.9834 494.461 85.4682C493.618 85.953 492.943 86.638 492.437 87.5232C491.931 88.3874 491.678 89.4202 491.678 90.6217C491.678 91.802 491.931 92.8453 492.437 93.7517C492.943 94.6369 493.618 95.322 494.461 95.8067C495.304 96.2915 496.263 96.5339 497.338 96.5339ZM526.182 99.1897C524.391 99.1897 522.81 98.8208 521.44 98.0831C520.091 97.3454 519.037 96.3337 518.278 95.0479C517.54 93.7622 517.171 92.2868 517.171 90.6217C517.171 88.9565 517.53 87.4811 518.246 86.1954C518.984 84.9096 519.985 83.9084 521.25 83.1918C522.536 82.4541 523.979 82.0852 525.581 82.0852C527.204 82.0852 528.638 82.4435 529.881 83.1602C531.125 83.8768 532.094 84.8885 532.79 86.1954C533.507 87.4811 533.865 88.9881 533.865 90.7165C533.865 90.843 533.854 90.9905 533.833 91.1591C533.833 91.3278 533.823 91.4858 533.802 91.6334H519.543V89.4518H532.221L530.988 90.2106C531.009 89.1357 530.788 88.1767 530.324 87.3335C529.86 86.4904 529.217 85.837 528.395 85.3733C527.594 84.8885 526.656 84.6462 525.581 84.6462C524.528 84.6462 523.59 84.8885 522.768 85.3733C521.946 85.837 521.303 86.501 520.839 87.3652C520.375 88.2083 520.143 89.1778 520.143 90.2739V90.7797C520.143 91.8968 520.396 92.898 520.902 93.7833C521.429 94.6475 522.156 95.322 523.084 95.8067C524.011 96.2915 525.076 96.5339 526.277 96.5339C527.268 96.5339 528.163 96.3653 528.964 96.0281C529.786 95.6908 530.503 95.185 531.114 94.5105L532.79 96.4707C532.031 97.3559 531.083 98.0304 529.944 98.4941C528.827 98.9578 527.573 99.1897 526.182 99.1897ZM559.041 82.0852C560.39 82.0852 561.581 82.3487 562.614 82.8756C563.647 83.4026 564.448 84.2035 565.017 85.2785C565.607 86.3534 565.902 87.7129 565.902 89.357V99H562.867V89.7048C562.867 88.0818 562.487 86.8593 561.729 86.0373C560.97 85.2152 559.905 84.8042 558.535 84.8042C557.524 84.8042 556.638 85.015 555.88 85.4366C555.121 85.8581 554.531 86.4799 554.109 87.3019C553.709 88.124 553.508 89.1462 553.508 90.3687V99H550.473V89.7048C550.473 88.0818 550.094 86.8593 549.335 86.0373C548.597 85.2152 547.533 84.8042 546.142 84.8042C545.151 84.8042 544.276 85.015 543.518 85.4366C542.759 85.8581 542.169 86.4799 541.747 87.3019C541.325 88.124 541.115 89.1462 541.115 90.3687V99H538.079V82.2433H540.988V86.7012L540.514 85.563C541.041 84.467 541.852 83.6134 542.948 83.0021C544.044 82.3908 545.32 82.0852 546.774 82.0852C548.376 82.0852 549.756 82.4857 550.916 83.2866C552.075 84.0665 552.834 85.2574 553.192 86.8593L551.959 86.3534C552.465 85.0677 553.35 84.0349 554.615 83.255C555.88 82.4752 557.355 82.0852 559.041 82.0852ZM585.732 99.1897C584.045 99.1897 582.739 98.7365 581.811 97.8302C580.884 96.9239 580.42 95.6276 580.42 93.9414V78.5758H583.455V93.8149C583.455 94.7212 583.677 95.4168 584.119 95.9016C584.583 96.3864 585.236 96.6288 586.079 96.6288C587.028 96.6288 587.818 96.3653 588.451 95.8384L589.399 98.0199C588.935 98.4204 588.377 98.7155 587.723 98.9052C587.091 99.0948 586.427 99.1897 585.732 99.1897ZM577.575 84.741V82.2433H588.261V84.741H577.575ZM599.69 99.1897C598.004 99.1897 596.507 98.8208 595.2 98.0831C593.893 97.3454 592.861 96.3337 592.102 95.0479C591.343 93.7411 590.964 92.2657 590.964 90.6217C590.964 88.9565 591.343 87.4811 592.102 86.1954C592.861 84.9096 593.893 83.9084 595.2 83.1918C596.507 82.4541 598.004 82.0852 599.69 82.0852C601.355 82.0852 602.841 82.4541 604.148 83.1918C605.476 83.9084 606.508 84.9096 607.246 86.1954C608.005 87.46 608.384 88.9354 608.384 90.6217C608.384 92.2868 608.005 93.7622 607.246 95.0479C606.508 96.3337 605.476 97.3454 604.148 98.0831C602.841 98.8208 601.355 99.1897 599.69 99.1897ZM599.69 96.5339C600.765 96.5339 601.724 96.2915 602.567 95.8067C603.431 95.322 604.106 94.6369 604.59 93.7517C605.075 92.8453 605.317 91.802 605.317 90.6217C605.317 89.4202 605.075 88.3874 604.59 87.5232C604.106 86.638 603.431 85.953 602.567 85.4682C601.724 84.9834 600.765 84.741 599.69 84.741C598.615 84.741 597.656 84.9834 596.813 85.4682C595.97 85.953 595.295 86.638 594.789 87.5232C594.283 88.3874 594.03 89.4202 594.03 90.6217C594.03 91.802 594.283 92.8453 594.789 93.7517C595.295 94.6369 595.97 95.322 596.813 95.8067C597.656 96.2915 598.615 96.5339 599.69 96.5339ZM619.506 99.1897C617.883 99.1897 616.428 98.8314 615.143 98.1147C613.878 97.3981 612.877 96.3969 612.139 95.1112C611.401 93.8254 611.033 92.3289 611.033 90.6217C611.033 88.9144 611.401 87.4284 612.139 86.1637C612.877 84.878 613.878 83.8768 615.143 83.1602C616.428 82.4435 617.883 82.0852 619.506 82.0852C620.918 82.0852 622.193 82.4014 623.331 83.0337C624.47 83.666 625.376 84.6145 626.05 85.8792C626.746 87.1438 627.094 88.7247 627.094 90.6217C627.094 92.5186 626.756 94.0995 626.082 95.3641C625.429 96.6288 624.533 97.5878 623.395 98.2412C622.256 98.8735 620.96 99.1897 619.506 99.1897ZM619.759 96.5339C620.813 96.5339 621.761 96.2915 622.604 95.8067C623.468 95.322 624.143 94.6369 624.628 93.7517C625.134 92.8453 625.386 91.802 625.386 90.6217C625.386 89.4202 625.134 88.3874 624.628 87.5232C624.143 86.638 623.468 85.953 622.604 85.4682C621.761 84.9834 620.813 84.741 619.759 84.741C618.684 84.741 617.725 84.9834 616.882 85.4682C616.039 85.953 615.364 86.638 614.858 87.5232C614.352 88.3874 614.099 89.4202 614.099 90.6217C614.099 91.802 614.352 92.8453 614.858 93.7517C615.364 94.6369 616.039 95.322 616.882 95.8067C617.725 96.2915 618.684 96.5339 619.759 96.5339ZM625.481 99V94.4789L625.671 90.59L625.355 86.7012V75.5406H628.39V99H625.481ZM641.31 99.1897C639.624 99.1897 638.127 98.8208 636.82 98.0831C635.513 97.3454 634.481 96.3337 633.722 95.0479C632.963 93.7411 632.584 92.2657 632.584 90.6217C632.584 88.9565 632.963 87.4811 633.722 86.1954C634.481 84.9096 635.513 83.9084 636.82 83.1918C638.127 82.4541 639.624 82.0852 641.31 82.0852C642.975 82.0852 644.461 82.4541 645.768 83.1918C647.096 83.9084 648.128 84.9096 648.866 86.1954C649.625 87.46 650.004 88.9354 650.004 90.6217C650.004 92.2868 649.625 93.7622 648.866 95.0479C648.128 96.3337 647.096 97.3454 645.768 98.0831C644.461 98.8208 642.975 99.1897 641.31 99.1897ZM641.31 96.5339C642.385 96.5339 643.344 96.2915 644.187 95.8067C645.051 95.322 645.726 94.6369 646.21 93.7517C646.695 92.8453 646.937 91.802 646.937 90.6217C646.937 89.4202 646.695 88.3874 646.21 87.5232C645.726 86.638 645.051 85.953 644.187 85.4682C643.344 84.9834 642.385 84.741 641.31 84.741C640.235 84.741 639.276 84.9834 638.433 85.4682C637.59 85.953 636.915 86.638 636.409 87.5232C635.903 88.3874 635.65 89.4202 635.65 90.6217C635.65 91.802 635.903 92.8453 636.409 93.7517C636.915 94.6369 637.59 95.322 638.433 95.8067C639.276 96.2915 640.235 96.5339 641.31 96.5339ZM659.008 99.1897C657.616 99.1897 656.289 99 655.024 98.6206C653.78 98.2412 652.8 97.7775 652.084 97.2295L653.348 94.8266C654.065 95.3114 654.95 95.7224 656.004 96.0597C657.058 96.3969 658.133 96.5655 659.229 96.5655C660.641 96.5655 661.653 96.3653 662.264 95.9648C662.896 95.5644 663.213 95.0058 663.213 94.2892C663.213 93.7622 663.023 93.3512 662.643 93.0561C662.264 92.761 661.758 92.5397 661.126 92.3922C660.515 92.2446 659.83 92.1182 659.071 92.0128C658.312 91.8863 657.553 91.7388 656.794 91.5701C656.036 91.3804 655.34 91.1275 654.708 90.8114C654.075 90.4741 653.57 90.0209 653.19 89.4518C652.811 88.8617 652.621 88.0818 652.621 87.1122C652.621 86.1005 652.906 85.2152 653.475 84.4565C654.044 83.6977 654.845 83.118 655.878 82.7176C656.931 82.296 658.175 82.0852 659.608 82.0852C660.704 82.0852 661.811 82.2222 662.928 82.4962C664.066 82.7492 664.994 83.118 665.71 83.6028L664.414 86.0057C663.655 85.4998 662.865 85.152 662.043 84.9623C661.221 84.7726 660.399 84.6778 659.577 84.6778C658.249 84.6778 657.258 84.8991 656.605 85.3417C655.951 85.7633 655.625 86.3113 655.625 86.9858C655.625 87.5549 655.814 87.9975 656.194 88.3137C656.594 88.6087 657.1 88.8406 657.711 89.0092C658.344 89.1778 659.039 89.3254 659.798 89.4518C660.557 89.5572 661.316 89.7048 662.074 89.8945C662.833 90.0631 663.518 90.3055 664.129 90.6217C664.762 90.9378 665.268 91.3804 665.647 91.9495C666.047 92.5186 666.248 93.2774 666.248 94.2259C666.248 95.2376 665.953 96.1124 665.362 96.8501C664.772 97.5878 663.94 98.1674 662.865 98.589C661.79 98.9895 660.504 99.1897 659.008 99.1897ZM685.709 99.1897C684.022 99.1897 682.526 98.8208 681.219 98.0831C679.912 97.3454 678.879 96.3337 678.121 95.0479C677.362 93.7411 676.982 92.2657 676.982 90.6217C676.982 88.9565 677.362 87.4811 678.121 86.1954C678.879 84.9096 679.912 83.9084 681.219 83.1918C682.526 82.4541 684.022 82.0852 685.709 82.0852C687.374 82.0852 688.86 82.4541 690.166 83.1918C691.494 83.9084 692.527 84.9096 693.265 86.1954C694.024 87.46 694.403 88.9354 694.403 90.6217C694.403 92.2868 694.024 93.7622 693.265 95.0479C692.527 96.3337 691.494 97.3454 690.166 98.0831C688.86 98.8208 687.374 99.1897 685.709 99.1897ZM685.709 96.5339C686.784 96.5339 687.743 96.2915 688.586 95.8067C689.45 95.322 690.124 94.6369 690.609 93.7517C691.094 92.8453 691.336 91.802 691.336 90.6217C691.336 89.4202 691.094 88.3874 690.609 87.5232C690.124 86.638 689.45 85.953 688.586 85.4682C687.743 84.9834 686.784 84.741 685.709 84.741C684.634 84.741 683.675 84.9834 682.831 85.4682C681.988 85.953 681.314 86.638 680.808 87.5232C680.302 88.3874 680.049 89.4202 680.049 90.6217C680.049 91.802 680.302 92.8453 680.808 93.7517C681.314 94.6369 681.988 95.322 682.831 95.8067C683.675 96.2915 684.634 96.5339 685.709 96.5339ZM703.406 99.1897C702.015 99.1897 700.687 99 699.423 98.6206C698.179 98.2412 697.199 97.7775 696.482 97.2295L697.747 94.8266C698.464 95.3114 699.349 95.7224 700.403 96.0597C701.457 96.3969 702.532 96.5655 703.628 96.5655C705.04 96.5655 706.052 96.3653 706.663 95.9648C707.295 95.5644 707.611 95.0058 707.611 94.2892C707.611 93.7622 707.422 93.3512 707.042 93.0561C706.663 92.761 706.157 92.5397 705.525 92.3922C704.913 92.2446 704.228 92.1182 703.47 92.0128C702.711 91.8863 701.952 91.7388 701.193 91.5701C700.434 91.3804 699.739 91.1275 699.107 90.8114C698.474 90.4741 697.968 90.0209 697.589 89.4518C697.21 88.8617 697.02 88.0818 697.02 87.1122C697.02 86.1005 697.304 85.2152 697.873 84.4565C698.443 83.6977 699.244 83.118 700.276 82.7176C701.33 82.296 702.574 82.0852 704.007 82.0852C705.103 82.0852 706.21 82.2222 707.327 82.4962C708.465 82.7492 709.392 83.118 710.109 83.6028L708.813 86.0057C708.054 85.4998 707.264 85.152 706.442 84.9623C705.62 84.7726 704.797 84.6778 703.975 84.6778C702.648 84.6778 701.657 84.8991 701.004 85.3417C700.35 85.7633 700.023 86.3113 700.023 86.9858C700.023 87.5549 700.213 87.9975 700.592 88.3137C700.993 88.6087 701.499 88.8406 702.11 89.0092C702.742 89.1778 703.438 89.3254 704.197 89.4518C704.956 89.5572 705.714 89.7048 706.473 89.8945C707.232 90.0631 707.917 90.3055 708.528 90.6217C709.161 90.9378 709.666 91.3804 710.046 91.9495C710.446 92.5186 710.647 93.2774 710.647 94.2259C710.647 95.2376 710.351 96.1124 709.761 96.8501C709.171 97.5878 708.339 98.1674 707.264 98.589C706.189 98.9895 704.903 99.1897 703.406 99.1897ZM731.815 99.1897C730.424 99.1897 729.148 98.8735 727.989 98.2412C726.851 97.5878 725.934 96.6288 725.238 95.3641C724.564 94.0995 724.227 92.5186 724.227 90.6217C724.227 88.7247 724.553 87.1438 725.207 85.8792C725.881 84.6145 726.788 83.666 727.926 83.0337C729.085 82.4014 730.381 82.0852 731.815 82.0852C733.459 82.0852 734.913 82.4435 736.178 83.1602C737.442 83.8768 738.444 84.878 739.181 86.1637C739.919 87.4284 740.288 88.9144 740.288 90.6217C740.288 92.3289 739.919 93.8254 739.181 95.1112C738.444 96.3969 737.442 97.3981 736.178 98.1147C734.913 98.8314 733.459 99.1897 731.815 99.1897ZM722.93 105.134V82.2433H725.839V86.7645L725.65 90.6533L725.966 94.5421V105.134H722.93ZM731.562 96.5339C732.637 96.5339 733.596 96.2915 734.439 95.8067C735.303 95.322 735.978 94.6369 736.462 93.7517C736.968 92.8453 737.221 91.802 737.221 90.6217C737.221 89.4202 736.968 88.3874 736.462 87.5232C735.978 86.638 735.303 85.953 734.439 85.4682C733.596 84.9834 732.637 84.741 731.562 84.741C730.508 84.741 729.549 84.9834 728.685 85.4682C727.842 85.953 727.167 86.638 726.661 87.5232C726.176 88.3874 725.934 89.4202 725.934 90.6217C725.934 91.802 726.176 92.8453 726.661 93.7517C727.167 94.6369 727.842 95.322 728.685 95.8067C729.549 96.2915 730.508 96.5339 731.562 96.5339ZM744.482 99V75.5406H747.517V99H744.482ZM763.714 99V95.459L763.556 94.795V88.7563C763.556 87.4706 763.176 86.4799 762.417 85.7843C761.68 85.0677 760.563 84.7094 759.066 84.7094C758.075 84.7094 757.106 84.878 756.157 85.2152C755.209 85.5314 754.408 85.9635 753.754 86.5115L752.49 84.2351C753.354 83.5396 754.387 83.0126 755.588 82.6543C756.811 82.2749 758.086 82.0852 759.414 82.0852C761.711 82.0852 763.482 82.6438 764.725 83.7609C765.969 84.878 766.591 86.5853 766.591 88.8828V99H763.714ZM758.212 99.1897C756.969 99.1897 755.873 98.9789 754.924 98.5574C753.997 98.1358 753.28 97.5562 752.774 96.8185C752.269 96.0597 752.016 95.206 752.016 94.2575C752.016 93.3512 752.226 92.5292 752.648 91.7915C753.091 91.0537 753.797 90.4636 754.766 90.0209C755.757 89.5783 757.085 89.357 758.75 89.357H764.061V91.5385H758.876C757.359 91.5385 756.336 91.7915 755.81 92.2973C755.283 92.8032 755.019 93.4144 755.019 94.1311C755.019 94.9531 755.346 95.617 755.999 96.1229C756.653 96.6077 757.559 96.8501 758.718 96.8501C759.856 96.8501 760.847 96.5972 761.69 96.0913C762.554 95.5854 763.176 94.8477 763.556 93.8781L764.156 95.9648C763.756 96.9555 763.05 97.7459 762.038 98.3361C761.026 98.9052 759.751 99.1897 758.212 99.1897ZM781.155 82.0852C782.525 82.0852 783.727 82.3487 784.759 82.8756C785.813 83.4026 786.635 84.2035 787.225 85.2785C787.816 86.3534 788.111 87.7129 788.111 89.357V99H785.075V89.7048C785.075 88.0818 784.675 86.8593 783.874 86.0373C783.094 85.2152 781.988 84.8042 780.554 84.8042C779.479 84.8042 778.541 85.015 777.74 85.4366C776.94 85.8581 776.318 86.4799 775.875 87.3019C775.454 88.124 775.243 89.1462 775.243 90.3687V99H772.208V82.2433H775.116V86.7645L774.642 85.563C775.19 84.467 776.033 83.6134 777.171 83.0021C778.31 82.3908 779.637 82.0852 781.155 82.0852ZM800.905 99.1897C799.218 99.1897 797.722 98.8208 796.415 98.0831C795.108 97.3454 794.076 96.3337 793.317 95.0479C792.558 93.7411 792.179 92.2657 792.179 90.6217C792.179 88.9565 792.558 87.4811 793.317 86.1954C794.076 84.9096 795.108 83.9084 796.415 83.1918C797.722 82.4541 799.218 82.0852 800.905 82.0852C802.57 82.0852 804.056 82.4541 805.363 83.1918C806.69 83.9084 807.723 84.9096 808.461 86.1954C809.22 87.46 809.599 88.9354 809.599 90.6217C809.599 92.2868 809.22 93.7622 808.461 95.0479C807.723 96.3337 806.69 97.3454 805.363 98.0831C804.056 98.8208 802.57 99.1897 800.905 99.1897ZM800.905 96.5339C801.98 96.5339 802.939 96.2915 803.782 95.8067C804.646 95.322 805.32 94.6369 805.805 93.7517C806.29 92.8453 806.532 91.802 806.532 90.6217C806.532 89.4202 806.29 88.3874 805.805 87.5232C805.32 86.638 804.646 85.953 803.782 85.4682C802.939 84.9834 801.98 84.741 800.905 84.741C799.83 84.741 798.871 84.9834 798.028 85.4682C797.184 85.953 796.51 86.638 796.004 87.5232C795.498 88.3874 795.245 89.4202 795.245 90.6217C795.245 91.802 795.498 92.8453 796.004 93.7517C796.51 94.6369 797.184 95.322 798.028 95.8067C798.871 96.2915 799.83 96.5339 800.905 96.5339ZM818.602 99.1897C817.211 99.1897 815.883 99 814.619 98.6206C813.375 98.2412 812.395 97.7775 811.678 97.2295L812.943 94.8266C813.66 95.3114 814.545 95.7224 815.599 96.0597C816.653 96.3969 817.728 96.5655 818.824 96.5655C820.236 96.5655 821.248 96.3653 821.859 95.9648C822.491 95.5644 822.807 95.0058 822.807 94.2892C822.807 93.7622 822.618 93.3512 822.238 93.0561C821.859 92.761 821.353 92.5397 820.721 92.3922C820.11 92.2446 819.424 92.1182 818.666 92.0128C817.907 91.8863 817.148 91.7388 816.389 91.5701C815.631 91.3804 814.935 91.1275 814.303 90.8114C813.67 90.4741 813.164 90.0209 812.785 89.4518C812.406 88.8617 812.216 88.0818 812.216 87.1122C812.216 86.1005 812.5 85.2152 813.07 84.4565C813.639 83.6977 814.44 83.118 815.472 82.7176C816.526 82.296 817.77 82.0852 819.203 82.0852C820.299 82.0852 821.406 82.2222 822.523 82.4962C823.661 82.7492 824.589 83.118 825.305 83.6028L824.009 86.0057C823.25 85.4998 822.46 85.152 821.638 84.9623C820.816 84.7726 819.994 84.6778 819.172 84.6778C817.844 84.6778 816.853 84.8991 816.2 85.3417C815.546 85.7633 815.22 86.3113 815.22 86.9858C815.22 87.5549 815.409 87.9975 815.789 88.3137C816.189 88.6087 816.695 88.8406 817.306 89.0092C817.939 89.1778 818.634 89.3254 819.393 89.4518C820.152 89.5572 820.91 89.7048 821.669 89.8945C822.428 90.0631 823.113 90.3055 823.724 90.6217C824.357 90.9378 824.863 91.3804 825.242 91.9495C825.642 92.5186 825.843 93.2774 825.843 94.2259C825.843 95.2376 825.548 96.1124 824.957 96.8501C824.367 97.5878 823.535 98.1674 822.46 98.589C821.385 98.9895 820.099 99.1897 818.602 99.1897Z" fill="white"/>
<path d="M382.532 165.398C379.763 165.398 377.601 164.638 376.047 163.12C374.492 161.601 373.715 159.448 373.715 156.661V146.263H379.021V156.5C379.021 158.108 379.334 159.261 379.959 159.957C380.603 160.654 381.478 161.003 382.586 161.003C383.693 161.003 384.56 160.654 385.185 159.957C385.81 159.261 386.123 158.108 386.123 156.5V146.263H391.349V156.661C391.349 159.448 390.572 161.601 389.017 163.12C387.463 164.638 385.301 165.398 382.532 165.398ZM401.536 165.398C400 165.398 398.517 165.21 397.087 164.835C395.676 164.442 394.524 163.942 393.63 163.334L395.372 159.421C396.212 159.957 397.177 160.404 398.267 160.761C399.374 161.101 400.473 161.271 401.563 161.271C402.295 161.271 402.885 161.208 403.332 161.083C403.778 160.94 404.1 160.761 404.296 160.547C404.511 160.315 404.618 160.047 404.618 159.743C404.618 159.314 404.422 158.975 404.028 158.725C403.635 158.475 403.126 158.269 402.501 158.108C401.876 157.948 401.179 157.787 400.411 157.626C399.66 157.465 398.901 157.26 398.133 157.01C397.382 156.759 396.694 156.438 396.069 156.045C395.444 155.634 394.935 155.107 394.542 154.464C394.149 153.803 393.952 152.972 393.952 151.971C393.952 150.846 394.256 149.827 394.863 148.916C395.488 148.005 396.418 147.273 397.65 146.719C398.883 146.165 400.42 145.888 402.26 145.888C403.492 145.888 404.698 146.031 405.878 146.317C407.075 146.585 408.138 146.987 409.067 147.523L407.432 151.462C406.539 150.98 405.654 150.622 404.779 150.39C403.903 150.14 403.055 150.015 402.233 150.015C401.5 150.015 400.911 150.095 400.464 150.256C400.018 150.399 399.696 150.596 399.499 150.846C399.303 151.096 399.205 151.382 399.205 151.703C399.205 152.114 399.392 152.445 399.767 152.695C400.16 152.927 400.67 153.124 401.295 153.284C401.938 153.427 402.635 153.579 403.385 153.74C404.154 153.901 404.913 154.106 405.663 154.356C406.431 154.589 407.128 154.91 407.754 155.321C408.379 155.714 408.879 156.241 409.254 156.902C409.647 157.546 409.844 158.358 409.844 159.341C409.844 160.431 409.531 161.44 408.906 162.369C408.298 163.281 407.378 164.013 406.146 164.567C404.931 165.121 403.394 165.398 401.536 165.398ZM417.172 153.526H425.882V157.492H417.172V153.526ZM417.548 160.922H427.356V165.022H412.295V146.263H427.008V150.363H417.548V160.922ZM447.56 165.398C446.059 165.398 444.674 165.156 443.406 164.674C442.137 164.192 441.03 163.513 440.083 162.637C439.154 161.744 438.43 160.708 437.912 159.529C437.394 158.349 437.135 157.054 437.135 155.643C437.135 154.231 437.394 152.936 437.912 151.757C438.43 150.578 439.154 149.55 440.083 148.675C441.03 147.782 442.137 147.094 443.406 146.611C444.674 146.129 446.059 145.888 447.56 145.888C449.078 145.888 450.463 146.129 451.713 146.611C452.982 147.094 454.081 147.782 455.01 148.675C455.939 149.55 456.662 150.578 457.18 151.757C457.716 152.936 457.984 154.231 457.984 155.643C457.984 157.054 457.716 158.358 457.18 159.555C456.662 160.735 455.939 161.762 455.01 162.637C454.081 163.513 452.982 164.192 451.713 164.674C450.463 165.156 449.078 165.398 447.56 165.398ZM447.56 161.003C448.274 161.003 448.935 160.878 449.543 160.627C450.168 160.377 450.704 160.02 451.151 159.555C451.615 159.073 451.972 158.501 452.223 157.84C452.491 157.179 452.625 156.447 452.625 155.643C452.625 154.821 452.491 154.088 452.223 153.445C451.972 152.784 451.615 152.221 451.151 151.757C450.704 151.275 450.168 150.908 449.543 150.658C448.935 150.408 448.274 150.283 447.56 150.283C446.845 150.283 446.175 150.408 445.55 150.658C444.942 150.908 444.406 151.275 443.942 151.757C443.495 152.221 443.138 152.784 442.87 153.445C442.62 154.088 442.495 154.821 442.495 155.643C442.495 156.447 442.62 157.179 442.87 157.84C443.138 158.501 443.495 159.073 443.942 159.555C444.406 160.02 444.942 160.377 445.55 160.627C446.175 160.878 446.845 161.003 447.56 161.003ZM477.915 165.398C476.432 165.398 475.057 165.165 473.788 164.701C472.538 164.218 471.448 163.54 470.519 162.664C469.608 161.789 468.893 160.761 468.375 159.582C467.857 158.385 467.598 157.072 467.598 155.643C467.598 154.214 467.857 152.909 468.375 151.73C468.893 150.533 469.608 149.497 470.519 148.621C471.448 147.746 472.538 147.076 473.788 146.611C475.057 146.129 476.432 145.888 477.915 145.888C479.648 145.888 481.194 146.192 482.552 146.799C483.927 147.407 485.071 148.282 485.982 149.425L482.605 152.48C481.998 151.766 481.328 151.221 480.595 150.846C479.881 150.471 479.077 150.283 478.183 150.283C477.415 150.283 476.709 150.408 476.066 150.658C475.423 150.908 474.869 151.275 474.405 151.757C473.958 152.221 473.601 152.784 473.333 153.445C473.083 154.106 472.958 154.839 472.958 155.643C472.958 156.447 473.083 157.179 473.333 157.84C473.601 158.501 473.958 159.073 474.405 159.555C474.869 160.02 475.423 160.377 476.066 160.627C476.709 160.878 477.415 161.003 478.183 161.003C479.077 161.003 479.881 160.815 480.595 160.44C481.328 160.065 481.998 159.52 482.605 158.805L485.982 161.86C485.071 162.986 483.927 163.861 482.552 164.486C481.194 165.094 479.648 165.398 477.915 165.398ZM496.821 165.398C494.051 165.398 491.89 164.638 490.335 163.12C488.781 161.601 488.004 159.448 488.004 156.661V146.263H493.31V156.5C493.31 158.108 493.623 159.261 494.248 159.957C494.891 160.654 495.767 161.003 496.874 161.003C497.982 161.003 498.848 160.654 499.474 159.957C500.099 159.261 500.412 158.108 500.412 156.5V146.263H505.638V156.661C505.638 159.448 504.86 161.601 503.306 163.12C501.752 164.638 499.59 165.398 496.821 165.398ZM509.232 165.022V146.263H517.808C519.523 146.263 520.997 146.54 522.23 147.094C523.48 147.648 524.445 148.452 525.124 149.506C525.803 150.542 526.142 151.775 526.142 153.204C526.142 154.615 525.803 155.839 525.124 156.876C524.445 157.912 523.48 158.716 522.23 159.287C520.997 159.841 519.523 160.118 517.808 160.118H512.18L514.538 157.814V165.022H509.232ZM514.538 158.376L512.18 155.938H517.486C518.594 155.938 519.416 155.696 519.952 155.214C520.506 154.732 520.783 154.062 520.783 153.204C520.783 152.329 520.506 151.65 519.952 151.167C519.416 150.685 518.594 150.444 517.486 150.444H512.18L514.538 148.005V158.376ZM538.451 165.398C536.951 165.398 535.566 165.156 534.297 164.674C533.029 164.192 531.921 163.513 530.974 162.637C530.045 161.744 529.322 160.708 528.804 159.529C528.286 158.349 528.027 157.054 528.027 155.643C528.027 154.231 528.286 152.936 528.804 151.757C529.322 150.578 530.045 149.55 530.974 148.675C531.921 147.782 533.029 147.094 534.297 146.611C535.566 146.129 536.951 145.888 538.451 145.888C539.97 145.888 541.355 146.129 542.605 146.611C543.874 147.094 544.972 147.782 545.901 148.675C546.831 149.55 547.554 150.578 548.072 151.757C548.608 152.936 548.876 154.231 548.876 155.643C548.876 157.054 548.608 158.358 548.072 159.555C547.554 160.735 546.831 161.762 545.901 162.637C544.972 163.513 543.874 164.192 542.605 164.674C541.355 165.156 539.97 165.398 538.451 165.398ZM538.451 161.003C539.166 161.003 539.827 160.878 540.434 160.627C541.06 160.377 541.596 160.02 542.042 159.555C542.507 159.073 542.864 158.501 543.114 157.84C543.382 157.179 543.516 156.447 543.516 155.643C543.516 154.821 543.382 154.088 543.114 153.445C542.864 152.784 542.507 152.221 542.042 151.757C541.596 151.275 541.06 150.908 540.434 150.658C539.827 150.408 539.166 150.283 538.451 150.283C537.737 150.283 537.067 150.408 536.441 150.658C535.834 150.908 535.298 151.275 534.833 151.757C534.387 152.221 534.03 152.784 533.762 153.445C533.511 154.088 533.386 154.821 533.386 155.643C533.386 156.447 533.511 157.179 533.762 157.84C534.03 158.501 534.387 159.073 534.833 159.555C535.298 160.02 535.834 160.377 536.441 160.627C537.067 160.878 537.737 161.003 538.451 161.003ZM551.655 165.022V146.263H556.024L563.795 159.019H561.491L569.048 146.263H573.416L573.47 165.022H568.592L568.539 153.686H569.37L563.715 163.173H561.357L555.541 153.686H556.56V165.022H551.655ZM579.127 156.286C578.27 156.286 577.546 156 576.956 155.428C576.367 154.857 576.072 154.133 576.072 153.258C576.072 152.346 576.367 151.623 576.956 151.087C577.546 150.533 578.27 150.256 579.127 150.256C579.985 150.256 580.708 150.533 581.298 151.087C581.887 151.623 582.182 152.346 582.182 153.258C582.182 154.133 581.887 154.857 581.298 155.428C580.708 156 579.985 156.286 579.127 156.286ZM579.127 165.264C578.27 165.264 577.546 164.978 576.956 164.406C576.367 163.834 576.072 163.111 576.072 162.235C576.072 161.324 576.367 160.601 576.956 160.065C577.546 159.511 578.27 159.234 579.127 159.234C579.985 159.234 580.708 159.511 581.298 160.065C581.887 160.601 582.182 161.324 582.182 162.235C582.182 163.111 581.887 163.834 581.298 164.406C580.708 164.978 579.985 165.264 579.127 165.264Z" fill="white"/>
<g filter="url(#filter0_d_229_13)">
<rect x="594.667" y="131" width="232.333" height="48.2889" rx="6.37778" fill="#10B521"/>
<path d="M619.306 169.074C617.255 169.074 615.353 168.753 613.598 168.111C611.869 167.444 610.362 166.505 609.077 165.294C607.817 164.084 606.829 162.663 606.113 161.033C605.396 159.377 605.038 157.561 605.038 155.585C605.038 153.609 605.396 151.805 606.113 150.174C606.829 148.519 607.817 147.086 609.077 145.876C610.362 144.665 611.869 143.738 613.598 143.096C615.353 142.429 617.255 142.095 619.306 142.095C621.702 142.095 623.839 142.516 625.717 143.356C627.619 144.196 629.2 145.406 630.46 146.987L625.791 151.212C624.951 150.224 624.024 149.47 623.011 148.951C622.023 148.433 620.911 148.173 619.676 148.173C618.614 148.173 617.638 148.346 616.749 148.692C615.859 149.038 615.093 149.544 614.451 150.211C613.833 150.854 613.339 151.632 612.968 152.546C612.623 153.46 612.45 154.473 612.45 155.585C612.45 156.697 612.623 157.71 612.968 158.624C613.339 159.538 613.833 160.329 614.451 160.996C615.093 161.638 615.859 162.132 616.749 162.478C617.638 162.824 618.614 162.997 619.676 162.997C620.911 162.997 622.023 162.737 623.011 162.219C624.024 161.7 624.951 160.946 625.791 159.958L630.46 164.183C629.2 165.739 627.619 166.95 625.717 167.814C623.839 168.654 621.702 169.074 619.306 169.074ZM633.732 168.556V142.614H641.07V162.737H653.447V168.556H633.732ZM656.351 168.556V142.614H663.689V168.556H656.351ZM675.654 152.657H687.698V158.142H675.654V152.657ZM676.173 162.886H689.736V168.556H668.909V142.614H689.255V148.284H676.173V162.886ZM693.808 168.556V142.614H699.849L714.154 159.884H711.3V142.614H718.489V168.556H712.449L698.144 151.286H700.998V168.556H693.808ZM729.187 168.556V148.433H721.219V142.614H744.455V148.433H736.525V168.556H729.187ZM753.934 152.657H765.978V158.142H753.934V152.657ZM754.453 162.886H768.016V168.556H747.189V142.614H767.535V148.284H754.453V162.886ZM770.791 168.556V163.96L786.059 145.838L786.949 148.433H771.125V142.614H793.471V147.21L778.203 165.332L777.313 162.737H794.027V168.556H770.791ZM799.835 168.556L809.952 145.32L811.916 148.433H798.76L801.762 145.06V152.435H795.499V142.614H816.993V147.21L807.839 168.556H799.835Z" fill="white"/>
</g>
<g filter="url(#filter1_d_229_13)">
<path d="M347.061 157.061C347.646 156.475 347.646 155.525 347.061 154.939L337.515 145.393C336.929 144.808 335.979 144.808 335.393 145.393C334.808 145.979 334.808 146.929 335.393 147.515L343.879 156L335.393 164.485C334.808 165.071 334.808 166.021 335.393 166.607C335.979 167.192 336.929 167.192 337.515 166.607L347.061 157.061ZM24 156V157.5H346V156V154.5H24V156Z" fill="#10B521"/>
</g>
<defs>
<filter id="filter0_d_229_13" x="584.667" y="121" width="252.333" height="68.2891" filterUnits="userSpaceOnUse" color-interpolation-filters="sRGB">
<feFlood flood-opacity="0" result="BackgroundImageFix"/>
<feColorMatrix in="SourceAlpha" type="matrix" values="0 0 0 0 0 0 0 0 0 0 0 0 0 0 0 0 0 0 127 0" result="hardAlpha"/>
<feOffset/>
<feGaussianBlur stdDeviation="5"/>
<feComposite in2="hardAlpha" operator="out"/>
<feColorMatrix type="matrix" values="0 0 0 0 0.0627451 0 0 0 0 0.709804 0 0 0 0 0.129412 0 0 0 0.3 0"/>
<feBlend mode="normal" in2="BackgroundImageFix" result="effect1_dropShadow_229_13"/>
<feBlend mode="normal" in="SourceGraphic" in2="effect1_dropShadow_229_13" result="shape"/>
</filter>
<filter id="filter1_d_229_13" x="0.700001" y="121.654" width="370.1" height="68.6918" filterUnits="userSpaceOnUse" color-interpolation-filters="sRGB">
<feFlood flood-opacity="0" result="BackgroundImageFix"/>
<feColorMatrix in="SourceAlpha" type="matrix" values="0 0 0 0 0 0 0 0 0 0 0 0 0 0 0 0 0 0 127 0" result="hardAlpha"/>
<feOffset/>
<feGaussianBlur stdDeviation="11.65"/>
<feComposite in2="hardAlpha" operator="out"/>
<feColorMatrix type="matrix" values="0 0 0 0 0.0627451 0 0 0 0 0.709804 0 0 0 0 0.129412 0 0 0 0.3 0"/>
<feBlend mode="normal" in2="BackgroundImageFix" result="effect1_dropShadow_229_13"/>
<feBlend mode="normal" in="SourceGraphic" in2="effect1_dropShadow_229_13" result="shape"/>
</filter>
</defs>
</svg>
