<svg width="901" height="209" viewBox="0 0 901 209" fill="none" xmlns="http://www.w3.org/2000/svg">
<path d="M26.963 36L38.692 10.1H42.355L54.121 36H50.236L39.765 12.172H41.245L30.774 36H26.963ZM31.958 29.525L32.957 26.565H47.535L48.608 29.525H31.958ZM91.9341 16.205C93.5128 16.205 94.9065 16.5133 96.1151 17.13C97.3238 17.7467 98.2611 18.684 98.9271 19.942C99.6178 21.2 99.9631 22.791 99.9631 24.715V36H96.4111V25.122C96.4111 23.2227 95.9671 21.792 95.0791 20.83C94.1911 19.868 92.9455 19.387 91.3421 19.387C90.1581 19.387 89.1221 19.6337 88.2341 20.127C87.3461 20.6203 86.6555 21.348 86.1621 22.31C85.6935 23.272 85.4591 24.4683 85.4591 25.899V36H81.9071V25.122C81.9071 23.2227 81.4631 21.792 80.5751 20.83C79.7118 19.868 78.4661 19.387 76.8381 19.387C75.6788 19.387 74.6551 19.6337 73.7671 20.127C72.8791 20.6203 72.1885 21.348 71.6951 22.31C71.2018 23.272 70.9551 24.4683 70.9551 25.899V36H67.4031V16.39H70.8071V21.607L70.2521 20.275C70.8688 18.9923 71.8185 17.9933 73.1011 17.278C74.3838 16.5627 75.8761 16.205 77.5781 16.205C79.4528 16.205 81.0685 16.6737 82.4251 17.611C83.7818 18.5237 84.6698 19.9173 85.0891 21.792L83.6461 21.2C84.2381 19.6953 85.2741 18.4867 86.7541 17.574C88.2341 16.6613 89.9608 16.205 91.9341 16.205ZM118.672 36V31.856L118.487 31.079V24.012C118.487 22.5073 118.043 21.348 117.155 20.534C116.292 19.6953 114.984 19.276 113.233 19.276C112.074 19.276 110.939 19.4733 109.829 19.868C108.719 20.238 107.782 20.7437 107.017 21.385L105.537 18.721C106.548 17.907 107.757 17.2903 109.163 16.871C110.594 16.427 112.086 16.205 113.64 16.205C116.329 16.205 118.401 16.8587 119.856 18.166C121.311 19.4733 122.039 21.4713 122.039 24.16V36H118.672ZM112.234 36.222C110.779 36.222 109.496 35.9753 108.386 35.482C107.301 34.9887 106.462 34.3103 105.87 33.447C105.278 32.559 104.982 31.56 104.982 30.45C104.982 29.3893 105.229 28.4273 105.722 27.564C106.24 26.7007 107.066 26.01 108.201 25.492C109.36 24.974 110.914 24.715 112.863 24.715H119.079V27.268H113.011C111.235 27.268 110.039 27.564 109.422 28.156C108.805 28.748 108.497 29.4633 108.497 30.302C108.497 31.264 108.879 32.041 109.644 32.633C110.409 33.2003 111.469 33.484 112.826 33.484C114.158 33.484 115.317 33.188 116.304 32.596C117.315 32.004 118.043 31.1407 118.487 30.006L119.19 32.448C118.721 33.6073 117.895 34.5323 116.711 35.223C115.527 35.889 114.035 36.222 112.234 36.222ZM128.612 36V16.39H132.164V36H128.612ZM130.388 12.616C129.697 12.616 129.118 12.394 128.649 11.95C128.205 11.506 127.983 10.9633 127.983 10.322C127.983 9.656 128.205 9.101 128.649 8.657C129.118 8.213 129.697 7.991 130.388 7.991C131.079 7.991 131.646 8.213 132.09 8.657C132.559 9.07633 132.793 9.60666 132.793 10.248C132.793 10.914 132.571 11.4813 132.127 11.95C131.683 12.394 131.103 12.616 130.388 12.616ZM147.345 36.222C145.372 36.222 143.62 35.7903 142.091 34.927C140.562 34.0637 139.353 32.8797 138.465 31.375C137.577 29.8457 137.133 28.119 137.133 26.195C137.133 24.2463 137.577 22.5197 138.465 21.015C139.353 19.5103 140.562 18.3387 142.091 17.5C143.62 16.6367 145.372 16.205 147.345 16.205C149.294 16.205 151.033 16.6367 152.562 17.5C154.116 18.3387 155.325 19.5103 156.188 21.015C157.076 22.495 157.52 24.2217 157.52 26.195C157.52 28.1437 157.076 29.8703 156.188 31.375C155.325 32.8797 154.116 34.0637 152.562 34.927C151.033 35.7903 149.294 36.222 147.345 36.222ZM147.345 33.114C148.603 33.114 149.725 32.8303 150.712 32.263C151.723 31.6957 152.513 30.894 153.08 29.858C153.647 28.7973 153.931 27.5763 153.931 26.195C153.931 24.789 153.647 23.5803 153.08 22.569C152.513 21.533 151.723 20.7313 150.712 20.164C149.725 19.5967 148.603 19.313 147.345 19.313C146.087 19.313 144.965 19.5967 143.978 20.164C142.991 20.7313 142.202 21.533 141.61 22.569C141.018 23.5803 140.722 24.789 140.722 26.195C140.722 27.5763 141.018 28.7973 141.61 29.858C142.202 30.894 142.991 31.6957 143.978 32.263C144.965 32.8303 146.087 33.114 147.345 33.114ZM162.432 36V16.39H165.836V21.718L165.503 20.386C166.046 19.0293 166.959 17.9933 168.241 17.278C169.524 16.5627 171.103 16.205 172.977 16.205V19.646C172.829 19.6213 172.681 19.609 172.533 19.609C172.41 19.609 172.287 19.609 172.163 19.609C170.264 19.609 168.759 20.1763 167.649 21.311C166.539 22.4457 165.984 24.086 165.984 26.232V36H162.432ZM196.277 36.222C194.18 36.222 192.33 35.7903 190.727 34.927C189.148 34.0637 187.915 32.8797 187.027 31.375C186.163 29.8703 185.732 28.1437 185.732 26.195C185.732 24.2463 186.151 22.5197 186.99 21.015C187.853 19.5103 189.025 18.3387 190.505 17.5C192.009 16.6367 193.699 16.205 195.574 16.205C197.473 16.205 199.15 16.6243 200.606 17.463C202.061 18.3017 203.196 19.4857 204.01 21.015C204.848 22.5197 205.268 24.2833 205.268 26.306C205.268 26.454 205.255 26.6267 205.231 26.824C205.231 27.0213 205.218 27.2063 205.194 27.379H188.507V24.826H203.344L201.901 25.714C201.925 24.456 201.666 23.3337 201.124 22.347C200.581 21.3603 199.829 20.5957 198.867 20.053C197.929 19.4857 196.832 19.202 195.574 19.202C194.34 19.202 193.243 19.4857 192.281 20.053C191.319 20.5957 190.566 21.3727 190.024 22.384C189.481 23.3707 189.21 24.5053 189.21 25.788V26.38C189.21 27.6873 189.506 28.859 190.098 29.895C190.714 30.9063 191.565 31.6957 192.651 32.263C193.736 32.8303 194.982 33.114 196.388 33.114C197.547 33.114 198.595 32.9167 199.533 32.522C200.495 32.1273 201.333 31.5353 202.049 30.746L204.01 33.04C203.122 34.076 202.012 34.8653 200.68 35.408C199.372 35.9507 197.905 36.222 196.277 36.222ZM234.731 16.205C236.31 16.205 237.703 16.5133 238.912 17.13C240.121 17.7467 241.058 18.684 241.724 19.942C242.415 21.2 242.76 22.791 242.76 24.715V36H239.208V25.122C239.208 23.2227 238.764 21.792 237.876 20.83C236.988 19.868 235.742 19.387 234.139 19.387C232.955 19.387 231.919 19.6337 231.031 20.127C230.143 20.6203 229.452 21.348 228.959 22.31C228.49 23.272 228.256 24.4683 228.256 25.899V36H224.704V25.122C224.704 23.2227 224.26 21.792 223.372 20.83C222.509 19.868 221.263 19.387 219.635 19.387C218.476 19.387 217.452 19.6337 216.564 20.127C215.676 20.6203 214.985 21.348 214.492 22.31C213.999 23.272 213.752 24.4683 213.752 25.899V36H210.2V16.39H213.604V21.607L213.049 20.275C213.666 18.9923 214.615 17.9933 215.898 17.278C217.181 16.5627 218.673 16.205 220.375 16.205C222.25 16.205 223.865 16.6737 225.222 17.611C226.579 18.5237 227.467 19.9173 227.886 21.792L226.443 21.2C227.035 19.6953 228.071 18.4867 229.551 17.574C231.031 16.6613 232.758 16.205 234.731 16.205ZM264.375 36L255.791 16.39H259.491L267.113 34.15H265.337L273.107 16.39H276.585L268.001 36H264.375ZM287.757 36.222C285.784 36.222 284.033 35.7903 282.503 34.927C280.974 34.0637 279.765 32.8797 278.877 31.375C277.989 29.8457 277.545 28.119 277.545 26.195C277.545 24.2463 277.989 22.5197 278.877 21.015C279.765 19.5103 280.974 18.3387 282.503 17.5C284.033 16.6367 285.784 16.205 287.757 16.205C289.706 16.205 291.445 16.6367 292.974 17.5C294.528 18.3387 295.737 19.5103 296.6 21.015C297.488 22.495 297.932 24.2217 297.932 26.195C297.932 28.1437 297.488 29.8703 296.6 31.375C295.737 32.8797 294.528 34.0637 292.974 34.927C291.445 35.7903 289.706 36.222 287.757 36.222ZM287.757 33.114C289.015 33.114 290.138 32.8303 291.124 32.263C292.136 31.6957 292.925 30.894 293.492 29.858C294.06 28.7973 294.343 27.5763 294.343 26.195C294.343 24.789 294.06 23.5803 293.492 22.569C292.925 21.533 292.136 20.7313 291.124 20.164C290.138 19.5967 289.015 19.313 287.757 19.313C286.499 19.313 285.377 19.5967 284.39 20.164C283.404 20.7313 282.614 21.533 282.022 22.569C281.43 23.5803 281.134 24.789 281.134 26.195C281.134 27.5763 281.43 28.7973 282.022 29.858C282.614 30.894 283.404 31.6957 284.39 32.263C285.377 32.8303 286.499 33.114 287.757 33.114ZM302.845 36V8.546H306.397V36H302.845ZM321.43 36.222C319.752 36.222 318.272 35.9137 316.99 35.297C315.732 34.6803 314.745 33.743 314.03 32.485C313.339 31.2023 312.994 29.599 312.994 27.675V16.39H316.546V27.268C316.546 29.192 317.002 30.635 317.915 31.597C318.852 32.559 320.159 33.04 321.837 33.04C323.07 33.04 324.143 32.7933 325.056 32.3C325.968 31.782 326.671 31.042 327.165 30.08C327.658 29.0933 327.905 27.9093 327.905 26.528V16.39H331.457V36H328.09V30.709L328.645 32.115C328.003 33.4223 327.041 34.4337 325.759 35.149C324.476 35.8643 323.033 36.222 321.43 36.222ZM362.75 16.205C364.328 16.205 365.722 16.5133 366.931 17.13C368.139 17.7467 369.077 18.684 369.743 19.942C370.433 21.2 370.779 22.791 370.779 24.715V36H367.227V25.122C367.227 23.2227 366.783 21.792 365.895 20.83C365.007 19.868 363.761 19.387 362.158 19.387C360.974 19.387 359.938 19.6337 359.05 20.127C358.162 20.6203 357.471 21.348 356.978 22.31C356.509 23.272 356.275 24.4683 356.275 25.899V36H352.723V25.122C352.723 23.2227 352.279 21.792 351.391 20.83C350.527 19.868 349.282 19.387 347.654 19.387C346.494 19.387 345.471 19.6337 344.583 20.127C343.695 20.6203 343.004 21.348 342.511 22.31C342.017 23.272 341.771 24.4683 341.771 25.899V36H338.219V16.39H341.623V21.607L341.068 20.275C341.684 18.9923 342.634 17.9933 343.917 17.278C345.199 16.5627 346.692 16.205 348.394 16.205C350.268 16.205 351.884 16.6737 353.241 17.611C354.597 18.5237 355.485 19.9173 355.905 21.792L354.462 21.2C355.054 19.6953 356.09 18.4867 357.57 17.574C359.05 16.6613 360.776 16.205 362.75 16.205ZM386.046 36.222C383.95 36.222 382.1 35.7903 380.496 34.927C378.918 34.0637 377.684 32.8797 376.796 31.375C375.933 29.8703 375.501 28.1437 375.501 26.195C375.501 24.2463 375.921 22.5197 376.759 21.015C377.623 19.5103 378.794 18.3387 380.274 17.5C381.779 16.6367 383.469 16.205 385.343 16.205C387.243 16.205 388.92 16.6243 390.375 17.463C391.831 18.3017 392.965 19.4857 393.779 21.015C394.618 22.5197 395.037 24.2833 395.037 26.306C395.037 26.454 395.025 26.6267 395 26.824C395 27.0213 394.988 27.2063 394.963 27.379H378.276V24.826H393.113L391.67 25.714C391.695 24.456 391.436 23.3337 390.893 22.347C390.351 21.3603 389.598 20.5957 388.636 20.053C387.699 19.4857 386.601 19.202 385.343 19.202C384.11 19.202 383.012 19.4857 382.05 20.053C381.088 20.5957 380.336 21.3727 379.793 22.384C379.251 23.3707 378.979 24.5053 378.979 25.788V26.38C378.979 27.6873 379.275 28.859 379.867 29.895C380.484 30.9063 381.335 31.6957 382.42 32.263C383.506 32.8303 384.751 33.114 386.157 33.114C387.317 33.114 388.365 32.9167 389.302 32.522C390.264 32.1273 391.103 31.5353 391.818 30.746L393.779 33.04C392.891 34.076 391.781 34.8653 390.449 35.408C389.142 35.9507 387.674 36.222 386.046 36.222ZM418.009 36.222C416.11 36.222 414.408 35.8027 412.903 34.964C411.423 34.1253 410.251 32.9537 409.388 31.449C408.525 29.9443 408.093 28.193 408.093 26.195C408.093 24.197 408.525 22.458 409.388 20.978C410.251 19.4733 411.423 18.3017 412.903 17.463C414.408 16.6243 416.11 16.205 418.009 16.205C419.662 16.205 421.154 16.575 422.486 17.315C423.818 18.055 424.879 19.165 425.668 20.645C426.482 22.125 426.889 23.975 426.889 26.195C426.889 28.415 426.494 30.265 425.705 31.745C424.94 33.225 423.892 34.3473 422.56 35.112C421.228 35.852 419.711 36.222 418.009 36.222ZM418.305 33.114C419.538 33.114 420.648 32.8303 421.635 32.263C422.646 31.6957 423.436 30.894 424.003 29.858C424.595 28.7973 424.891 27.5763 424.891 26.195C424.891 24.789 424.595 23.5803 424.003 22.569C423.436 21.533 422.646 20.7313 421.635 20.164C420.648 19.5967 419.538 19.313 418.305 19.313C417.047 19.313 415.925 19.5967 414.938 20.164C413.951 20.7313 413.162 21.533 412.57 22.569C411.978 23.5803 411.682 24.789 411.682 26.195C411.682 27.5763 411.978 28.7973 412.57 29.858C413.162 30.894 413.951 31.6957 414.938 32.263C415.925 32.8303 417.047 33.114 418.305 33.114ZM425.002 36V30.709L425.224 26.158L424.854 21.607V8.546H428.406V36H425.002ZM443.859 36.222C441.762 36.222 439.912 35.7903 438.309 34.927C436.73 34.0637 435.497 32.8797 434.609 31.375C433.745 29.8703 433.314 28.1437 433.314 26.195C433.314 24.2463 433.733 22.5197 434.572 21.015C435.435 19.5103 436.607 18.3387 438.087 17.5C439.591 16.6367 441.281 16.205 443.156 16.205C445.055 16.205 446.732 16.6243 448.188 17.463C449.643 18.3017 450.778 19.4857 451.592 21.015C452.43 22.5197 452.85 24.2833 452.85 26.306C452.85 26.454 452.837 26.6267 452.813 26.824C452.813 27.0213 452.8 27.2063 452.776 27.379H436.089V24.826H450.926L449.483 25.714C449.507 24.456 449.248 23.3337 448.706 22.347C448.163 21.3603 447.411 20.5957 446.449 20.053C445.511 19.4857 444.414 19.202 443.156 19.202C441.922 19.202 440.825 19.4857 439.863 20.053C438.901 20.5957 438.148 21.3727 437.606 22.384C437.063 23.3707 436.792 24.5053 436.792 25.788V26.38C436.792 27.6873 437.088 28.859 437.68 29.895C438.296 30.9063 439.147 31.6957 440.233 32.263C441.318 32.8303 442.564 33.114 443.97 33.114C445.129 33.114 446.177 32.9167 447.115 32.522C448.077 32.1273 448.915 31.5353 449.631 30.746L451.592 33.04C450.704 34.076 449.594 34.8653 448.262 35.408C446.954 35.9507 445.487 36.222 443.859 36.222ZM478.116 36.222C476.488 36.222 474.995 35.852 473.639 35.112C472.307 34.3473 471.234 33.225 470.42 31.745C469.63 30.265 469.236 28.415 469.236 26.195C469.236 23.975 469.618 22.125 470.383 20.645C471.172 19.165 472.233 18.055 473.565 17.315C474.921 16.575 476.438 16.205 478.116 16.205C480.04 16.205 481.742 16.6243 483.222 17.463C484.702 18.3017 485.873 19.4733 486.737 20.978C487.6 22.458 488.032 24.197 488.032 26.195C488.032 28.193 487.6 29.9443 486.737 31.449C485.873 32.9537 484.702 34.1253 483.222 34.964C481.742 35.8027 480.04 36.222 478.116 36.222ZM467.719 43.178V16.39H471.123V21.681L470.901 26.232L471.271 30.783V43.178H467.719ZM477.82 33.114C479.078 33.114 480.2 32.8303 481.187 32.263C482.198 31.6957 482.987 30.894 483.555 29.858C484.147 28.7973 484.443 27.5763 484.443 26.195C484.443 24.789 484.147 23.5803 483.555 22.569C482.987 21.533 482.198 20.7313 481.187 20.164C480.2 19.5967 479.078 19.313 477.82 19.313C476.586 19.313 475.464 19.5967 474.453 20.164C473.466 20.7313 472.677 21.533 472.085 22.569C471.517 23.5803 471.234 24.789 471.234 26.195C471.234 27.5763 471.517 28.7973 472.085 29.858C472.677 30.894 473.466 31.6957 474.453 32.263C475.464 32.8303 476.586 33.114 477.82 33.114ZM504.932 36V31.856L504.747 31.079V24.012C504.747 22.5073 504.303 21.348 503.415 20.534C502.551 19.6953 501.244 19.276 499.493 19.276C498.333 19.276 497.199 19.4733 496.089 19.868C494.979 20.238 494.041 20.7437 493.277 21.385L491.797 18.721C492.808 17.907 494.017 17.2903 495.423 16.871C496.853 16.427 498.346 16.205 499.9 16.205C502.588 16.205 504.66 16.8587 506.116 18.166C507.571 19.4733 508.299 21.4713 508.299 24.16V36H504.932ZM498.494 36.222C497.038 36.222 495.756 35.9753 494.646 35.482C493.56 34.9887 492.722 34.3103 492.13 33.447C491.538 32.559 491.242 31.56 491.242 30.45C491.242 29.3893 491.488 28.4273 491.982 27.564C492.5 26.7007 493.326 26.01 494.461 25.492C495.62 24.974 497.174 24.715 499.123 24.715H505.339V27.268H499.271C497.495 27.268 496.298 27.564 495.682 28.156C495.065 28.748 494.757 29.4633 494.757 30.302C494.757 31.264 495.139 32.041 495.904 32.633C496.668 33.2003 497.729 33.484 499.086 33.484C500.418 33.484 501.577 33.188 502.564 32.596C503.575 32.004 504.303 31.1407 504.747 30.006L505.45 32.448C504.981 33.6073 504.155 34.5323 502.971 35.223C501.787 35.889 500.294 36.222 498.494 36.222ZM523.456 43.4C521.655 43.4 519.904 43.141 518.202 42.623C516.525 42.1297 515.156 41.4143 514.095 40.477L515.797 37.739C516.71 38.5283 517.832 39.145 519.164 39.589C520.496 40.0577 521.89 40.292 523.345 40.292C525.664 40.292 527.366 39.7493 528.451 38.664C529.536 37.5787 530.079 35.926 530.079 33.706V29.562L530.449 25.677L530.264 21.755V16.39H533.631V33.336C533.631 36.7893 532.768 39.33 531.041 40.958C529.314 42.586 526.786 43.4 523.456 43.4ZM523.012 35.186C521.113 35.186 519.411 34.7913 517.906 34.002C516.426 33.188 515.242 32.0657 514.354 30.635C513.491 29.2043 513.059 27.5517 513.059 25.677C513.059 23.7777 513.491 22.125 514.354 20.719C515.242 19.2883 516.426 18.1783 517.906 17.389C519.411 16.5997 521.113 16.205 523.012 16.205C524.689 16.205 526.219 16.5503 527.6 17.241C528.981 17.907 530.079 18.943 530.893 20.349C531.732 21.755 532.151 23.531 532.151 25.677C532.151 27.7983 531.732 29.562 530.893 30.968C530.079 32.374 528.981 33.4347 527.6 34.15C526.219 34.8407 524.689 35.186 523.012 35.186ZM523.419 32.078C524.726 32.078 525.886 31.8067 526.897 31.264C527.908 30.7213 528.698 29.969 529.265 29.007C529.857 28.045 530.153 26.935 530.153 25.677C530.153 24.419 529.857 23.309 529.265 22.347C528.698 21.385 527.908 20.645 526.897 20.127C525.886 19.5843 524.726 19.313 523.419 19.313C522.112 19.313 520.94 19.5843 519.904 20.127C518.893 20.645 518.091 21.385 517.499 22.347C516.932 23.309 516.648 24.419 516.648 25.677C516.648 26.935 516.932 28.045 517.499 29.007C518.091 29.969 518.893 30.7213 519.904 31.264C520.94 31.8067 522.112 32.078 523.419 32.078ZM552.591 36V31.856L552.406 31.079V24.012C552.406 22.5073 551.962 21.348 551.074 20.534C550.21 19.6953 548.903 19.276 547.152 19.276C545.992 19.276 544.858 19.4733 543.748 19.868C542.638 20.238 541.7 20.7437 540.936 21.385L539.456 18.721C540.467 17.907 541.676 17.2903 543.082 16.871C544.512 16.427 546.005 16.205 547.559 16.205C550.247 16.205 552.319 16.8587 553.775 18.166C555.23 19.4733 555.958 21.4713 555.958 24.16V36H552.591ZM546.153 36.222C544.697 36.222 543.415 35.9753 542.305 35.482C541.219 34.9887 540.381 34.3103 539.789 33.447C539.197 32.559 538.901 31.56 538.901 30.45C538.901 29.3893 539.147 28.4273 539.641 27.564C540.159 26.7007 540.985 26.01 542.12 25.492C543.279 24.974 544.833 24.715 546.782 24.715H552.998V27.268H546.93C545.154 27.268 543.957 27.564 543.341 28.156C542.724 28.748 542.416 29.4633 542.416 30.302C542.416 31.264 542.798 32.041 543.563 32.633C544.327 33.2003 545.388 33.484 546.745 33.484C548.077 33.484 549.236 33.188 550.223 32.596C551.234 32.004 551.962 31.1407 552.406 30.006L553.109 32.448C552.64 33.6073 551.814 34.5323 550.63 35.223C549.446 35.889 547.953 36.222 546.153 36.222ZM587.062 16.205C588.641 16.205 590.034 16.5133 591.243 17.13C592.452 17.7467 593.389 18.684 594.055 19.942C594.746 21.2 595.091 22.791 595.091 24.715V36H591.539V25.122C591.539 23.2227 591.095 21.792 590.207 20.83C589.319 19.868 588.073 19.387 586.47 19.387C585.286 19.387 584.25 19.6337 583.362 20.127C582.474 20.6203 581.783 21.348 581.29 22.31C580.821 23.272 580.587 24.4683 580.587 25.899V36H577.035V25.122C577.035 23.2227 576.591 21.792 575.703 20.83C574.84 19.868 573.594 19.387 571.966 19.387C570.807 19.387 569.783 19.6337 568.895 20.127C568.007 20.6203 567.316 21.348 566.823 22.31C566.33 23.272 566.083 24.4683 566.083 25.899V36H562.531V16.39H565.935V21.607L565.38 20.275C565.997 18.9923 566.946 17.9933 568.229 17.278C569.512 16.5627 571.004 16.205 572.706 16.205C574.581 16.205 576.196 16.6737 577.553 17.611C578.91 18.5237 579.798 19.9173 580.217 21.792L578.774 21.2C579.366 19.6953 580.402 18.4867 581.882 17.574C583.362 16.6613 585.089 16.205 587.062 16.205ZM610.359 36.222C608.262 36.222 606.412 35.7903 604.809 34.927C603.23 34.0637 601.997 32.8797 601.109 31.375C600.245 29.8703 599.814 28.1437 599.814 26.195C599.814 24.2463 600.233 22.5197 601.072 21.015C601.935 19.5103 603.107 18.3387 604.587 17.5C606.091 16.6367 607.781 16.205 609.656 16.205C611.555 16.205 613.232 16.6243 614.688 17.463C616.143 18.3017 617.278 19.4857 618.092 21.015C618.93 22.5197 619.35 24.2833 619.35 26.306C619.35 26.454 619.337 26.6267 619.313 26.824C619.313 27.0213 619.3 27.2063 619.276 27.379H602.589V24.826H617.426L615.983 25.714C616.007 24.456 615.748 23.3337 615.206 22.347C614.663 21.3603 613.911 20.5957 612.949 20.053C612.011 19.4857 610.914 19.202 609.656 19.202C608.422 19.202 607.325 19.4857 606.363 20.053C605.401 20.5957 604.648 21.3727 604.106 22.384C603.563 23.3707 603.292 24.5053 603.292 25.788V26.38C603.292 27.6873 603.588 28.859 604.18 29.895C604.796 30.9063 605.647 31.6957 606.733 32.263C607.818 32.8303 609.064 33.114 610.47 33.114C611.629 33.114 612.677 32.9167 613.615 32.522C614.577 32.1273 615.415 31.5353 616.131 30.746L618.092 33.04C617.204 34.076 616.094 34.8653 614.762 35.408C613.454 35.9507 611.987 36.222 610.359 36.222ZM634.753 16.205C636.356 16.205 637.762 16.5133 638.971 17.13C640.204 17.7467 641.166 18.684 641.857 19.942C642.548 21.2 642.893 22.791 642.893 24.715V36H639.341V25.122C639.341 23.2227 638.872 21.792 637.935 20.83C637.022 19.868 635.727 19.387 634.05 19.387C632.792 19.387 631.694 19.6337 630.757 20.127C629.82 20.6203 629.092 21.348 628.574 22.31C628.081 23.272 627.834 24.4683 627.834 25.899V36H624.282V16.39H627.686V21.681L627.131 20.275C627.772 18.9923 628.759 17.9933 630.091 17.278C631.423 16.5627 632.977 16.205 634.753 16.205ZM656.201 36.222C654.227 36.222 652.698 35.6917 651.613 34.631C650.527 33.5703 649.985 32.0533 649.985 30.08V12.098H653.537V29.932C653.537 30.9927 653.796 31.8067 654.314 32.374C654.856 32.9413 655.621 33.225 656.608 33.225C657.718 33.225 658.643 32.9167 659.383 32.3L660.493 34.853C659.95 35.3217 659.296 35.667 658.532 35.889C657.792 36.111 657.015 36.222 656.201 36.222ZM646.655 19.313V16.39H659.161V19.313H646.655ZM672.536 36.222C670.562 36.222 668.811 35.7903 667.282 34.927C665.752 34.0637 664.544 32.8797 663.656 31.375C662.768 29.8457 662.324 28.119 662.324 26.195C662.324 24.2463 662.768 22.5197 663.656 21.015C664.544 19.5103 665.752 18.3387 667.282 17.5C668.811 16.6367 670.562 16.205 672.536 16.205C674.484 16.205 676.223 16.6367 677.753 17.5C679.307 18.3387 680.515 19.5103 681.379 21.015C682.267 22.495 682.711 24.2217 682.711 26.195C682.711 28.1437 682.267 29.8703 681.379 31.375C680.515 32.8797 679.307 34.0637 677.753 34.927C676.223 35.7903 674.484 36.222 672.536 36.222ZM672.536 33.114C673.794 33.114 674.916 32.8303 675.903 32.263C676.914 31.6957 677.703 30.894 678.271 29.858C678.838 28.7973 679.122 27.5763 679.122 26.195C679.122 24.789 678.838 23.5803 678.271 22.569C677.703 21.533 676.914 20.7313 675.903 20.164C674.916 19.5967 673.794 19.313 672.536 19.313C671.278 19.313 670.155 19.5967 669.169 20.164C668.182 20.7313 667.393 21.533 666.801 22.569C666.209 23.5803 665.913 24.789 665.913 26.195C665.913 27.5763 666.209 28.7973 666.801 29.858C667.393 30.894 668.182 31.6957 669.169 32.263C670.155 32.8303 671.278 33.114 672.536 33.114ZM693.247 36.222C691.619 36.222 690.065 36 688.585 35.556C687.13 35.112 685.983 34.5693 685.144 33.928L686.624 31.116C687.463 31.6833 688.499 32.1643 689.732 32.559C690.965 32.9537 692.223 33.151 693.506 33.151C695.159 33.151 696.343 32.9167 697.058 32.448C697.798 31.9793 698.168 31.3257 698.168 30.487C698.168 29.8703 697.946 29.3893 697.502 29.044C697.058 28.6987 696.466 28.4397 695.726 28.267C695.011 28.0943 694.209 27.9463 693.321 27.823C692.433 27.675 691.545 27.5023 690.657 27.305C689.769 27.083 688.955 26.787 688.215 26.417C687.475 26.0223 686.883 25.492 686.439 24.826C685.995 24.1353 685.773 23.2227 685.773 22.088C685.773 20.904 686.106 19.868 686.772 18.98C687.438 18.092 688.375 17.4137 689.584 16.945C690.817 16.4517 692.273 16.205 693.95 16.205C695.233 16.205 696.528 16.3653 697.835 16.686C699.167 16.982 700.252 17.4137 701.091 17.981L699.574 20.793C698.686 20.201 697.761 19.794 696.799 19.572C695.837 19.35 694.875 19.239 693.913 19.239C692.359 19.239 691.2 19.498 690.435 20.016C689.67 20.5093 689.288 21.1507 689.288 21.94C689.288 22.606 689.51 23.124 689.954 23.494C690.423 23.8393 691.015 24.1107 691.73 24.308C692.47 24.5053 693.284 24.678 694.172 24.826C695.06 24.9493 695.948 25.122 696.836 25.344C697.724 25.5413 698.526 25.825 699.241 26.195C699.981 26.565 700.573 27.083 701.017 27.749C701.486 28.415 701.72 29.303 701.72 30.413C701.72 31.597 701.375 32.6207 700.684 33.484C699.993 34.3473 699.019 35.0257 697.761 35.519C696.503 35.9877 694.998 36.222 693.247 36.222ZM724.199 36.222C722.299 36.222 720.597 35.8027 719.093 34.964C717.613 34.1253 716.441 32.9537 715.578 31.449C714.714 29.9443 714.283 28.193 714.283 26.195C714.283 24.197 714.714 22.458 715.578 20.978C716.441 19.4733 717.613 18.3017 719.093 17.463C720.597 16.6243 722.299 16.205 724.199 16.205C725.851 16.205 727.344 16.575 728.676 17.315C730.008 18.055 731.068 19.165 731.858 20.645C732.672 22.125 733.079 23.975 733.079 26.195C733.079 28.415 732.684 30.265 731.895 31.745C731.13 33.225 730.082 34.3473 728.75 35.112C727.418 35.852 725.901 36.222 724.199 36.222ZM724.495 33.114C725.728 33.114 726.838 32.8303 727.825 32.263C728.836 31.6957 729.625 30.894 730.193 29.858C730.785 28.7973 731.081 27.5763 731.081 26.195C731.081 24.789 730.785 23.5803 730.193 22.569C729.625 21.533 728.836 20.7313 727.825 20.164C726.838 19.5967 725.728 19.313 724.495 19.313C723.237 19.313 722.114 19.5967 721.128 20.164C720.141 20.7313 719.352 21.533 718.76 22.569C718.168 23.5803 717.872 24.789 717.872 26.195C717.872 27.5763 718.168 28.7973 718.76 29.858C719.352 30.894 720.141 31.6957 721.128 32.263C722.114 32.8303 723.237 33.114 724.495 33.114ZM731.192 36V30.709L731.414 26.158L731.044 21.607V8.546H734.596V36H731.192ZM749.715 36.222C747.742 36.222 745.991 35.7903 744.461 34.927C742.932 34.0637 741.723 32.8797 740.835 31.375C739.947 29.8457 739.503 28.119 739.503 26.195C739.503 24.2463 739.947 22.5197 740.835 21.015C741.723 19.5103 742.932 18.3387 744.461 17.5C745.991 16.6367 747.742 16.205 749.715 16.205C751.664 16.205 753.403 16.6367 754.932 17.5C756.486 18.3387 757.695 19.5103 758.558 21.015C759.446 22.495 759.89 24.2217 759.89 26.195C759.89 28.1437 759.446 29.8703 758.558 31.375C757.695 32.8797 756.486 34.0637 754.932 34.927C753.403 35.7903 751.664 36.222 749.715 36.222ZM749.715 33.114C750.973 33.114 752.096 32.8303 753.082 32.263C754.094 31.6957 754.883 30.894 755.45 29.858C756.018 28.7973 756.301 27.5763 756.301 26.195C756.301 24.789 756.018 23.5803 755.45 22.569C754.883 21.533 754.094 20.7313 753.082 20.164C752.096 19.5967 750.973 19.313 749.715 19.313C748.457 19.313 747.335 19.5967 746.348 20.164C745.362 20.7313 744.572 21.533 743.98 22.569C743.388 23.5803 743.092 24.789 743.092 26.195C743.092 27.5763 743.388 28.7973 743.98 29.858C744.572 30.894 745.362 31.6957 746.348 32.263C747.335 32.8303 748.457 33.114 749.715 33.114ZM775.257 36V10.1H786.875C789.86 10.1 792.154 10.7043 793.757 11.913C795.36 13.097 796.162 14.725 796.162 16.797C796.162 18.203 795.841 19.387 795.2 20.349C794.583 21.311 793.745 22.051 792.684 22.569C791.623 23.087 790.476 23.346 789.243 23.346L789.909 22.236C791.389 22.236 792.696 22.495 793.831 23.013C794.966 23.531 795.866 24.2957 796.532 25.307C797.198 26.2937 797.531 27.527 797.531 29.007C797.531 31.227 796.692 32.9537 795.015 34.187C793.362 35.3957 790.896 36 787.615 36H775.257ZM778.957 33.003H787.467C789.514 33.003 791.081 32.6577 792.166 31.967C793.251 31.2763 793.794 30.191 793.794 28.711C793.794 27.2063 793.251 26.1087 792.166 25.418C791.081 24.7273 789.514 24.382 787.467 24.382H778.624V21.385H786.542C788.417 21.385 789.872 21.0397 790.908 20.349C791.944 19.6583 792.462 18.6223 792.462 17.241C792.462 15.8597 791.944 14.8237 790.908 14.133C789.872 13.4423 788.417 13.097 786.542 13.097H778.957V33.003ZM802.742 36V16.39H806.146V21.718L805.813 20.386C806.356 19.0293 807.268 17.9933 808.551 17.278C809.834 16.5627 811.412 16.205 813.287 16.205V19.646C813.139 19.6213 812.991 19.609 812.843 19.609C812.72 19.609 812.596 19.609 812.473 19.609C810.574 19.609 809.069 20.1763 807.959 21.311C806.849 22.4457 806.294 24.086 806.294 26.232V36H802.742ZM828.393 36V31.856L828.208 31.079V24.012C828.208 22.5073 827.764 21.348 826.876 20.534C826.012 19.6953 824.705 19.276 822.954 19.276C821.794 19.276 820.66 19.4733 819.55 19.868C818.44 20.238 817.502 20.7437 816.738 21.385L815.258 18.721C816.269 17.907 817.478 17.2903 818.884 16.871C820.314 16.427 821.807 16.205 823.361 16.205C826.049 16.205 828.121 16.8587 829.577 18.166C831.032 19.4733 831.76 21.4713 831.76 24.16V36H828.393ZM821.955 36.222C820.499 36.222 819.217 35.9753 818.107 35.482C817.021 34.9887 816.183 34.3103 815.591 33.447C814.999 32.559 814.703 31.56 814.703 30.45C814.703 29.3893 814.949 28.4273 815.443 27.564C815.961 26.7007 816.787 26.01 817.922 25.492C819.081 24.974 820.635 24.715 822.584 24.715H828.8V27.268H822.732C820.956 27.268 819.759 27.564 819.143 28.156C818.526 28.748 818.218 29.4633 818.218 30.302C818.218 31.264 818.6 32.041 819.365 32.633C820.129 33.2003 821.19 33.484 822.547 33.484C823.879 33.484 825.038 33.188 826.025 32.596C827.036 32.004 827.764 31.1407 828.208 30.006L828.911 32.448C828.442 33.6073 827.616 34.5323 826.432 35.223C825.248 35.889 823.755 36.222 821.955 36.222ZM843.957 36.222C842.329 36.222 840.775 36 839.295 35.556C837.839 35.112 836.692 34.5693 835.854 33.928L837.334 31.116C838.172 31.6833 839.208 32.1643 840.442 32.559C841.675 32.9537 842.933 33.151 844.216 33.151C845.868 33.151 847.052 32.9167 847.768 32.448C848.508 31.9793 848.878 31.3257 848.878 30.487C848.878 29.8703 848.656 29.3893 848.212 29.044C847.768 28.6987 847.176 28.4397 846.436 28.267C845.72 28.0943 844.919 27.9463 844.031 27.823C843.143 27.675 842.255 27.5023 841.367 27.305C840.479 27.083 839.665 26.787 838.925 26.417C838.185 26.0223 837.593 25.492 837.149 24.826C836.705 24.1353 836.483 23.2227 836.483 22.088C836.483 20.904 836.816 19.868 837.482 18.98C838.148 18.092 839.085 17.4137 840.294 16.945C841.527 16.4517 842.982 16.205 844.66 16.205C845.942 16.205 847.237 16.3653 848.545 16.686C849.877 16.982 850.962 17.4137 851.801 17.981L850.284 20.793C849.396 20.201 848.471 19.794 847.509 19.572C846.547 19.35 845.585 19.239 844.623 19.239C843.069 19.239 841.909 19.498 841.145 20.016C840.38 20.5093 839.998 21.1507 839.998 21.94C839.998 22.606 840.22 23.124 840.664 23.494C841.132 23.8393 841.724 24.1107 842.44 24.308C843.18 24.5053 843.994 24.678 844.882 24.826C845.77 24.9493 846.658 25.122 847.546 25.344C848.434 25.5413 849.235 25.825 849.951 26.195C850.691 26.565 851.283 27.083 851.727 27.749C852.195 28.415 852.43 29.303 852.43 30.413C852.43 31.597 852.084 32.6207 851.394 33.484C850.703 34.3473 849.729 35.0257 848.471 35.519C847.213 35.9877 845.708 36.222 843.957 36.222ZM856.869 36V16.39H860.421V36H856.869ZM858.645 12.616C857.954 12.616 857.375 12.394 856.906 11.95C856.462 11.506 856.24 10.9633 856.24 10.322C856.24 9.656 856.462 9.101 856.906 8.657C857.375 8.213 857.954 7.991 858.645 7.991C859.336 7.991 859.903 8.213 860.347 8.657C860.816 9.07633 861.05 9.60666 861.05 10.248C861.05 10.914 860.828 11.4813 860.384 11.95C859.94 12.394 859.36 12.616 858.645 12.616ZM867.203 36V8.546H870.755V36H867.203Z" fill="white"/>
<rect x="322" y="189" width="246" height="20" fill="url(#paint0_linear_180_183)"/>
<path d="M17.292 198.616C12.7453 198.616 9.196 197.369 6.644 194.876C4.092 192.383 2.816 188.848 2.816 184.272V167.2H11.528V184.008C11.528 186.648 12.0413 188.54 13.068 189.684C14.124 190.828 15.5613 191.4 17.38 191.4C19.1987 191.4 20.6213 190.828 21.648 189.684C22.6747 188.54 23.188 186.648 23.188 184.008V167.2H31.768V184.272C31.768 188.848 30.492 192.383 27.94 194.876C25.388 197.369 21.8387 198.616 17.292 198.616ZM45.9418 198.396C43.9178 198.396 41.9378 198.161 40.0018 197.692C38.0952 197.223 36.5552 196.636 35.3818 195.932L37.8898 190.212C39.0045 190.887 40.3098 191.429 41.8058 191.84C43.3018 192.221 44.7685 192.412 46.2058 192.412C47.6138 192.412 48.5818 192.265 49.1098 191.972C49.6672 191.679 49.9458 191.283 49.9458 190.784C49.9458 190.315 49.6818 189.977 49.1538 189.772C48.6552 189.537 47.9805 189.361 47.1298 189.244C46.3085 189.127 45.3992 188.995 44.4018 188.848C43.4045 188.701 42.3925 188.511 41.3658 188.276C40.3685 188.012 39.4445 187.631 38.5938 187.132C37.7725 186.604 37.1125 185.9 36.6138 185.02C36.1152 184.14 35.8658 183.025 35.8658 181.676C35.8658 180.151 36.3058 178.801 37.1858 177.628C38.0952 176.425 39.4152 175.487 41.1458 174.812C42.8765 174.108 44.9885 173.756 47.4818 173.756C49.1538 173.756 50.8405 173.932 52.5418 174.284C54.2725 174.607 55.7245 175.105 56.8978 175.78L54.3898 181.456C53.2165 180.781 52.0432 180.327 50.8698 180.092C49.6965 179.828 48.5818 179.696 47.5258 179.696C46.1178 179.696 45.1205 179.857 44.5338 180.18C43.9765 180.503 43.6978 180.899 43.6978 181.368C43.6978 181.837 43.9472 182.204 44.4458 182.468C44.9445 182.703 45.6045 182.893 46.4258 183.04C47.2765 183.157 48.2005 183.289 49.1978 183.436C50.1952 183.553 51.1925 183.744 52.1898 184.008C53.2165 184.272 54.1405 184.668 54.9618 185.196C55.8125 185.695 56.4872 186.384 56.9858 187.264C57.4845 188.115 57.7338 189.215 57.7338 190.564C57.7338 192.031 57.2792 193.351 56.3698 194.524C55.4898 195.697 54.1698 196.636 52.4098 197.34C50.6792 198.044 48.5232 198.396 45.9418 198.396ZM73.8323 198.396C71.0163 198.396 68.5523 197.868 66.4403 196.812C64.3577 195.727 62.7297 194.26 61.5563 192.412C60.4123 190.535 59.8403 188.408 59.8403 186.032C59.8403 183.656 60.3977 181.544 61.5123 179.696C62.6563 177.819 64.2257 176.367 66.2203 175.34C68.215 174.284 70.459 173.756 72.9523 173.756C75.299 173.756 77.4403 174.24 79.3763 175.208C81.3123 176.147 82.8523 177.54 83.9963 179.388C85.1403 181.236 85.7123 183.48 85.7123 186.12C85.7123 186.413 85.6977 186.751 85.6683 187.132C85.639 187.513 85.6097 187.865 85.5803 188.188H66.7043V183.788H81.1363L77.9683 185.02C77.9977 183.935 77.7923 182.996 77.3523 182.204C76.9417 181.412 76.355 180.796 75.5923 180.356C74.859 179.916 73.9937 179.696 72.9963 179.696C71.999 179.696 71.119 179.916 70.3563 180.356C69.623 180.796 69.051 181.427 68.6403 182.248C68.2297 183.04 68.0243 183.979 68.0243 185.064V186.34C68.0243 187.513 68.259 188.525 68.7283 189.376C69.227 190.227 69.931 190.887 70.8403 191.356C71.7497 191.796 72.835 192.016 74.0963 192.016C75.2697 192.016 76.267 191.855 77.0883 191.532C77.939 191.18 78.775 190.652 79.5963 189.948L83.9963 194.524C82.8523 195.785 81.4443 196.753 79.7723 197.428C78.1003 198.073 76.1203 198.396 73.8323 198.396ZM114.34 198.396C111.729 198.396 109.412 197.868 107.388 196.812C105.364 195.756 103.765 194.304 102.591 192.456C101.448 190.579 100.876 188.437 100.876 186.032C100.876 183.627 101.448 181.5 102.591 179.652C103.765 177.804 105.364 176.367 107.388 175.34C109.412 174.284 111.729 173.756 114.34 173.756C116.95 173.756 119.268 174.284 121.292 175.34C123.345 176.367 124.944 177.804 126.088 179.652C127.232 181.5 127.804 183.627 127.804 186.032C127.804 188.437 127.232 190.579 126.088 192.456C124.944 194.304 123.345 195.756 121.292 196.812C119.268 197.868 116.95 198.396 114.34 198.396ZM114.34 191.752C115.308 191.752 116.158 191.532 116.892 191.092C117.654 190.652 118.256 190.007 118.696 189.156C119.136 188.276 119.356 187.235 119.356 186.032C119.356 184.829 119.136 183.817 118.696 182.996C118.256 182.145 117.654 181.5 116.892 181.06C116.158 180.62 115.308 180.4 114.34 180.4C113.401 180.4 112.55 180.62 111.788 181.06C111.054 181.5 110.453 182.145 109.984 182.996C109.544 183.817 109.324 184.829 109.324 186.032C109.324 187.235 109.544 188.276 109.984 189.156C110.453 190.007 111.054 190.652 111.788 191.092C112.55 191.532 113.401 191.752 114.34 191.752ZM156.669 198.396C154.029 198.396 151.668 197.868 149.585 196.812C147.532 195.756 145.918 194.304 144.745 192.456C143.572 190.579 142.985 188.437 142.985 186.032C142.985 183.627 143.572 181.5 144.745 179.652C145.918 177.804 147.532 176.367 149.585 175.34C151.668 174.284 154.029 173.756 156.669 173.756C159.368 173.756 161.7 174.328 163.665 175.472C165.63 176.616 167.024 178.229 167.845 180.312L161.377 183.612C160.82 182.497 160.13 181.691 159.309 181.192C158.488 180.664 157.593 180.4 156.625 180.4C155.657 180.4 154.777 180.62 153.985 181.06C153.193 181.5 152.562 182.145 152.093 182.996C151.653 183.817 151.433 184.829 151.433 186.032C151.433 187.264 151.653 188.305 152.093 189.156C152.562 190.007 153.193 190.652 153.985 191.092C154.777 191.532 155.657 191.752 156.625 191.752C157.593 191.752 158.488 191.503 159.309 191.004C160.13 190.476 160.82 189.655 161.377 188.54L167.845 191.84C167.024 193.923 165.63 195.536 163.665 196.68C161.7 197.824 159.368 198.396 156.669 198.396ZM181.025 198.396C179.089 198.396 177.343 198.015 175.789 197.252C174.263 196.489 173.061 195.301 172.181 193.688C171.33 192.045 170.905 189.977 170.905 187.484V174.152H179.265V186.12C179.265 187.968 179.602 189.288 180.277 190.08C180.981 190.872 181.963 191.268 183.225 191.268C184.046 191.268 184.794 191.077 185.469 190.696C186.143 190.315 186.686 189.713 187.097 188.892C187.507 188.041 187.713 186.956 187.713 185.636V174.152H196.073V198H188.109V191.268L189.649 193.16C188.827 194.92 187.639 196.24 186.085 197.12C184.53 197.971 182.843 198.396 181.025 198.396ZM216.461 198.396C214.437 198.396 212.707 197.956 211.269 197.076C209.832 196.167 208.732 194.817 207.969 193.028C207.236 191.209 206.869 188.892 206.869 186.076C206.869 183.231 207.221 180.913 207.925 179.124C208.629 177.305 209.685 175.956 211.093 175.076C212.531 174.196 214.32 173.756 216.461 173.756C218.632 173.756 220.597 174.269 222.357 175.296C224.147 176.293 225.555 177.716 226.581 179.564C227.637 181.383 228.165 183.553 228.165 186.076C228.165 188.599 227.637 190.784 226.581 192.632C225.555 194.48 224.147 195.903 222.357 196.9C220.597 197.897 218.632 198.396 216.461 198.396ZM201.457 206.536V174.152H209.421V178.2L209.377 186.076L209.817 193.996V206.536H201.457ZM214.701 191.752C215.64 191.752 216.476 191.532 217.209 191.092C217.972 190.652 218.573 190.007 219.013 189.156C219.483 188.305 219.717 187.279 219.717 186.076C219.717 184.873 219.483 183.847 219.013 182.996C218.573 182.145 217.972 181.5 217.209 181.06C216.476 180.62 215.64 180.4 214.701 180.4C213.763 180.4 212.912 180.62 212.149 181.06C211.416 181.5 210.815 182.145 210.345 182.996C209.905 183.847 209.685 184.873 209.685 186.076C209.685 187.279 209.905 188.305 210.345 189.156C210.815 190.007 211.416 190.652 212.149 191.092C212.912 191.532 213.763 191.752 214.701 191.752ZM244.019 198.396C241.409 198.396 239.091 197.868 237.067 196.812C235.043 195.756 233.445 194.304 232.271 192.456C231.127 190.579 230.555 188.437 230.555 186.032C230.555 183.627 231.127 181.5 232.271 179.652C233.445 177.804 235.043 176.367 237.067 175.34C239.091 174.284 241.409 173.756 244.019 173.756C246.63 173.756 248.947 174.284 250.971 175.34C253.025 176.367 254.623 177.804 255.767 179.652C256.911 181.5 257.483 183.627 257.483 186.032C257.483 188.437 256.911 190.579 255.767 192.456C254.623 194.304 253.025 195.756 250.971 196.812C248.947 197.868 246.63 198.396 244.019 198.396ZM244.019 191.752C244.987 191.752 245.838 191.532 246.571 191.092C247.334 190.652 247.935 190.007 248.375 189.156C248.815 188.276 249.035 187.235 249.035 186.032C249.035 184.829 248.815 183.817 248.375 182.996C247.935 182.145 247.334 181.5 246.571 181.06C245.838 180.62 244.987 180.4 244.019 180.4C243.081 180.4 242.23 180.62 241.467 181.06C240.734 181.5 240.133 182.145 239.663 182.996C239.223 183.817 239.003 184.829 239.003 186.032C239.003 187.235 239.223 188.276 239.663 189.156C240.133 190.007 240.734 190.652 241.467 191.092C242.23 191.532 243.081 191.752 244.019 191.752ZM292.42 173.756C294.268 173.756 295.911 174.137 297.348 174.9C298.815 175.633 299.959 176.777 300.78 178.332C301.631 179.887 302.056 181.896 302.056 184.36V198H293.696V185.724C293.696 184.023 293.373 182.791 292.728 182.028C292.083 181.236 291.203 180.84 290.088 180.84C289.296 180.84 288.577 181.031 287.932 181.412C287.287 181.793 286.788 182.38 286.436 183.172C286.084 183.935 285.908 184.932 285.908 186.164V198H277.548V185.724C277.548 184.023 277.225 182.791 276.58 182.028C275.964 181.236 275.084 180.84 273.94 180.84C273.119 180.84 272.385 181.031 271.74 181.412C271.124 181.793 270.625 182.38 270.244 183.172C269.892 183.935 269.716 184.932 269.716 186.164V198H261.356V174.152H269.32V180.796L267.736 178.904C268.616 177.203 269.819 175.927 271.344 175.076C272.869 174.196 274.571 173.756 276.448 173.756C278.589 173.756 280.467 174.313 282.08 175.428C283.723 176.513 284.823 178.215 285.38 180.532L282.652 179.96C283.503 178.024 284.779 176.513 286.48 175.428C288.211 174.313 290.191 173.756 292.42 173.756ZM327.089 198V174.108H317.629V167.2H345.217V174.108H335.801V198H327.089ZM348.463 198V167.2H362.543C365.359 167.2 367.779 167.655 369.803 168.564C371.856 169.473 373.44 170.793 374.555 172.524C375.669 174.225 376.227 176.249 376.227 178.596C376.227 180.913 375.669 182.923 374.555 184.624C373.44 186.296 371.856 187.587 369.803 188.496C367.779 189.376 365.359 189.816 362.543 189.816H353.303L357.175 186.164V198H348.463ZM367.515 198L359.859 186.78H369.143L376.843 198H367.515ZM357.175 187.088L353.303 183.084H362.015C363.833 183.084 365.183 182.688 366.063 181.896C366.972 181.104 367.427 180.004 367.427 178.596C367.427 177.159 366.972 176.044 366.063 175.252C365.183 174.46 363.833 174.064 362.015 174.064H353.303L357.175 170.06V187.088ZM377.337 198L390.933 167.2H399.513L413.153 198H404.089L393.441 171.468H396.873L386.225 198H377.337ZM384.773 192.016L387.017 185.592H402.065L404.309 192.016H384.773ZM415.623 198V167.2H430.187C433.59 167.2 436.582 167.831 439.163 169.092C441.744 170.353 443.754 172.128 445.191 174.416C446.658 176.704 447.391 179.432 447.391 182.6C447.391 185.739 446.658 188.467 445.191 190.784C443.754 193.072 441.744 194.847 439.163 196.108C436.582 197.369 433.59 198 430.187 198H415.623ZM424.335 191.048H429.835C431.595 191.048 433.12 190.725 434.411 190.08C435.731 189.405 436.758 188.437 437.491 187.176C438.224 185.885 438.591 184.36 438.591 182.6C438.591 180.811 438.224 179.285 437.491 178.024C436.758 176.763 435.731 175.809 434.411 175.164C433.12 174.489 431.595 174.152 429.835 174.152H424.335V191.048ZM459.983 179.124H474.283V185.636H459.983V179.124ZM460.599 191.268H476.703V198H451.975V167.2H476.131V173.932H460.599V191.268ZM481.537 198V167.2H495.617C498.433 167.2 500.853 167.655 502.877 168.564C504.93 169.473 506.514 170.793 507.629 172.524C508.744 174.225 509.301 176.249 509.301 178.596C509.301 180.913 508.744 182.923 507.629 184.624C506.514 186.296 504.93 187.587 502.877 188.496C500.853 189.376 498.433 189.816 495.617 189.816H486.377L490.249 186.164V198H481.537ZM500.589 198L492.933 186.78H502.217L509.917 198H500.589ZM490.249 187.088L486.377 183.084H495.089C496.908 183.084 498.257 182.688 499.137 181.896C500.046 181.104 500.501 180.004 500.501 178.596C500.501 177.159 500.046 176.044 499.137 175.252C498.257 174.46 496.908 174.064 495.089 174.064H486.377L490.249 170.06V187.088ZM512.567 198V192.544L530.695 171.028L531.751 174.108H512.963V167.2H539.495V172.656L521.367 194.172L520.311 191.092H540.155V198H512.567ZM547.051 198L559.063 170.412L561.395 174.108H545.775L549.339 170.104V178.86H541.903V167.2H567.423V172.656L556.555 198H547.051ZM599.184 198.396C597.16 198.396 595.429 197.956 593.992 197.076C592.555 196.167 591.455 194.817 590.692 193.028C589.959 191.209 589.592 188.892 589.592 186.076C589.592 183.231 589.944 180.913 590.648 179.124C591.352 177.305 592.408 175.956 593.816 175.076C595.253 174.196 597.043 173.756 599.184 173.756C601.355 173.756 603.32 174.269 605.08 175.296C606.869 176.293 608.277 177.716 609.304 179.564C610.36 181.383 610.888 183.553 610.888 186.076C610.888 188.599 610.36 190.784 609.304 192.632C608.277 194.48 606.869 195.903 605.08 196.9C603.32 197.897 601.355 198.396 599.184 198.396ZM584.18 206.536V174.152H592.144V178.2L592.1 186.076L592.54 193.996V206.536H584.18ZM597.424 191.752C598.363 191.752 599.199 191.532 599.932 191.092C600.695 190.652 601.296 190.007 601.736 189.156C602.205 188.305 602.44 187.279 602.44 186.076C602.44 184.873 602.205 183.847 601.736 182.996C601.296 182.145 600.695 181.5 599.932 181.06C599.199 180.62 598.363 180.4 597.424 180.4C596.485 180.4 595.635 180.62 594.872 181.06C594.139 181.5 593.537 182.145 593.068 182.996C592.628 183.847 592.408 184.873 592.408 186.076C592.408 187.279 592.628 188.305 593.068 189.156C593.537 190.007 594.139 190.652 594.872 191.092C595.635 191.532 596.485 191.752 597.424 191.752ZM628.822 198V193.556L628.25 192.456V184.272C628.25 182.952 627.84 181.94 627.018 181.236C626.226 180.503 624.95 180.136 623.19 180.136C622.046 180.136 620.888 180.327 619.714 180.708C618.541 181.06 617.544 181.559 616.722 182.204L613.906 176.528C615.256 175.648 616.869 174.973 618.746 174.504C620.653 174.005 622.545 173.756 624.422 173.756C628.294 173.756 631.286 174.651 633.398 176.44C635.54 178.2 636.61 180.972 636.61 184.756V198H628.822ZM621.782 198.396C619.876 198.396 618.262 198.073 616.942 197.428C615.622 196.783 614.61 195.903 613.906 194.788C613.232 193.673 612.894 192.427 612.894 191.048C612.894 189.581 613.261 188.32 613.994 187.264C614.757 186.179 615.916 185.357 617.47 184.8C619.025 184.213 621.034 183.92 623.498 183.92H629.13V188.276H624.642C623.293 188.276 622.34 188.496 621.782 188.936C621.254 189.376 620.99 189.963 620.99 190.696C620.99 191.429 621.269 192.016 621.826 192.456C622.384 192.896 623.146 193.116 624.114 193.116C625.024 193.116 625.845 192.896 626.578 192.456C627.341 191.987 627.898 191.283 628.25 190.344L629.394 193.424C628.954 195.067 628.089 196.313 626.798 197.164C625.537 197.985 623.865 198.396 621.782 198.396ZM641.887 198V174.152H649.851V181.104L648.663 179.124C649.367 177.335 650.511 176 652.095 175.12C653.679 174.211 655.6 173.756 657.859 173.756V181.28C657.478 181.221 657.14 181.192 656.847 181.192C656.583 181.163 656.29 181.148 655.967 181.148C654.266 181.148 652.887 181.617 651.831 182.556C650.775 183.465 650.247 184.961 650.247 187.044V198H641.887ZM674.455 198V193.556L673.883 192.456V184.272C673.883 182.952 673.472 181.94 672.651 181.236C671.859 180.503 670.583 180.136 668.823 180.136C667.679 180.136 666.52 180.327 665.347 180.708C664.174 181.06 663.176 181.559 662.355 182.204L659.539 176.528C660.888 175.648 662.502 174.973 664.379 174.504C666.286 174.005 668.178 173.756 670.055 173.756C673.927 173.756 676.919 174.651 679.031 176.44C681.172 178.2 682.243 180.972 682.243 184.756V198H674.455ZM667.415 198.396C665.508 198.396 663.895 198.073 662.575 197.428C661.255 196.783 660.243 195.903 659.539 194.788C658.864 193.673 658.527 192.427 658.527 191.048C658.527 189.581 658.894 188.32 659.627 187.264C660.39 186.179 661.548 185.357 663.103 184.8C664.658 184.213 666.667 183.92 669.131 183.92H674.763V188.276H670.275C668.926 188.276 667.972 188.496 667.415 188.936C666.887 189.376 666.623 189.963 666.623 190.696C666.623 191.429 666.902 192.016 667.459 192.456C668.016 192.896 668.779 193.116 669.747 193.116C670.656 193.116 671.478 192.896 672.211 192.456C672.974 191.987 673.531 191.283 673.883 190.344L675.027 193.424C674.587 195.067 673.722 196.313 672.431 197.164C671.17 197.985 669.498 198.396 667.415 198.396ZM698.829 192.104V186.428L712.645 167.2H721.665L708.245 186.428L704.109 185.196H728.177V192.104H698.829ZM715.109 198V192.104L715.373 185.196V179.96H723.601V198H715.109ZM740.725 198.616C738.613 198.616 736.487 198.352 734.345 197.824C732.204 197.296 730.356 196.548 728.801 195.58L731.925 189.024C733.187 189.845 734.551 190.476 736.017 190.916C737.513 191.356 738.995 191.576 740.461 191.576C741.928 191.576 743.116 191.297 744.025 190.74C744.935 190.153 745.389 189.347 745.389 188.32C745.389 187.704 745.213 187.161 744.861 186.692C744.509 186.193 743.908 185.827 743.057 185.592C742.207 185.328 740.989 185.196 739.405 185.196H731.045L732.585 167.2H752.209V173.932H735.665L740.109 170.104L739.097 182.248L734.653 178.42H741.473C744.524 178.42 746.973 178.86 748.821 179.74C750.669 180.591 752.019 181.749 752.869 183.216C753.72 184.653 754.145 186.281 754.145 188.1C754.145 189.919 753.661 191.635 752.693 193.248C751.755 194.832 750.303 196.123 748.337 197.12C746.372 198.117 743.835 198.616 740.725 198.616ZM760.774 198L781.806 167.2H788.142L767.11 198H760.774ZM763.59 183.876C762.094 183.876 760.745 183.539 759.542 182.864C758.339 182.189 757.401 181.221 756.726 179.96C756.051 178.669 755.714 177.129 755.714 175.34C755.714 173.551 756.051 172.025 756.726 170.764C757.401 169.503 758.339 168.535 759.542 167.86C760.745 167.156 762.094 166.804 763.59 166.804C765.115 166.804 766.465 167.156 767.638 167.86C768.841 168.535 769.779 169.503 770.454 170.764C771.158 172.025 771.51 173.551 771.51 175.34C771.51 177.1 771.158 178.625 770.454 179.916C769.779 181.207 768.841 182.189 767.638 182.864C766.465 183.539 765.115 183.876 763.59 183.876ZM763.634 179.696C764.367 179.696 764.969 179.359 765.438 178.684C765.937 178.009 766.186 176.895 766.186 175.34C766.186 173.785 765.937 172.671 765.438 171.996C764.969 171.321 764.367 170.984 763.634 170.984C762.901 170.984 762.27 171.321 761.742 171.996C761.243 172.671 760.994 173.785 760.994 175.34C760.994 176.895 761.243 178.009 761.742 178.684C762.27 179.359 762.901 179.696 763.634 179.696ZM785.326 198.396C783.801 198.396 782.437 198.059 781.234 197.384C780.061 196.709 779.137 195.741 778.462 194.48C777.787 193.189 777.45 191.649 777.45 189.86C777.45 188.071 777.787 186.545 778.462 185.284C779.137 184.023 780.061 183.055 781.234 182.38C782.437 181.676 783.801 181.324 785.326 181.324C786.851 181.324 788.201 181.676 789.374 182.38C790.577 183.055 791.515 184.023 792.19 185.284C792.894 186.545 793.246 188.071 793.246 189.86C793.246 191.649 792.894 193.189 792.19 194.48C791.515 195.741 790.577 196.709 789.374 197.384C788.201 198.059 786.851 198.396 785.326 198.396ZM785.326 194.216C786.059 194.216 786.675 193.879 787.174 193.204C787.673 192.529 787.922 191.415 787.922 189.86C787.922 188.305 787.673 187.191 787.174 186.516C786.675 185.841 786.059 185.504 785.326 185.504C784.622 185.504 784.006 185.841 783.478 186.516C782.979 187.191 782.73 188.305 782.73 189.86C782.73 191.415 782.979 192.529 783.478 193.204C784.006 193.879 784.622 194.216 785.326 194.216ZM825.651 198.616C823.187 198.616 820.914 198.22 818.831 197.428C816.748 196.636 814.93 195.521 813.375 194.084C811.85 192.617 810.662 190.916 809.811 188.98C808.96 187.044 808.535 184.917 808.535 182.6C808.535 180.283 808.96 178.156 809.811 176.22C810.662 174.284 811.85 172.597 813.375 171.16C814.93 169.693 816.748 168.564 818.831 167.772C820.914 166.98 823.187 166.584 825.651 166.584C828.144 166.584 830.418 166.98 832.471 167.772C834.554 168.564 836.358 169.693 837.883 171.16C839.408 172.597 840.596 174.284 841.447 176.22C842.327 178.156 842.767 180.283 842.767 182.6C842.767 184.917 842.327 187.059 841.447 189.024C840.596 190.96 839.408 192.647 837.883 194.084C836.358 195.521 834.554 196.636 832.471 197.428C830.418 198.22 828.144 198.616 825.651 198.616ZM825.651 191.4C826.824 191.4 827.91 191.195 828.907 190.784C829.934 190.373 830.814 189.787 831.547 189.024C832.31 188.232 832.896 187.293 833.307 186.208C833.747 185.123 833.967 183.92 833.967 182.6C833.967 181.251 833.747 180.048 833.307 178.992C832.896 177.907 832.31 176.983 831.547 176.22C830.814 175.428 829.934 174.827 828.907 174.416C827.91 174.005 826.824 173.8 825.651 173.8C824.478 173.8 823.378 174.005 822.351 174.416C821.354 174.827 820.474 175.428 819.711 176.22C818.978 176.983 818.391 177.907 817.951 178.992C817.54 180.048 817.335 181.251 817.335 182.6C817.335 183.92 817.54 185.123 817.951 186.208C818.391 187.293 818.978 188.232 819.711 189.024C820.474 189.787 821.354 190.373 822.351 190.784C823.378 191.195 824.478 191.4 825.651 191.4ZM855.426 180.708H869.638V187.44H855.426V180.708ZM856.042 198H847.33V167.2H871.486V173.932H856.042V198ZM883.656 180.708H897.868V187.44H883.656V180.708ZM884.272 198H875.56V167.2H899.716V173.932H884.272V198Z" fill="white"/>
<rect y="69" width="901" height="62" rx="11" fill="url(#paint1_linear_180_183)"/>
<path d="M131.755 108.073V92.827H136.012V108.073H131.755ZM126.046 102.463V98.437H141.754V102.463H126.046ZM172.34 112V88.9H182.834C185.342 88.9 187.553 89.384 189.467 90.352C191.381 91.298 192.877 92.629 193.955 94.345C195.033 96.061 195.572 98.096 195.572 100.45C195.572 102.782 195.033 104.817 193.955 106.555C192.877 108.271 191.381 109.613 189.467 110.581C187.553 111.527 185.342 112 182.834 112H172.34ZM177.686 107.611H182.57C184.11 107.611 185.441 107.325 186.563 106.753C187.707 106.159 188.587 105.323 189.203 104.245C189.841 103.167 190.16 101.902 190.16 100.45C190.16 98.976 189.841 97.711 189.203 96.655C188.587 95.577 187.707 94.752 186.563 94.18C185.441 93.586 184.11 93.289 182.57 93.289H177.686V107.611ZM212.77 98.206H223.891V102.364H212.77V98.206ZM213.166 107.71H225.739V112H207.853V88.9H225.31V93.19H213.166V107.71ZM257.951 112V90.88L260.261 93.19H253.331V88.9H263.297V112H257.951ZM285.459 112.396C283.567 112.396 281.873 111.934 280.377 111.01C278.881 110.064 277.704 108.7 276.846 106.918C275.988 105.136 275.559 102.98 275.559 100.45C275.559 97.92 275.988 95.764 276.846 93.982C277.704 92.2 278.881 90.847 280.377 89.923C281.873 88.977 283.567 88.504 285.459 88.504C287.373 88.504 289.067 88.977 290.541 89.923C292.037 90.847 293.214 92.2 294.072 93.982C294.93 95.764 295.359 97.92 295.359 100.45C295.359 102.98 294.93 105.136 294.072 106.918C293.214 108.7 292.037 110.064 290.541 111.01C289.067 111.934 287.373 112.396 285.459 112.396ZM285.459 107.875C286.361 107.875 287.142 107.622 287.802 107.116C288.484 106.61 289.012 105.807 289.386 104.707C289.782 103.607 289.98 102.188 289.98 100.45C289.98 98.712 289.782 97.293 289.386 96.193C289.012 95.093 288.484 94.29 287.802 93.784C287.142 93.278 286.361 93.025 285.459 93.025C284.579 93.025 283.798 93.278 283.116 93.784C282.456 94.29 281.928 95.093 281.532 96.193C281.158 97.293 280.971 98.712 280.971 100.45C280.971 102.188 281.158 103.607 281.532 104.707C281.928 105.807 282.456 106.61 283.116 107.116C283.798 107.622 284.579 107.875 285.459 107.875ZM325.255 112V88.9H329.677L339.511 105.202H337.168L346.837 88.9H351.226L351.292 112H346.276L346.243 96.589H347.167L339.445 109.558H337.036L329.149 96.589H330.271V112H325.255ZM365.022 112V88.9H370.368V112H365.022ZM384.1 112V88.9H389.446V107.644H401.029V112H384.1ZM428.106 88.9H433.452V112H428.106V88.9ZM417.612 112H412.266V88.9H417.612V112ZM428.502 102.529H417.216V98.008H428.502V102.529ZM458.388 112.396C456.562 112.396 454.868 112.099 453.306 111.505C451.766 110.911 450.424 110.075 449.28 108.997C448.158 107.919 447.278 106.654 446.64 105.202C446.024 103.75 445.716 102.166 445.716 100.45C445.716 98.734 446.024 97.15 446.64 95.698C447.278 94.246 448.169 92.981 449.313 91.903C450.457 90.825 451.799 89.989 453.339 89.395C454.879 88.801 456.551 88.504 458.355 88.504C460.181 88.504 461.853 88.801 463.371 89.395C464.911 89.989 466.242 90.825 467.364 91.903C468.508 92.981 469.399 94.246 470.037 95.698C470.675 97.128 470.994 98.712 470.994 100.45C470.994 102.166 470.675 103.761 470.037 105.235C469.399 106.687 468.508 107.952 467.364 109.03C466.242 110.086 464.911 110.911 463.371 111.505C461.853 112.099 460.192 112.396 458.388 112.396ZM458.355 107.842C459.389 107.842 460.335 107.666 461.193 107.314C462.073 106.962 462.843 106.456 463.503 105.796C464.163 105.136 464.669 104.355 465.021 103.453C465.395 102.551 465.582 101.55 465.582 100.45C465.582 99.35 465.395 98.349 465.021 97.447C464.669 96.545 464.163 95.764 463.503 95.104C462.865 94.444 462.106 93.938 461.226 93.586C460.346 93.234 459.389 93.058 458.355 93.058C457.321 93.058 456.364 93.234 455.484 93.586C454.626 93.938 453.867 94.444 453.207 95.104C452.547 95.764 452.03 96.545 451.656 97.447C451.304 98.349 451.128 99.35 451.128 100.45C451.128 101.528 451.304 102.529 451.656 103.453C452.03 104.355 452.536 105.136 453.174 105.796C453.834 106.456 454.604 106.962 455.484 107.314C456.364 107.666 457.321 107.842 458.355 107.842ZM460.83 87.118C460.258 87.118 459.752 87.019 459.312 86.821C458.872 86.601 458.476 86.359 458.124 86.095C457.772 85.809 457.442 85.567 457.134 85.369C456.826 85.149 456.518 85.039 456.21 85.039C455.77 85.039 455.407 85.204 455.121 85.534C454.835 85.842 454.67 86.293 454.626 86.887H452.019C452.063 85.413 452.426 84.247 453.108 83.389C453.79 82.509 454.714 82.069 455.88 82.069C456.452 82.069 456.958 82.179 457.398 82.399C457.838 82.597 458.234 82.839 458.586 83.125C458.96 83.411 459.301 83.664 459.609 83.884C459.917 84.082 460.214 84.181 460.5 84.181C460.962 84.181 461.336 84.027 461.622 83.719C461.908 83.389 462.062 82.949 462.084 82.399H464.691C464.669 83.807 464.306 84.951 463.602 85.831C462.92 86.689 461.996 87.118 460.83 87.118ZM488.178 98.206H499.299V102.364H488.178V98.206ZM488.574 107.71H501.147V112H483.261V88.9H500.718V93.19H488.574V107.71ZM521.241 112.396C519.393 112.396 517.622 112.154 515.928 111.67C514.234 111.164 512.87 110.515 511.836 109.723L513.651 105.697C514.641 106.401 515.807 106.984 517.149 107.446C518.513 107.886 519.888 108.106 521.274 108.106C522.33 108.106 523.177 108.007 523.815 107.809C524.475 107.589 524.959 107.292 525.267 106.918C525.575 106.544 525.729 106.115 525.729 105.631C525.729 105.015 525.487 104.531 525.003 104.179C524.519 103.805 523.881 103.508 523.089 103.288C522.297 103.046 521.417 102.826 520.449 102.628C519.503 102.408 518.546 102.144 517.578 101.836C516.632 101.528 515.763 101.132 514.971 100.648C514.179 100.164 513.53 99.526 513.024 98.734C512.54 97.942 512.298 96.93 512.298 95.698C512.298 94.378 512.65 93.179 513.354 92.101C514.08 91.001 515.158 90.132 516.588 89.494C518.04 88.834 519.855 88.504 522.033 88.504C523.485 88.504 524.915 88.68 526.323 89.032C527.731 89.362 528.974 89.868 530.052 90.55L528.402 94.609C527.324 93.993 526.246 93.542 525.168 93.256C524.09 92.948 523.034 92.794 522 92.794C520.966 92.794 520.119 92.915 519.459 93.157C518.799 93.399 518.326 93.718 518.04 94.114C517.754 94.488 517.611 94.928 517.611 95.434C517.611 96.028 517.853 96.512 518.337 96.886C518.821 97.238 519.459 97.524 520.251 97.744C521.043 97.964 521.912 98.184 522.858 98.404C523.826 98.624 524.783 98.877 525.729 99.163C526.697 99.449 527.577 99.834 528.369 100.318C529.161 100.802 529.799 101.44 530.283 102.232C530.789 103.024 531.042 104.025 531.042 105.235C531.042 106.533 530.679 107.721 529.953 108.799C529.227 109.877 528.138 110.746 526.686 111.406C525.256 112.066 523.441 112.396 521.241 112.396ZM560.541 112V88.9H571.035C573.543 88.9 575.754 89.384 577.668 90.352C579.582 91.298 581.078 92.629 582.156 94.345C583.234 96.061 583.773 98.096 583.773 100.45C583.773 102.782 583.234 104.817 582.156 106.555C581.078 108.271 579.582 109.613 577.668 110.581C575.754 111.527 573.543 112 571.035 112H560.541ZM565.887 107.611H570.771C572.311 107.611 573.642 107.325 574.764 106.753C575.908 106.159 576.788 105.323 577.404 104.245C578.042 103.167 578.361 101.902 578.361 100.45C578.361 98.976 578.042 97.711 577.404 96.655C576.788 95.577 575.908 94.752 574.764 94.18C573.642 93.586 572.311 93.289 570.771 93.289H565.887V107.611ZM600.971 98.206H612.092V102.364H600.971V98.206ZM601.367 107.71H613.94V112H596.054V88.9H613.511V93.19H601.367V107.71ZM644.04 112V88.9H654.039C656.107 88.9 657.889 89.241 659.385 89.923C660.881 90.583 662.036 91.54 662.85 92.794C663.664 94.048 664.071 95.544 664.071 97.282C664.071 98.998 663.664 100.483 662.85 101.737C662.036 102.969 660.881 103.915 659.385 104.575C657.889 105.235 656.107 105.565 654.039 105.565H647.01L649.386 103.222V112H644.04ZM658.725 112L652.95 103.618H658.659L664.5 112H658.725ZM649.386 103.816L647.01 101.308H653.742C655.392 101.308 656.624 100.956 657.438 100.252C658.252 99.526 658.659 98.536 658.659 97.282C658.659 96.006 658.252 95.016 657.438 94.312C656.624 93.608 655.392 93.256 653.742 93.256H647.01L649.386 90.715V103.816ZM681.473 98.206H692.594V102.364H681.473V98.206ZM681.869 107.71H694.442V112H676.556V88.9H694.013V93.19H681.869V107.71ZM703.91 112L714.206 88.9H719.486L729.815 112H724.205L715.757 91.606H717.869L709.388 112H703.91ZM709.058 107.05L710.477 102.991H722.357L723.809 107.05H709.058ZM740.462 112V88.9H745.808V112H740.462ZM767.13 112.396C765.282 112.396 763.511 112.154 761.817 111.67C760.123 111.164 758.759 110.515 757.725 109.723L759.54 105.697C760.53 106.401 761.696 106.984 763.038 107.446C764.402 107.886 765.777 108.106 767.163 108.106C768.219 108.106 769.066 108.007 769.704 107.809C770.364 107.589 770.848 107.292 771.156 106.918C771.464 106.544 771.618 106.115 771.618 105.631C771.618 105.015 771.376 104.531 770.892 104.179C770.408 103.805 769.77 103.508 768.978 103.288C768.186 103.046 767.306 102.826 766.338 102.628C765.392 102.408 764.435 102.144 763.467 101.836C762.521 101.528 761.652 101.132 760.86 100.648C760.068 100.164 759.419 99.526 758.913 98.734C758.429 97.942 758.187 96.93 758.187 95.698C758.187 94.378 758.539 93.179 759.243 92.101C759.969 91.001 761.047 90.132 762.477 89.494C763.929 88.834 765.744 88.504 767.922 88.504C769.374 88.504 770.804 88.68 772.212 89.032C773.62 89.362 774.863 89.868 775.941 90.55L774.291 94.609C773.213 93.993 772.135 93.542 771.057 93.256C769.979 92.948 768.923 92.794 767.889 92.794C766.855 92.794 766.008 92.915 765.348 93.157C764.688 93.399 764.215 93.718 763.929 94.114C763.643 94.488 763.5 94.928 763.5 95.434C763.5 96.028 763.742 96.512 764.226 96.886C764.71 97.238 765.348 97.524 766.14 97.744C766.932 97.964 767.801 98.184 768.747 98.404C769.715 98.624 770.672 98.877 771.618 99.163C772.586 99.449 773.466 99.834 774.258 100.318C775.05 100.802 775.688 101.44 776.172 102.232C776.678 103.024 776.931 104.025 776.931 105.235C776.931 106.533 776.568 107.721 775.842 108.799C775.116 109.877 774.027 110.746 772.575 111.406C771.145 112.066 769.33 112.396 767.13 112.396Z" fill="white"/>
<defs>
<linearGradient id="paint0_linear_180_183" x1="322" y1="199" x2="568" y2="199" gradientUnits="userSpaceOnUse">
<stop stop-color="#F7AB27"/>
<stop offset="1" stop-color="#D08708"/>
</linearGradient>
<linearGradient id="paint1_linear_180_183" x1="0" y1="100" x2="901" y2="100" gradientUnits="userSpaceOnUse">
<stop stop-color="#F5A925"/>
<stop offset="1" stop-color="#DF910A"/>
</linearGradient>
</defs>
</svg>
