<svg width="571" height="116" viewBox="0 0 571 116" fill="none" xmlns="http://www.w3.org/2000/svg">
<path d="M14.3626 29.7775H32.627V38.429H14.3626V29.7775ZM15.1543 52H3.95821V12.4179H35.0019V21.0694H15.1543V52ZM50.5295 27.7418H68.9069V36.1106H50.5295V27.7418ZM51.3211 43.3485H72.0169V52H40.2381V12.4179H71.2818V21.0694H51.3211V43.3485ZM97.9644 52.7916C94.8355 52.7916 91.9328 52.3016 89.2563 51.3214C86.6175 50.3036 84.318 48.8711 82.3577 47.024C80.4351 45.1768 78.9273 43.0092 77.834 40.5212C76.7408 37.9955 76.1942 35.2247 76.1942 32.209C76.1942 29.1932 76.7408 26.4413 77.834 23.9533C78.9273 21.4275 80.4351 19.2411 82.3577 17.3939C84.318 15.5468 86.6175 14.1331 89.2563 13.153C91.9328 12.1352 94.8355 11.6263 97.9644 11.6263C101.621 11.6263 104.882 12.2671 107.747 13.5488C110.649 14.8305 113.062 16.6777 114.985 19.0903L107.86 25.5365C106.578 24.0287 105.165 22.8789 103.619 22.0872C102.111 21.2956 100.415 20.8998 98.5298 20.8998C96.9088 20.8998 95.4198 21.1637 94.0627 21.6914C92.7056 22.2192 91.537 22.992 90.5568 24.0098C89.6144 24.9899 88.8605 26.1774 88.295 27.5722C87.7673 28.967 87.5034 30.5126 87.5034 32.209C87.5034 33.9053 87.7673 35.4509 88.295 36.8457C88.8605 38.2405 89.6144 39.4468 90.5568 40.4646C91.537 41.4448 92.7056 42.1987 94.0627 42.7265C95.4198 43.2542 96.9088 43.5181 98.5298 43.5181C100.415 43.5181 102.111 43.1223 103.619 42.3307C105.165 41.539 106.578 40.3893 107.86 38.8814L114.985 45.3276C113.062 47.7025 110.649 49.5497 107.747 50.8691C104.882 52.1508 101.621 52.7916 97.9644 52.7916ZM146.44 12.4179H157.636V52H146.44V12.4179ZM131.173 52H119.977V12.4179H131.173V52ZM147.232 36.563H130.381V27.2895H147.232V36.563ZM160.784 52L178.256 12.4179H189.283L206.812 52H195.164L181.479 17.9029H185.89L172.206 52H160.784ZM170.34 44.3098L173.224 36.0541H192.562L195.446 44.3098H170.34ZM226.442 52V12.4179H235.659L252.057 39.3337H247.194L263.14 12.4179H272.357L272.47 52H262.179L262.066 28.0811H263.819L251.887 48.0983H246.911L234.641 28.0811H236.79V52H226.442ZM290.684 27.7418H309.061V36.1106H290.684V27.7418ZM291.475 43.3485H312.171V52H280.392V12.4179H311.436V21.0694H291.475V43.3485ZM283.955 9.19479L291.306 0.599825H300.579L307.93 9.19479H300.805L292.832 2.12656H299.052L291.079 9.19479H283.955ZM332.294 52.7916C329.052 52.7916 325.923 52.3958 322.908 51.6042C319.93 50.7748 317.498 49.7193 315.613 48.4376L319.289 40.1819C321.061 41.3128 323.096 42.2553 325.396 43.0092C327.733 43.7255 330.051 44.0836 332.351 44.0836C333.896 44.0836 335.14 43.9516 336.083 43.6878C337.025 43.3862 337.704 43.0092 338.119 42.5568C338.571 42.0668 338.797 41.5013 338.797 40.8605C338.797 39.9557 338.382 39.2395 337.553 38.7117C336.724 38.184 335.649 37.7504 334.33 37.4112C333.011 37.0719 331.54 36.7326 329.919 36.3933C328.336 36.0541 326.734 35.6206 325.113 35.0928C323.53 34.565 322.078 33.8865 320.759 33.0571C319.44 32.1901 318.365 31.078 317.536 29.7209C316.706 28.3261 316.292 26.5732 316.292 24.4622C316.292 22.0872 316.933 19.9385 318.214 18.0159C319.534 16.0934 321.494 14.5478 324.095 13.3792C326.696 12.2106 329.938 11.6263 333.821 11.6263C336.422 11.6263 338.967 11.9278 341.455 12.531C343.98 13.0965 346.223 13.9446 348.184 15.0756L344.734 23.3878C342.85 22.37 340.984 21.616 339.136 21.126C337.289 20.5982 335.499 20.3343 333.764 20.3343C332.219 20.3343 330.975 20.504 330.032 20.8432C329.09 21.1448 328.411 21.5595 327.997 22.0872C327.582 22.615 327.375 23.2182 327.375 23.8967C327.375 24.7637 327.771 25.4611 328.562 25.9889C329.392 26.479 330.466 26.8936 331.785 27.2329C333.142 27.5345 334.613 27.8549 336.196 28.1942C337.817 28.5335 339.419 28.967 341.002 29.4948C342.623 29.9848 344.094 30.6634 345.413 31.5304C346.732 32.3597 347.788 33.4718 348.58 34.8666C349.409 36.2237 349.824 37.9389 349.824 40.0123C349.824 42.3118 349.164 44.4417 347.844 46.402C346.563 48.3245 344.621 49.8701 342.02 51.0387C339.457 52.2073 336.215 52.7916 332.294 52.7916ZM369.472 52V44.9883L392.769 17.3374L394.126 21.2956H369.981V12.4179H404.078V19.4296L380.781 47.0805L379.424 43.1223H404.926V52H369.472ZM420.121 27.7418H438.498V36.1106H420.121V27.7418ZM420.912 43.3485H441.608V52H409.829V12.4179H440.873V21.0694H420.912V43.3485ZM447.821 52V12.4179H465.916C469.535 12.4179 472.645 13.0022 475.246 14.1708C477.885 15.3394 479.92 17.0358 481.353 19.26C482.785 21.4464 483.501 24.0475 483.501 27.0633C483.501 30.0414 482.785 32.6236 481.353 34.8101C479.92 36.9588 477.885 38.6175 475.246 39.7861C472.645 40.917 469.535 41.4825 465.916 41.4825H454.041L459.017 36.7892V52H447.821ZM472.305 52L462.466 37.5808H474.398L484.293 52H472.305ZM459.017 37.9766L454.041 32.831H465.237C467.574 32.831 469.308 32.322 470.439 31.3042C471.608 30.2864 472.192 28.8727 472.192 27.0633C472.192 25.2161 471.608 23.7836 470.439 22.7658C469.308 21.748 467.574 21.2391 465.237 21.2391H454.041L459.017 16.0934V37.9766ZM509.639 52.7916C506.472 52.7916 503.551 52.2827 500.874 51.2649C498.198 50.2471 495.861 48.8146 493.863 46.9674C491.902 45.0826 490.376 42.8961 489.282 40.4081C488.189 37.9201 487.643 35.187 487.643 32.209C487.643 29.2309 488.189 26.4978 489.282 24.0098C490.376 21.5218 491.902 19.3542 493.863 17.507C495.861 15.6222 498.198 14.1708 500.874 13.153C503.551 12.1352 506.472 11.6263 509.639 11.6263C512.843 11.6263 515.765 12.1352 518.403 13.153C521.08 14.1708 523.398 15.6222 525.359 17.507C527.319 19.3542 528.846 21.5218 529.939 24.0098C531.07 26.4978 531.635 29.2309 531.635 32.209C531.635 35.187 531.07 37.9389 529.939 40.4646C528.846 42.9527 527.319 45.1203 525.359 46.9674C523.398 48.8146 521.08 50.2471 518.403 51.2649C515.765 52.2827 512.843 52.7916 509.639 52.7916ZM509.639 43.5181C511.147 43.5181 512.542 43.2542 513.823 42.7265C515.143 42.1987 516.274 41.4448 517.216 40.4646C518.196 39.4468 518.95 38.2405 519.478 36.8457C520.043 35.4509 520.326 33.9053 520.326 32.209C520.326 30.4749 520.043 28.9293 519.478 27.5722C518.95 26.1774 518.196 24.9899 517.216 24.0098C516.274 22.992 515.143 22.2192 513.823 21.6914C512.542 21.1637 511.147 20.8998 509.639 20.8998C508.131 20.8998 506.717 21.1637 505.398 21.6914C504.116 22.2192 502.985 22.992 502.005 24.0098C501.063 24.9899 500.309 26.1774 499.743 27.5722C499.216 28.9293 498.952 30.4749 498.952 32.209C498.952 33.9053 499.216 35.4509 499.743 36.8457C500.309 38.2405 501.063 39.4468 502.005 40.4646C502.985 41.4448 504.116 42.1987 505.398 42.7265C506.717 43.2542 508.131 43.5181 509.639 43.5181ZM541.457 52L556.894 16.5458L559.891 21.2956H539.818L544.398 16.1499V27.4026H534.842V12.4179H567.638V19.4296L553.671 52H541.457Z" fill="white"/>
<path d="M12.4885 101.253C9.57977 101.253 7.29285 100.42 5.62772 98.7552C3.96259 97.0901 3.13002 94.6556 3.13002 91.4518V78.8685H6.29166V91.3254C6.29166 93.7915 6.82914 95.5936 7.9041 96.7318C9.00014 97.87 10.5388 98.4391 12.5201 98.4391C14.5225 98.4391 16.0611 97.87 17.1361 96.7318C18.2321 95.5936 18.7801 93.7915 18.7801 91.3254V78.8685H21.8469V91.4518C21.8469 94.6556 21.0144 97.0901 19.3492 98.7552C17.7052 100.42 15.4183 101.253 12.4885 101.253ZM10.1489 77.0664L14.4487 72.9563H18.3059L12.9943 77.0664H10.1489ZM27.8862 101V77.5406H30.9213V101H27.8862ZM42.903 101.19C41.2168 101.19 39.9099 100.737 38.9825 99.8302C38.0551 98.9239 37.5914 97.6276 37.5914 95.9414V80.5758H40.6266V95.8149C40.6266 96.7212 40.8479 97.4168 41.2905 97.9016C41.7542 98.3864 42.4076 98.6288 43.2507 98.6288C44.1992 98.6288 44.9896 98.3653 45.622 97.8384L46.5705 100.02C46.1068 100.42 45.5482 100.715 44.8948 100.905C44.2625 101.095 43.5985 101.19 42.903 101.19ZM34.7459 86.741V84.2433H45.4323V86.741H34.7459ZM50.2399 101V84.2433H53.2751V101H50.2399ZM51.7575 81.0184C51.1674 81.0184 50.672 80.8287 50.2716 80.4493C49.8922 80.0699 49.7025 79.6062 49.7025 79.0582C49.7025 78.4891 49.8922 78.0149 50.2716 77.6355C50.672 77.2561 51.1674 77.0664 51.7575 77.0664C52.3477 77.0664 52.8325 77.2561 53.2119 77.6355C53.6124 77.9938 53.8126 78.447 53.8126 78.995C53.8126 79.5641 53.6229 80.0489 53.2435 80.4493C52.8641 80.8287 52.3688 81.0184 51.7575 81.0184ZM80.032 84.0852C81.3809 84.0852 82.5718 84.3487 83.6046 84.8756C84.6374 85.4026 85.4384 86.2035 86.0075 87.2785C86.5977 88.3534 86.8927 89.7129 86.8927 91.357V101H83.8576V91.7048C83.8576 90.0818 83.4782 88.8593 82.7194 88.0373C81.9606 87.2152 80.8962 86.8042 79.5261 86.8042C78.5144 86.8042 77.6291 87.015 76.8703 87.4366C76.1115 87.8581 75.5214 88.4799 75.0998 89.3019C74.6993 90.124 74.4991 91.1462 74.4991 92.3687V101H71.4639V91.7048C71.4639 90.0818 71.0845 88.8593 70.3257 88.0373C69.588 87.2152 68.5236 86.8042 67.1325 86.8042C66.1418 86.8042 65.2671 87.015 64.5083 87.4366C63.7495 87.8581 63.1594 88.4799 62.7378 89.3019C62.3163 90.124 62.1055 91.1462 62.1055 92.3687V101H59.0703V84.2433H61.979V88.7012L61.5048 87.563C62.0317 86.467 62.8432 85.6134 63.9392 85.0021C65.0353 84.3908 66.3105 84.0852 67.7648 84.0852C69.3667 84.0852 70.7473 84.4857 71.9066 85.2866C73.0658 86.0665 73.8246 87.2574 74.1829 88.8593L72.9499 88.3534C73.4558 87.0677 74.341 86.0349 75.6057 85.255C76.8703 84.4752 78.3458 84.0852 80.032 84.0852ZM102.879 101V97.459L102.721 96.795V90.7563C102.721 89.4706 102.342 88.4799 101.583 87.7843C100.845 87.0677 99.7282 86.7094 98.2317 86.7094C97.241 86.7094 96.2714 86.878 95.323 87.2152C94.3745 87.5314 93.5735 87.9635 92.9201 88.5115L91.6555 86.2351C92.5196 85.5396 93.5524 85.0126 94.7539 84.6543C95.9764 84.2749 97.2516 84.0852 98.5794 84.0852C100.877 84.0852 102.647 84.6438 103.891 85.7609C105.135 86.878 105.756 88.5853 105.756 90.8828V101H102.879ZM97.378 101.19C96.1344 101.19 95.0384 100.979 94.0899 100.557C93.1625 100.136 92.4459 99.5562 91.94 98.8185C91.4341 98.0597 91.1812 97.206 91.1812 96.2575C91.1812 95.3512 91.392 94.5292 91.8135 93.7915C92.2562 93.0537 92.9623 92.4636 93.9318 92.0209C94.9225 91.5783 96.2504 91.357 97.9155 91.357H103.227V93.5385H98.042C96.5244 93.5385 95.5021 93.7915 94.9752 94.2973C94.4482 94.8032 94.1848 95.4144 94.1848 96.1311C94.1848 96.9531 94.5115 97.617 95.1649 98.1229C95.8183 98.6077 96.7246 98.8501 97.8839 98.8501C99.0221 98.8501 100.013 98.5972 100.856 98.0913C101.72 97.5854 102.342 96.8477 102.721 95.8781L103.322 97.9648C102.921 98.9555 102.215 99.7459 101.204 100.336C100.192 100.905 98.9167 101.19 97.378 101.19ZM116.179 101.19C114.788 101.19 113.46 101 112.195 100.621C110.952 100.241 109.972 99.7775 109.255 99.2295L110.52 96.8266C111.236 97.3114 112.121 97.7224 113.175 98.0597C114.229 98.3969 115.304 98.5655 116.4 98.5655C117.812 98.5655 118.824 98.3653 119.435 97.9648C120.068 97.5644 120.384 97.0058 120.384 96.2892C120.384 95.7622 120.194 95.3512 119.815 95.0561C119.435 94.761 118.93 94.5397 118.297 94.3922C117.686 94.2446 117.001 94.1182 116.242 94.0128C115.483 93.8863 114.725 93.7388 113.966 93.5701C113.207 93.3804 112.511 93.1275 111.879 92.8114C111.247 92.4741 110.741 92.0209 110.361 91.4518C109.982 90.8617 109.792 90.0818 109.792 89.1122C109.792 88.1005 110.077 87.2152 110.646 86.4565C111.215 85.6977 112.016 85.118 113.049 84.7176C114.103 84.296 115.346 84.0852 116.78 84.0852C117.876 84.0852 118.982 84.2222 120.099 84.4962C121.238 84.7492 122.165 85.118 122.882 85.6028L121.585 88.0057C120.827 87.4998 120.036 87.152 119.214 86.9623C118.392 86.7726 117.57 86.6778 116.748 86.6778C115.42 86.6778 114.429 86.8991 113.776 87.3417C113.123 87.7633 112.796 88.3113 112.796 88.9858C112.796 89.5549 112.986 89.9975 113.365 90.3137C113.766 90.6087 114.271 90.8406 114.883 91.0092C115.515 91.1778 116.211 91.3254 116.969 91.4518C117.728 91.5572 118.487 91.7048 119.246 91.8945C120.004 92.0631 120.69 92.3055 121.301 92.6217C121.933 92.9378 122.439 93.3804 122.818 93.9495C123.219 94.5186 123.419 95.2774 123.419 96.2259C123.419 97.2376 123.124 98.1124 122.534 98.8501C121.944 99.5878 121.111 100.167 120.036 100.589C118.961 100.989 117.675 101.19 116.179 101.19ZM144.65 84.0852C146.021 84.0852 147.222 84.3487 148.255 84.8756C149.309 85.4026 150.131 86.2035 150.721 87.2785C151.311 88.3534 151.606 89.7129 151.606 91.357V101H148.571V91.7048C148.571 90.0818 148.17 88.8593 147.369 88.0373C146.59 87.2152 145.483 86.8042 144.05 86.8042C142.975 86.8042 142.037 87.015 141.236 87.4366C140.435 87.8581 139.813 88.4799 139.371 89.3019C138.949 90.124 138.738 91.1462 138.738 92.3687V101H135.703V77.5406H138.738V88.7645L138.137 87.563C138.686 86.467 139.529 85.6134 140.667 85.0021C141.805 84.3908 143.133 84.0852 144.65 84.0852ZM164.4 101.19C162.714 101.19 161.217 100.821 159.911 100.083C158.604 99.3454 157.571 98.3337 156.812 97.0479C156.053 95.7411 155.674 94.2657 155.674 92.6217C155.674 90.9565 156.053 89.4811 156.812 88.1954C157.571 86.9096 158.604 85.9084 159.911 85.1918C161.217 84.4541 162.714 84.0852 164.4 84.0852C166.065 84.0852 167.551 84.4541 168.858 85.1918C170.186 85.9084 171.219 86.9096 171.956 88.1954C172.715 89.46 173.095 90.9354 173.095 92.6217C173.095 94.2868 172.715 95.7622 171.956 97.0479C171.219 98.3337 170.186 99.3454 168.858 100.083C167.551 100.821 166.065 101.19 164.4 101.19ZM164.4 98.5339C165.475 98.5339 166.434 98.2915 167.277 97.8067C168.141 97.322 168.816 96.6369 169.301 95.7517C169.785 94.8453 170.028 93.802 170.028 92.6217C170.028 91.4202 169.785 90.3874 169.301 89.5232C168.816 88.638 168.141 87.953 167.277 87.4682C166.434 86.9834 165.475 86.741 164.4 86.741C163.325 86.741 162.366 86.9834 161.523 87.4682C160.68 87.953 160.005 88.638 159.5 89.5232C158.994 90.3874 158.741 91.4202 158.741 92.6217C158.741 93.802 158.994 94.8453 159.5 95.7517C160.005 96.6369 160.68 97.322 161.523 97.8067C162.366 98.2915 163.325 98.5339 164.4 98.5339ZM177.292 101V84.2433H180.201V88.7961L179.916 87.6579C180.38 86.4986 181.16 85.6134 182.256 85.0021C183.352 84.3908 184.701 84.0852 186.303 84.0852V87.0255C186.176 87.0045 186.05 86.9939 185.923 86.9939C185.818 86.9939 185.713 86.9939 185.607 86.9939C183.984 86.9939 182.699 87.4787 181.75 88.4483C180.802 89.4179 180.327 90.8195 180.327 92.6533V101H177.292ZM199.21 101V97.459L199.052 96.795V90.7563C199.052 89.4706 198.673 88.4799 197.914 87.7843C197.177 87.0677 196.059 86.7094 194.563 86.7094C193.572 86.7094 192.603 86.878 191.654 87.2152C190.706 87.5314 189.905 87.9635 189.251 88.5115L187.987 86.2351C188.851 85.5396 189.884 85.0126 191.085 84.6543C192.308 84.2749 193.583 84.0852 194.911 84.0852C197.208 84.0852 198.979 84.6438 200.222 85.7609C201.466 86.878 202.088 88.5853 202.088 90.8828V101H199.21ZM193.709 101.19C192.466 101.19 191.37 100.979 190.421 100.557C189.494 100.136 188.777 99.5562 188.271 98.8185C187.765 98.0597 187.512 97.206 187.512 96.2575C187.512 95.3512 187.723 94.5292 188.145 93.7915C188.587 93.0537 189.293 92.4636 190.263 92.0209C191.254 91.5783 192.582 91.357 194.247 91.357H199.558V93.5385H194.373C192.856 93.5385 191.833 93.7915 191.306 94.2973C190.779 94.8032 190.516 95.4144 190.516 96.1311C190.516 96.9531 190.843 97.617 191.496 98.1229C192.15 98.6077 193.056 98.8501 194.215 98.8501C195.353 98.8501 196.344 98.5972 197.187 98.0913C198.051 97.5854 198.673 96.8477 199.052 95.8781L199.653 97.9648C199.253 98.9555 198.547 99.7459 197.535 100.336C196.523 100.905 195.248 101.19 193.709 101.19ZM212.51 101.19C211.119 101.19 209.791 101 208.526 100.621C207.283 100.241 206.303 99.7775 205.586 99.2295L206.851 96.8266C207.567 97.3114 208.453 97.7224 209.507 98.0597C210.56 98.3969 211.635 98.5655 212.731 98.5655C214.144 98.5655 215.155 98.3653 215.767 97.9648C216.399 97.5644 216.715 97.0058 216.715 96.2892C216.715 95.7622 216.525 95.3512 216.146 95.0561C215.767 94.761 215.261 94.5397 214.628 94.3922C214.017 94.2446 213.332 94.1182 212.573 94.0128C211.815 93.8863 211.056 93.7388 210.297 93.5701C209.538 93.3804 208.843 93.1275 208.21 92.8114C207.578 92.4741 207.072 92.0209 206.693 91.4518C206.313 90.8617 206.124 90.0818 206.124 89.1122C206.124 88.1005 206.408 87.2152 206.977 86.4565C207.546 85.6977 208.347 85.118 209.38 84.7176C210.434 84.296 211.678 84.0852 213.111 84.0852C214.207 84.0852 215.313 84.2222 216.431 84.4962C217.569 84.7492 218.496 85.118 219.213 85.6028L217.917 88.0057C217.158 87.4998 216.367 87.152 215.545 86.9623C214.723 86.7726 213.901 86.6778 213.079 86.6778C211.751 86.6778 210.761 86.8991 210.107 87.3417C209.454 87.7633 209.127 88.3113 209.127 88.9858C209.127 89.5549 209.317 89.9975 209.696 90.3137C210.097 90.6087 210.603 90.8406 211.214 91.0092C211.846 91.1778 212.542 91.3254 213.301 91.4518C214.059 91.5572 214.818 91.7048 215.577 91.8945C216.336 92.0631 217.021 92.3055 217.632 92.6217C218.264 92.9378 218.77 93.3804 219.15 93.9495C219.55 94.5186 219.75 95.2774 219.75 96.2259C219.75 97.2376 219.455 98.1124 218.865 98.8501C218.275 99.5878 217.442 100.167 216.367 100.589C215.292 100.989 214.007 101.19 212.51 101.19Z" fill="white"/>
<g filter="url(#filter0_d_237_17)">
<path d="M237.821 102.443C236.303 102.443 234.775 102.253 233.237 101.874C231.698 101.494 230.37 100.957 229.253 100.261L231.498 95.5503C232.404 96.1404 233.384 96.5936 234.438 96.9098C235.513 97.2259 236.577 97.384 237.631 97.384C238.685 97.384 239.539 97.1838 240.192 96.7833C240.846 96.3617 241.172 95.7821 241.172 95.0444C241.172 94.6018 241.046 94.2118 240.793 93.8746C240.54 93.5163 240.108 93.2528 239.497 93.0842C238.885 92.8945 238.011 92.7996 236.872 92.7996H230.865L231.972 79.8685H246.073V84.7058H234.185L237.378 81.9552L236.651 90.6813L233.458 87.9307H238.358C240.551 87.9307 242.311 88.2469 243.638 88.8792C244.966 89.4904 245.936 90.323 246.547 91.3769C247.158 92.4097 247.464 93.5795 247.464 94.8863C247.464 96.1931 247.116 97.4262 246.421 98.5854C245.746 99.7236 244.703 100.651 243.291 101.368C241.878 102.084 240.055 102.443 237.821 102.443ZM259.049 102.443C257.152 102.443 255.466 101.989 253.99 101.083C252.536 100.177 251.387 98.87 250.544 97.1627C249.701 95.4554 249.279 93.3793 249.279 90.9343C249.279 88.4893 249.701 86.4131 250.544 84.7058C251.387 82.9985 252.536 81.6917 253.99 80.7854C255.466 79.8791 257.152 79.4259 259.049 79.4259C260.925 79.4259 262.59 79.8791 264.044 80.7854C265.52 81.6917 266.679 82.9985 267.522 84.7058C268.365 86.4131 268.787 88.4893 268.787 90.9343C268.787 93.3793 268.365 95.4554 267.522 97.1627C266.679 98.87 265.52 100.177 264.044 101.083C262.59 101.989 260.925 102.443 259.049 102.443ZM259.049 97.3208C259.723 97.3208 260.314 97.11 260.819 96.6884C261.346 96.2669 261.757 95.5924 262.052 94.665C262.348 93.7165 262.495 92.4729 262.495 90.9343C262.495 89.3745 262.348 88.1309 262.052 87.2035C261.757 86.2761 261.346 85.6016 260.819 85.1801C260.314 84.7585 259.723 84.5477 259.049 84.5477C258.374 84.5477 257.774 84.7585 257.247 85.1801C256.741 85.6016 256.33 86.2761 256.014 87.2035C255.719 88.1309 255.571 89.3745 255.571 90.9343C255.571 92.4729 255.719 93.7165 256.014 94.665C256.33 95.5924 256.741 96.2669 257.247 96.6884C257.774 97.11 258.374 97.3208 259.049 97.3208ZM274.18 102L289.292 79.8685H293.845L278.732 102H274.18ZM276.203 91.8511C275.128 91.8511 274.159 91.6087 273.294 91.124C272.43 90.6392 271.756 89.9436 271.271 89.0373C270.786 88.1099 270.544 87.0033 270.544 85.7176C270.544 84.4318 270.786 83.3358 271.271 82.4294C271.756 81.5231 272.43 80.8275 273.294 80.3428C274.159 79.8369 275.128 79.584 276.203 79.584C277.299 79.584 278.269 79.8369 279.112 80.3428C279.976 80.8275 280.65 81.5231 281.135 82.4294C281.641 83.3358 281.894 84.4318 281.894 85.7176C281.894 86.9822 281.641 88.0782 281.135 89.0057C280.65 89.9331 279.976 90.6392 279.112 91.124C278.269 91.6087 277.299 91.8511 276.203 91.8511ZM276.235 88.8476C276.762 88.8476 277.194 88.6052 277.531 88.1204C277.889 87.6356 278.068 86.8347 278.068 85.7176C278.068 84.6004 277.889 83.7995 277.531 83.3147C277.194 82.8299 276.762 82.5875 276.235 82.5875C275.708 82.5875 275.255 82.8299 274.875 83.3147C274.517 83.7995 274.338 84.6004 274.338 85.7176C274.338 86.8347 274.517 87.6356 274.875 88.1204C275.255 88.6052 275.708 88.8476 276.235 88.8476ZM291.822 102.285C290.726 102.285 289.745 102.042 288.881 101.557C288.038 101.073 287.374 100.377 286.889 99.4707C286.405 98.5433 286.162 97.4367 286.162 96.151C286.162 94.8652 286.405 93.7692 286.889 92.8629C287.374 91.9565 288.038 91.261 288.881 90.7762C289.745 90.2703 290.726 90.0174 291.822 90.0174C292.918 90.0174 293.887 90.2703 294.73 90.7762C295.594 91.261 296.269 91.9565 296.754 92.8629C297.26 93.7692 297.512 94.8652 297.512 96.151C297.512 97.4367 297.26 98.5433 296.754 99.4707C296.269 100.377 295.594 101.073 294.73 101.557C293.887 102.042 292.918 102.285 291.822 102.285ZM291.822 99.281C292.348 99.281 292.791 99.0386 293.149 98.5538C293.508 98.069 293.687 97.2681 293.687 96.151C293.687 95.0339 293.508 94.2329 293.149 93.7481C292.791 93.2633 292.348 93.0209 291.822 93.0209C291.316 93.0209 290.873 93.2633 290.494 93.7481C290.135 94.2329 289.956 95.0339 289.956 96.151C289.956 97.2681 290.135 98.069 290.494 98.5538C290.873 99.0386 291.316 99.281 291.822 99.281ZM320.797 102.443C319.027 102.443 317.393 102.158 315.897 101.589C314.4 101.02 313.093 100.219 311.976 99.1861C310.88 98.1323 310.027 96.9098 309.415 95.5186C308.804 94.1275 308.498 92.5994 308.498 90.9343C308.498 89.2691 308.804 87.741 309.415 86.3499C310.027 84.9588 310.88 83.7468 311.976 82.714C313.093 81.6601 314.4 80.8486 315.897 80.2795C317.393 79.7104 319.027 79.4259 320.797 79.4259C322.589 79.4259 324.222 79.7104 325.698 80.2795C327.194 80.8486 328.491 81.6601 329.587 82.714C330.683 83.7468 331.536 84.9588 332.148 86.3499C332.78 87.741 333.096 89.2691 333.096 90.9343C333.096 92.5994 332.78 94.1381 332.148 95.5503C331.536 96.9414 330.683 98.1533 329.587 99.1861C328.491 100.219 327.194 101.02 325.698 101.589C324.222 102.158 322.589 102.443 320.797 102.443ZM320.797 97.2575C321.64 97.2575 322.42 97.11 323.137 96.8149C323.875 96.5198 324.507 96.0983 325.034 95.5503C325.582 94.9812 326.003 94.3067 326.298 93.5268C326.615 92.7469 326.773 91.8828 326.773 90.9343C326.773 89.9647 326.615 89.1005 326.298 88.3417C326.003 87.5618 325.582 86.8979 325.034 86.3499C324.507 85.7808 323.875 85.3487 323.137 85.0536C322.42 84.7585 321.64 84.611 320.797 84.611C319.954 84.611 319.164 84.7585 318.426 85.0536C317.709 85.3487 317.077 85.7808 316.529 86.3499C316.002 86.8979 315.581 87.5618 315.264 88.3417C314.969 89.1005 314.822 89.9647 314.822 90.9343C314.822 91.8828 314.969 92.7469 315.264 93.5268C315.581 94.3067 316.002 94.9812 316.529 95.5503C317.077 96.0983 317.709 96.5198 318.426 96.8149C319.164 97.11 319.954 97.2575 320.797 97.2575ZM342.192 89.5748H352.404V94.4121H342.192V89.5748ZM342.635 102H336.375V79.8685H353.732V84.7058H342.635V102ZM362.477 89.5748H372.689V94.4121H362.477V89.5748ZM362.92 102H356.66V79.8685H374.017V84.7058H362.92V102Z" fill="#10B579"/>
</g>
<g filter="url(#filter1_d_237_17)">
<path d="M505.639 91.5188C489.386 91.5188 473.357 90.0775 457.161 89.2806C448.505 88.8547 439.826 88.3161 431.147 88.2563C426.767 88.226 422.394 88.4119 418.021 88.1274C414.413 87.8928 408.368 89.045 405.261 87.4829C409.248 85.2203 413.914 83.085 418.109 81.1677C425.201 77.9266 417.435 78.4024 413.891 79.8304C408.868 81.8537 404.121 84.0558 398.804 85.1366C396.43 85.6191 388.559 85.4221 389.019 89.3528C389.364 92.2991 397.765 96.4241 400.036 98.0016C403.543 100.437 408.306 105.855 412.433 106.822C418.001 108.126 411.071 101.886 409.797 100.76C406.475 97.8263 401.635 94.2966 398.966 90.7582C401.726 89.924 406.333 90.9278 409.221 91.0859C414.093 91.3524 418.973 91.7812 423.84 91.9733C431.697 92.2835 439.526 92.8747 447.375 93.5704C464.503 95.0883 481.794 96.561 498.98 96.7206C514.931 96.8686 531.839 97.4904 547.326 92.9139C552.974 91.2448 564.938 87.3221 561.336 78.7253C558.262 71.3886 546.575 69.4997 540.053 68.2364C531.672 66.6131 522.955 66.1527 514.381 66.0005C512.662 65.9699 489.676 67.487 490.581 70.276C490.974 71.4874 500.852 69.5967 502.287 69.4464C508.257 68.8207 514.361 69.5342 520.318 69.8171C530.94 70.3217 545.468 70.9548 554.515 77.6311C564.404 84.9281 544.079 88.9067 539.53 89.582C528.299 91.2494 517.008 91.5188 505.639 91.5188Z" fill="#10B579"/>
</g>
<defs>
<filter id="filter0_d_237_17" x="220.953" y="71.1258" width="161.364" height="39.6166" filterUnits="userSpaceOnUse" color-interpolation-filters="sRGB">
<feFlood flood-opacity="0" result="BackgroundImageFix"/>
<feColorMatrix in="SourceAlpha" type="matrix" values="0 0 0 0 0 0 0 0 0 0 0 0 0 0 0 0 0 0 127 0" result="hardAlpha"/>
<feOffset/>
<feGaussianBlur stdDeviation="4.15"/>
<feComposite in2="hardAlpha" operator="out"/>
<feColorMatrix type="matrix" values="0 0 0 0 0.0627451 0 0 0 0 0.709804 0 0 0 0 0.47451 0 0 0 0.25 0"/>
<feBlend mode="normal" in2="BackgroundImageFix" result="effect1_dropShadow_237_17"/>
<feBlend mode="normal" in="SourceGraphic" in2="effect1_dropShadow_237_17" result="shape"/>
</filter>
<filter id="filter1_d_237_17" x="380.7" y="57.7" width="189.6" height="57.6" filterUnits="userSpaceOnUse" color-interpolation-filters="sRGB">
<feFlood flood-opacity="0" result="BackgroundImageFix"/>
<feColorMatrix in="SourceAlpha" type="matrix" values="0 0 0 0 0 0 0 0 0 0 0 0 0 0 0 0 0 0 127 0" result="hardAlpha"/>
<feOffset/>
<feGaussianBlur stdDeviation="4.15"/>
<feComposite in2="hardAlpha" operator="out"/>
<feColorMatrix type="matrix" values="0 0 0 0 0.0627451 0 0 0 0 0.709804 0 0 0 0 0.47451 0 0 0 1 0"/>
<feBlend mode="normal" in2="BackgroundImageFix" result="effect1_dropShadow_237_17"/>
<feBlend mode="normal" in="SourceGraphic" in2="effect1_dropShadow_237_17" result="shape"/>
</filter>
</defs>
</svg>
