<svg width="725" height="192" viewBox="0 0 725 192" fill="none" xmlns="http://www.w3.org/2000/svg">
<path d="M0.09 60L20.175 14.5H32.85L53 60H39.61L23.88 20.805H28.95L13.22 60H0.09ZM11.075 51.16L14.39 41.67H36.62L39.935 51.16H11.075ZM64.0485 60V24.705H50.0735V14.5H90.8285V24.705H76.9185V60H64.0485ZM107.453 32.115H128.578V41.735H107.453V32.115ZM108.363 50.055H132.153V60H95.6232V14.5H131.308V24.445H108.363V50.055ZM107.128 10.795L115.838 0.914997H128.188L115.968 10.795H107.128ZM171.796 60.91C168.676 60.91 165.534 60.52 162.371 59.74C159.208 58.96 156.478 57.855 154.181 56.425L158.796 46.74C160.659 47.9533 162.674 48.885 164.841 49.535C167.051 50.185 169.239 50.51 171.406 50.51C173.573 50.51 175.328 50.0983 176.671 49.275C178.014 48.4083 178.686 47.2167 178.686 45.7C178.686 44.79 178.426 43.9883 177.906 43.295C177.386 42.5583 176.498 42.0167 175.241 41.67C173.984 41.28 172.186 41.085 169.846 41.085H157.496L159.771 14.5H188.761V24.445H164.321L170.886 18.79L169.391 36.73L162.826 31.075H172.901C177.408 31.075 181.026 31.725 183.756 33.025C186.486 34.2817 188.479 35.9933 189.736 38.16C190.993 40.2833 191.621 42.6883 191.621 45.375C191.621 48.0617 190.906 50.5967 189.476 52.98C188.089 55.32 185.944 57.2267 183.041 58.7C180.138 60.1733 176.389 60.91 171.796 60.91ZM201.545 60L219.29 19.245L222.735 24.705H199.66L204.925 18.79V31.725H193.94V14.5H231.64V22.56L215.585 60H201.545ZM242.864 60L273.934 14.5H283.294L252.224 60H242.864ZM247.024 39.135C244.814 39.135 242.821 38.6367 241.044 37.64C239.267 36.6433 237.881 35.2133 236.884 33.35C235.887 31.4433 235.389 29.1683 235.389 26.525C235.389 23.8817 235.887 21.6283 236.884 19.765C237.881 17.9017 239.267 16.4717 241.044 15.475C242.821 14.435 244.814 13.915 247.024 13.915C249.277 13.915 251.271 14.435 253.004 15.475C254.781 16.4717 256.167 17.9017 257.164 19.765C258.204 21.6283 258.724 23.8817 258.724 26.525C258.724 29.125 258.204 31.3783 257.164 33.285C256.167 35.1917 254.781 36.6433 253.004 37.64C251.271 38.6367 249.277 39.135 247.024 39.135ZM247.089 32.96C248.172 32.96 249.061 32.4617 249.754 31.465C250.491 30.4683 250.859 28.8217 250.859 26.525C250.859 24.2283 250.491 22.5817 249.754 21.585C249.061 20.5883 248.172 20.09 247.089 20.09C246.006 20.09 245.074 20.5883 244.294 21.585C243.557 22.5817 243.189 24.2283 243.189 26.525C243.189 28.8217 243.557 30.4683 244.294 31.465C245.074 32.4617 246.006 32.96 247.089 32.96ZM279.134 60.585C276.881 60.585 274.866 60.0867 273.089 59.09C271.356 58.0933 269.991 56.6633 268.994 54.8C267.997 52.8933 267.499 50.6183 267.499 47.975C267.499 45.3317 267.997 43.0783 268.994 41.215C269.991 39.3517 271.356 37.9217 273.089 36.925C274.866 35.885 276.881 35.365 279.134 35.365C281.387 35.365 283.381 35.885 285.114 36.925C286.891 37.9217 288.277 39.3517 289.274 41.215C290.314 43.0783 290.834 45.3317 290.834 47.975C290.834 50.6183 290.314 52.8933 289.274 54.8C288.277 56.6633 286.891 58.0933 285.114 59.09C283.381 60.0867 281.387 60.585 279.134 60.585ZM279.134 54.41C280.217 54.41 281.127 53.9117 281.864 52.915C282.601 51.9183 282.969 50.2717 282.969 47.975C282.969 45.6783 282.601 44.0317 281.864 43.035C281.127 42.0383 280.217 41.54 279.134 41.54C278.094 41.54 277.184 42.0383 276.404 43.035C275.667 44.0317 275.299 45.6783 275.299 47.975C275.299 50.2717 275.667 51.9183 276.404 52.915C277.184 53.9117 278.094 54.41 279.134 54.41ZM338.705 60.91C335.065 60.91 331.707 60.325 328.63 59.155C325.553 57.985 322.867 56.3383 320.57 54.215C318.317 52.0483 316.562 49.535 315.305 46.675C314.048 43.815 313.42 40.6733 313.42 37.25C313.42 33.8267 314.048 30.685 315.305 27.825C316.562 24.965 318.317 22.4733 320.57 20.35C322.867 18.1833 325.553 16.515 328.63 15.345C331.707 14.175 335.065 13.59 338.705 13.59C342.388 13.59 345.747 14.175 348.78 15.345C351.857 16.515 354.522 18.1833 356.775 20.35C359.028 22.4733 360.783 24.965 362.04 27.825C363.34 30.685 363.99 33.8267 363.99 37.25C363.99 40.6733 363.34 43.8367 362.04 46.74C360.783 49.6 359.028 52.0917 356.775 54.215C354.522 56.3383 351.857 57.985 348.78 59.155C345.747 60.325 342.388 60.91 338.705 60.91ZM338.705 50.25C340.438 50.25 342.042 49.9467 343.515 49.34C345.032 48.7333 346.332 47.8667 347.415 46.74C348.542 45.57 349.408 44.1833 350.015 42.58C350.665 40.9767 350.99 39.2 350.99 37.25C350.99 35.2567 350.665 33.48 350.015 31.92C349.408 30.3167 348.542 28.9517 347.415 27.825C346.332 26.655 345.032 25.7667 343.515 25.16C342.042 24.5533 340.438 24.25 338.705 24.25C336.972 24.25 335.347 24.5533 333.83 25.16C332.357 25.7667 331.057 26.655 329.93 27.825C328.847 28.9517 327.98 30.3167 327.33 31.92C326.723 33.48 326.42 35.2567 326.42 37.25C326.42 39.2 326.723 40.9767 327.33 42.58C327.98 44.1833 328.847 45.57 329.93 46.74C331.057 47.8667 332.357 48.7333 333.83 49.34C335.347 49.9467 336.972 50.25 338.705 50.25ZM382.691 34.455H403.686V44.4H382.691V34.455ZM383.601 60H370.731V14.5H406.416V24.445H383.601V60ZM424.395 34.455H445.39V44.4H424.395V34.455ZM425.305 60H412.435V14.5H448.12V24.445H425.305V60ZM471.625 46.22V36.73H490.605V46.22H471.625ZM538.166 60.91C531.449 60.91 526.206 59.0683 522.436 55.385C518.666 51.7017 516.781 46.48 516.781 39.72V14.5H529.651V39.33C529.651 43.23 530.409 46.025 531.926 47.715C533.486 49.405 535.609 50.25 538.296 50.25C540.983 50.25 543.084 49.405 544.601 47.715C546.118 46.025 546.876 43.23 546.876 39.33V14.5H559.551V39.72C559.551 46.48 557.666 51.7017 553.896 55.385C550.126 59.0683 544.883 60.91 538.166 60.91ZM584.26 60.91C580.533 60.91 576.936 60.455 573.47 59.545C570.046 58.5917 567.251 57.3783 565.085 55.905L569.31 46.415C571.346 47.715 573.686 48.7983 576.33 49.665C579.016 50.4883 581.681 50.9 584.325 50.9C586.101 50.9 587.531 50.7483 588.615 50.445C589.698 50.0983 590.478 49.665 590.955 49.145C591.475 48.5817 591.735 47.9317 591.735 47.195C591.735 46.155 591.258 45.3317 590.305 44.725C589.351 44.1183 588.116 43.62 586.6 43.23C585.083 42.84 583.393 42.45 581.53 42.06C579.71 41.67 577.868 41.1717 576.005 40.565C574.185 39.9583 572.516 39.1783 571 38.225C569.483 37.2283 568.248 35.95 567.295 34.39C566.341 32.7867 565.865 30.7717 565.865 28.345C565.865 25.615 566.601 23.145 568.075 20.935C569.591 18.725 571.845 16.9483 574.835 15.605C577.825 14.2617 581.551 13.59 586.015 13.59C589.005 13.59 591.93 13.9367 594.79 14.63C597.693 15.28 600.271 16.255 602.525 17.555L598.56 27.11C596.393 25.94 594.248 25.0733 592.125 24.51C590.001 23.9033 587.943 23.6 585.95 23.6C584.173 23.6 582.743 23.795 581.66 24.185C580.576 24.5317 579.796 25.0083 579.32 25.615C578.843 26.2217 578.605 26.915 578.605 27.695C578.605 28.6917 579.06 29.4933 579.97 30.1C580.923 30.6633 582.158 31.14 583.675 31.53C585.235 31.8767 586.925 32.245 588.745 32.635C590.608 33.025 592.45 33.5233 594.27 34.13C596.133 34.6933 597.823 35.4733 599.34 36.47C600.856 37.4233 602.07 38.7017 602.98 40.305C603.933 41.865 604.41 43.8367 604.41 46.22C604.41 48.8633 603.651 51.3117 602.135 53.565C600.661 55.775 598.43 57.5517 595.44 58.895C592.493 60.2383 588.766 60.91 584.26 60.91ZM622.185 32.115H643.31V41.735H622.185V32.115ZM623.095 50.055H646.885V60H610.355V14.5H646.04V24.445H623.095V50.055ZM695.888 60.91C692.248 60.91 688.889 60.325 685.813 59.155C682.736 57.985 680.049 56.3383 677.753 54.215C675.499 52.0483 673.744 49.535 672.488 46.675C671.231 43.815 670.603 40.6733 670.603 37.25C670.603 33.8267 671.231 30.685 672.488 27.825C673.744 24.965 675.499 22.4733 677.753 20.35C680.049 18.1833 682.736 16.515 685.813 15.345C688.889 14.175 692.248 13.59 695.888 13.59C699.571 13.59 702.929 14.175 705.963 15.345C709.039 16.515 711.704 18.1833 713.958 20.35C716.211 22.4733 717.966 24.965 719.223 27.825C720.523 30.685 721.173 33.8267 721.173 37.25C721.173 40.6733 720.523 43.8367 719.223 46.74C717.966 49.6 716.211 52.0917 713.958 54.215C711.704 56.3383 709.039 57.985 705.963 59.155C702.929 60.325 699.571 60.91 695.888 60.91ZM695.888 50.25C697.621 50.25 699.224 49.9467 700.698 49.34C702.214 48.7333 703.514 47.8667 704.598 46.74C705.724 45.57 706.591 44.1833 707.198 42.58C707.848 40.9767 708.173 39.2 708.173 37.25C708.173 35.2567 707.848 33.48 707.198 31.92C706.591 30.3167 705.724 28.9517 704.598 27.825C703.514 26.655 702.214 25.7667 700.698 25.16C699.224 24.5533 697.621 24.25 695.888 24.25C694.154 24.25 692.529 24.5533 691.013 25.16C689.539 25.7667 688.239 26.655 687.113 27.825C686.029 28.9517 685.163 30.3167 684.513 31.92C683.906 33.48 683.603 35.2567 683.603 37.25C683.603 39.2 683.906 40.9767 684.513 42.58C685.163 44.1833 686.029 45.57 687.113 46.74C688.239 47.8667 689.539 48.7333 691.013 49.34C692.529 49.9467 694.154 50.25 695.888 50.25ZM28.235 129.91C24.6383 129.91 21.3017 129.347 18.225 128.22C15.1917 127.05 12.5483 125.403 10.295 123.28C8.085 121.157 6.35167 118.665 5.095 115.805C3.83833 112.902 3.21 109.717 3.21 106.25C3.21 102.783 3.83833 99.62 5.095 96.76C6.35167 93.8567 8.085 91.3433 10.295 89.22C12.5483 87.0967 15.1917 85.4717 18.225 84.345C21.3017 83.175 24.6383 82.59 28.235 82.59C32.4383 82.59 36.1867 83.3267 39.48 84.8C42.8167 86.2733 45.59 88.3967 47.8 91.17L39.61 98.58C38.1367 96.8467 36.5117 95.525 34.735 94.615C33.0017 93.705 31.0517 93.25 28.885 93.25C27.0217 93.25 25.31 93.5533 23.75 94.16C22.19 94.7667 20.8467 95.655 19.72 96.825C18.6367 97.9517 17.77 99.3167 17.12 100.92C16.5133 102.523 16.21 104.3 16.21 106.25C16.21 108.2 16.5133 109.977 17.12 111.58C17.77 113.183 18.6367 114.57 19.72 115.74C20.8467 116.867 22.19 117.733 23.75 118.34C25.31 118.947 27.0217 119.25 28.885 119.25C31.0517 119.25 33.0017 118.795 34.735 117.885C36.5117 116.975 38.1367 115.653 39.61 113.92L47.8 121.33C45.59 124.06 42.8167 126.183 39.48 127.7C36.1867 129.173 32.4383 129.91 28.235 129.91ZM74.0889 129.91C67.3723 129.91 62.1289 128.068 58.3589 124.385C54.5889 120.702 52.7039 115.48 52.7039 108.72V83.5H65.5739V108.33C65.5739 112.23 66.3323 115.025 67.8489 116.715C69.4089 118.405 71.5323 119.25 74.2189 119.25C76.9056 119.25 79.0073 118.405 80.5239 116.715C82.0406 115.025 82.7989 112.23 82.7989 108.33V83.5H95.4739V108.72C95.4739 115.48 93.5889 120.702 89.8189 124.385C86.0489 128.068 80.8056 129.91 74.0889 129.91ZM104.193 129V83.5H124.993C129.153 83.5 132.728 84.1717 135.718 85.515C138.751 86.8583 141.091 88.8083 142.738 91.365C144.384 93.8783 145.208 96.8683 145.208 100.335C145.208 103.758 144.384 106.727 142.738 109.24C141.091 111.753 138.751 113.703 135.718 115.09C132.728 116.433 129.153 117.105 124.993 117.105H111.343L117.063 111.515V129H104.193ZM117.063 112.88L111.343 106.965H124.213C126.899 106.965 128.893 106.38 130.193 105.21C131.536 104.04 132.208 102.415 132.208 100.335C132.208 98.2117 131.536 96.565 130.193 95.395C128.893 94.225 126.899 93.64 124.213 93.64H111.343L117.063 87.725V112.88ZM175.062 129.91C171.422 129.91 168.064 129.325 164.987 128.155C161.911 126.985 159.224 125.338 156.927 123.215C154.674 121.048 152.919 118.535 151.662 115.675C150.406 112.815 149.777 109.673 149.777 106.25C149.777 102.827 150.406 99.685 151.662 96.825C152.919 93.965 154.674 91.4733 156.927 89.35C159.224 87.1833 161.911 85.515 164.987 84.345C168.064 83.175 171.422 82.59 175.062 82.59C178.746 82.59 182.104 83.175 185.137 84.345C188.214 85.515 190.879 87.1833 193.132 89.35C195.386 91.4733 197.141 93.965 198.397 96.825C199.697 99.685 200.347 102.827 200.347 106.25C200.347 109.673 199.697 112.837 198.397 115.74C197.141 118.6 195.386 121.092 193.132 123.215C190.879 125.338 188.214 126.985 185.137 128.155C182.104 129.325 178.746 129.91 175.062 129.91ZM175.062 119.25C176.796 119.25 178.399 118.947 179.872 118.34C181.389 117.733 182.689 116.867 183.772 115.74C184.899 114.57 185.766 113.183 186.372 111.58C187.022 109.977 187.347 108.2 187.347 106.25C187.347 104.257 187.022 102.48 186.372 100.92C185.766 99.3167 184.899 97.9517 183.772 96.825C182.689 95.655 181.389 94.7667 179.872 94.16C178.399 93.5533 176.796 93.25 175.062 93.25C173.329 93.25 171.704 93.5533 170.187 94.16C168.714 94.7667 167.414 95.655 166.287 96.825C165.204 97.9517 164.337 99.3167 163.687 100.92C163.081 102.48 162.777 104.257 162.777 106.25C162.777 108.2 163.081 109.977 163.687 111.58C164.337 113.183 165.204 114.57 166.287 115.74C167.414 116.867 168.714 117.733 170.187 118.34C171.704 118.947 173.329 119.25 175.062 119.25ZM207.088 129V83.5H217.683L236.533 114.44H230.943L249.273 83.5H259.868L259.998 129H248.168L248.038 101.505H250.053L236.338 124.515H230.618L216.513 101.505H218.983V129H207.088ZM273.72 107.81C271.64 107.81 269.885 107.117 268.455 105.73C267.025 104.343 266.31 102.588 266.31 100.465C266.31 98.255 267.025 96.5 268.455 95.2C269.885 93.8567 271.64 93.185 273.72 93.185C275.8 93.185 277.555 93.8567 278.985 95.2C280.415 96.5 281.13 98.255 281.13 100.465C281.13 102.588 280.415 104.343 278.985 105.73C277.555 107.117 275.8 107.81 273.72 107.81ZM273.72 129.585C271.64 129.585 269.885 128.892 268.455 127.505C267.025 126.118 266.31 124.363 266.31 122.24C266.31 120.03 267.025 118.275 268.455 116.975C269.885 115.632 271.64 114.96 273.72 114.96C275.8 114.96 277.555 115.632 278.985 116.975C280.415 118.275 281.13 120.03 281.13 122.24C281.13 124.363 280.415 126.118 278.985 127.505C277.555 128.892 275.8 129.585 273.72 129.585Z" fill="white"/>
<path d="M7.19682 172.417H18.5787V175.104H7.19682V172.417ZM7.48136 182.249H20.3809V185H4.31972V162.869H19.9382V165.619H7.48136V182.249ZM29.6472 185.19C28.2561 185.19 26.9282 185 25.6635 184.621C24.4199 184.241 23.4398 183.777 22.7232 183.229L23.9878 180.827C24.7045 181.311 25.5897 181.722 26.6436 182.06C27.6975 182.397 28.7725 182.566 29.8685 182.566C31.2807 182.566 32.2924 182.365 32.9037 181.965C33.536 181.564 33.8522 181.006 33.8522 180.289C33.8522 179.762 33.6625 179.351 33.2831 179.056C32.9037 178.761 32.3978 178.54 31.7655 178.392C31.1542 178.245 30.4692 178.118 29.7104 178.013C28.9516 177.886 28.1928 177.739 27.434 177.57C26.6752 177.38 25.9797 177.128 25.3473 176.811C24.715 176.474 24.2092 176.021 23.8298 175.452C23.4504 174.862 23.2607 174.082 23.2607 173.112C23.2607 172.101 23.5452 171.215 24.1143 170.456C24.6834 169.698 25.4844 169.118 26.5172 168.718C27.571 168.296 28.8146 168.085 30.2479 168.085C31.3439 168.085 32.4505 168.222 33.5676 168.496C34.7058 168.749 35.6332 169.118 36.3499 169.603L35.0536 172.006C34.2948 171.5 33.5044 171.152 32.6824 170.962C31.8603 170.773 31.0383 170.678 30.2163 170.678C28.8884 170.678 27.8977 170.899 27.2443 171.342C26.5909 171.763 26.2642 172.311 26.2642 172.986C26.2642 173.555 26.4539 173.997 26.8333 174.314C27.2338 174.609 27.7397 174.841 28.3509 175.009C28.9832 175.178 29.6788 175.325 30.4376 175.452C31.1964 175.557 31.9552 175.705 32.714 175.894C33.4728 176.063 34.1578 176.305 34.769 176.622C35.4014 176.938 35.9072 177.38 36.2866 177.95C36.6871 178.519 36.8873 179.277 36.8873 180.226C36.8873 181.238 36.5922 182.112 36.0021 182.85C35.4119 183.588 34.5793 184.167 33.5044 184.589C32.4294 184.989 31.1437 185.19 29.6472 185.19ZM47.9839 185.19C46.2767 185.19 44.7485 184.821 43.3996 184.083C42.0717 183.345 41.0283 182.334 40.2695 181.048C39.5108 179.762 39.1314 178.287 39.1314 176.622C39.1314 174.957 39.5108 173.481 40.2695 172.195C41.0283 170.91 42.0717 169.908 43.3996 169.192C44.7485 168.454 46.2767 168.085 47.9839 168.085C49.5015 168.085 50.8505 168.391 52.0308 169.002C53.2323 169.592 54.1597 170.478 54.8131 171.658L52.5051 173.144C51.9571 172.322 51.2826 171.721 50.4816 171.342C49.7018 170.941 48.8587 170.741 47.9523 170.741C46.8563 170.741 45.8762 170.983 45.012 171.468C44.1478 171.953 43.4628 172.638 42.9569 173.523C42.4511 174.387 42.1981 175.42 42.1981 176.622C42.1981 177.823 42.4511 178.866 42.9569 179.752C43.4628 180.637 44.1478 181.322 45.012 181.807C45.8762 182.292 46.8563 182.534 47.9523 182.534C48.8587 182.534 49.7018 182.344 50.4816 181.965C51.2826 181.564 51.9571 180.953 52.5051 180.131L54.8131 181.585C54.1597 182.745 53.2323 183.64 52.0308 184.273C50.8505 184.884 49.5015 185.19 47.9839 185.19ZM65.6726 185.19C63.9864 185.19 62.4899 184.821 61.1831 184.083C59.8762 183.345 58.8434 182.334 58.0846 181.048C57.3259 179.741 56.9465 178.266 56.9465 176.622C56.9465 174.957 57.3259 173.481 58.0846 172.195C58.8434 170.91 59.8762 169.908 61.1831 169.192C62.4899 168.454 63.9864 168.085 65.6726 168.085C67.3377 168.085 68.8237 168.454 70.1305 169.192C71.4584 169.908 72.4912 170.91 73.2289 172.195C73.9877 173.46 74.3671 174.935 74.3671 176.622C74.3671 178.287 73.9877 179.762 73.2289 181.048C72.4912 182.334 71.4584 183.345 70.1305 184.083C68.8237 184.821 67.3377 185.19 65.6726 185.19ZM65.6726 182.534C66.7475 182.534 67.7066 182.292 68.5497 181.807C69.4139 181.322 70.0883 180.637 70.5731 179.752C71.0579 178.845 71.3003 177.802 71.3003 176.622C71.3003 175.42 71.0579 174.387 70.5731 173.523C70.0883 172.638 69.4139 171.953 68.5497 171.468C67.7066 170.983 66.7475 170.741 65.6726 170.741C64.5976 170.741 63.6386 170.983 62.7955 171.468C61.9524 171.953 61.2779 172.638 60.772 173.523C60.2662 174.387 60.0132 175.42 60.0132 176.622C60.0132 177.802 60.2662 178.845 60.772 179.752C61.2779 180.637 61.9524 181.322 62.7955 181.807C63.6386 182.292 64.5976 182.534 65.6726 182.534ZM78.5647 185V161.541H81.5998V185H78.5647ZM96.3425 168.085C97.7125 168.085 98.9139 168.349 99.9467 168.876C101.001 169.403 101.823 170.204 102.413 171.278C103.003 172.353 103.298 173.713 103.298 175.357V185H100.263V175.705C100.263 174.082 99.8624 172.859 99.0615 172.037C98.2816 171.215 97.175 170.804 95.7418 170.804C94.6668 170.804 93.7288 171.015 92.9279 171.437C92.127 171.858 91.5052 172.48 91.0625 173.302C90.641 174.124 90.4302 175.146 90.4302 176.369V185H87.395V161.541H90.4302V172.764L89.8295 171.563C90.3775 170.467 91.2206 169.613 92.3588 169.002C93.497 168.391 94.8249 168.085 96.3425 168.085ZM119.317 185V181.459L119.159 180.795V174.756C119.159 173.471 118.779 172.48 118.021 171.784C117.283 171.068 116.166 170.709 114.669 170.709C113.679 170.709 112.709 170.878 111.761 171.215C110.812 171.531 110.011 171.964 109.358 172.512L108.093 170.235C108.957 169.54 109.99 169.013 111.192 168.654C112.414 168.275 113.689 168.085 115.017 168.085C117.315 168.085 119.085 168.644 120.329 169.761C121.572 170.878 122.194 172.585 122.194 174.883V185H119.317ZM113.816 185.19C112.572 185.19 111.476 184.979 110.528 184.557C109.6 184.136 108.884 183.556 108.378 182.818C107.872 182.06 107.619 181.206 107.619 180.258C107.619 179.351 107.83 178.529 108.251 177.791C108.694 177.054 109.4 176.464 110.37 176.021C111.36 175.578 112.688 175.357 114.353 175.357H119.665V177.539H114.48C112.962 177.539 111.94 177.791 111.413 178.297C110.886 178.803 110.622 179.414 110.622 180.131C110.622 180.953 110.949 181.617 111.603 182.123C112.256 182.608 113.162 182.85 114.322 182.85C115.46 182.85 116.45 182.597 117.294 182.091C118.158 181.585 118.779 180.848 119.159 179.878L119.76 181.965C119.359 182.955 118.653 183.746 117.641 184.336C116.63 184.905 115.354 185.19 113.816 185.19ZM141.107 185.19C139.716 185.19 138.388 185 137.124 184.621C135.88 184.241 134.9 183.777 134.183 183.229L135.448 180.827C136.165 181.311 137.05 181.722 138.104 182.06C139.158 182.397 140.233 182.566 141.329 182.566C142.741 182.566 143.753 182.365 144.364 181.965C144.996 181.564 145.312 181.006 145.312 180.289C145.312 179.762 145.123 179.351 144.743 179.056C144.364 178.761 143.858 178.54 143.226 178.392C142.614 178.245 141.929 178.118 141.171 178.013C140.412 177.886 139.653 177.739 138.894 177.57C138.135 177.38 137.44 177.128 136.808 176.811C136.175 176.474 135.669 176.021 135.29 175.452C134.911 174.862 134.721 174.082 134.721 173.112C134.721 172.101 135.005 171.215 135.574 170.456C136.144 169.698 136.945 169.118 137.977 168.718C139.031 168.296 140.275 168.085 141.708 168.085C142.804 168.085 143.911 168.222 145.028 168.496C146.166 168.749 147.093 169.118 147.81 169.603L146.514 172.006C145.755 171.5 144.965 171.152 144.143 170.962C143.32 170.773 142.498 170.678 141.676 170.678C140.349 170.678 139.358 170.899 138.704 171.342C138.051 171.763 137.724 172.311 137.724 172.986C137.724 173.555 137.914 173.997 138.293 174.314C138.694 174.609 139.2 174.841 139.811 175.009C140.443 175.178 141.139 175.325 141.898 175.452C142.657 175.557 143.415 175.705 144.174 175.894C144.933 176.063 145.618 176.305 146.229 176.622C146.862 176.938 147.367 177.38 147.747 177.95C148.147 178.519 148.348 179.277 148.348 180.226C148.348 181.238 148.052 182.112 147.462 182.85C146.872 183.588 146.04 184.167 144.965 184.589C143.89 184.989 142.604 185.19 141.107 185.19ZM159.602 185.19C157.811 185.19 156.23 184.821 154.86 184.083C153.511 183.345 152.457 182.334 151.698 181.048C150.96 179.762 150.592 178.287 150.592 176.622C150.592 174.957 150.95 173.481 151.666 172.195C152.404 170.91 153.405 169.908 154.67 169.192C155.956 168.454 157.4 168.085 159.001 168.085C160.624 168.085 162.058 168.444 163.301 169.16C164.545 169.877 165.514 170.889 166.21 172.195C166.927 173.481 167.285 174.988 167.285 176.717C167.285 176.843 167.274 176.991 167.253 177.159C167.253 177.328 167.243 177.486 167.222 177.633H152.963V175.452H165.641L164.408 176.211C164.429 175.136 164.208 174.177 163.744 173.334C163.28 172.49 162.637 171.837 161.815 171.373C161.014 170.889 160.076 170.646 159.001 170.646C157.948 170.646 157.01 170.889 156.188 171.373C155.366 171.837 154.723 172.501 154.259 173.365C153.795 174.208 153.563 175.178 153.563 176.274V176.78C153.563 177.897 153.816 178.898 154.322 179.783C154.849 180.647 155.576 181.322 156.504 181.807C157.431 182.292 158.496 182.534 159.697 182.534C160.688 182.534 161.583 182.365 162.384 182.028C163.206 181.691 163.923 181.185 164.534 180.51L166.21 182.471C165.451 183.356 164.503 184.03 163.365 184.494C162.247 184.958 160.993 185.19 159.602 185.19ZM178.55 185.19C177.117 185.19 175.852 184.926 174.756 184.399C173.681 183.872 172.838 183.071 172.227 181.996C171.637 180.9 171.342 179.53 171.342 177.886V168.243H174.377V177.539C174.377 179.183 174.767 180.416 175.547 181.238C176.347 182.06 177.465 182.471 178.898 182.471C179.952 182.471 180.869 182.26 181.648 181.838C182.428 181.396 183.029 180.763 183.451 179.941C183.872 179.098 184.083 178.087 184.083 176.906V168.243H187.118V185H184.241V180.479L184.715 181.68C184.167 182.797 183.345 183.662 182.249 184.273C181.153 184.884 179.92 185.19 178.55 185.19ZM210.271 185.19C208.88 185.19 207.605 184.874 206.446 184.241C205.307 183.588 204.391 182.629 203.695 181.364C203.02 180.099 202.683 178.519 202.683 176.622C202.683 174.725 203.01 173.144 203.663 171.879C204.338 170.615 205.244 169.666 206.382 169.034C207.542 168.401 208.838 168.085 210.271 168.085C211.915 168.085 213.37 168.444 214.634 169.16C215.899 169.877 216.9 170.878 217.638 172.164C218.376 173.428 218.744 174.914 218.744 176.622C218.744 178.329 218.376 179.825 217.638 181.111C216.9 182.397 215.899 183.398 214.634 184.115C213.37 184.831 211.915 185.19 210.271 185.19ZM201.387 191.134V168.243H204.296V172.764L204.106 176.653L204.422 180.542V191.134H201.387ZM210.018 182.534C211.093 182.534 212.052 182.292 212.895 181.807C213.76 181.322 214.434 180.637 214.919 179.752C215.425 178.845 215.678 177.802 215.678 176.622C215.678 175.42 215.425 174.387 214.919 173.523C214.434 172.638 213.76 171.953 212.895 171.468C212.052 170.983 211.093 170.741 210.018 170.741C208.964 170.741 208.005 170.983 207.141 171.468C206.298 171.953 205.624 172.638 205.118 173.523C204.633 174.387 204.391 175.42 204.391 176.622C204.391 177.802 204.633 178.845 205.118 179.752C205.624 180.637 206.298 181.322 207.141 181.807C208.005 182.292 208.964 182.534 210.018 182.534ZM222.938 185V161.541H225.973V185H222.938ZM242.17 185V181.459L242.012 180.795V174.756C242.012 173.471 241.633 172.48 240.874 171.784C240.136 171.068 239.019 170.709 237.523 170.709C236.532 170.709 235.562 170.878 234.614 171.215C233.665 171.531 232.864 171.964 232.211 172.512L230.946 170.235C231.811 169.54 232.843 169.013 234.045 168.654C235.267 168.275 236.542 168.085 237.87 168.085C240.168 168.085 241.938 168.644 243.182 169.761C244.425 170.878 245.047 172.585 245.047 174.883V185H242.17ZM236.669 185.19C235.425 185.19 234.329 184.979 233.381 184.557C232.453 184.136 231.737 183.556 231.231 182.818C230.725 182.06 230.472 181.206 230.472 180.258C230.472 179.351 230.683 178.529 231.104 177.791C231.547 177.054 232.253 176.464 233.223 176.021C234.213 175.578 235.541 175.357 237.206 175.357H242.518V177.539H237.333C235.815 177.539 234.793 177.791 234.266 178.297C233.739 178.803 233.476 179.414 233.476 180.131C233.476 180.953 233.802 181.617 234.456 182.123C235.109 182.608 236.015 182.85 237.175 182.85C238.313 182.85 239.304 182.597 240.147 182.091C241.011 181.585 241.633 180.848 242.012 179.878L242.613 181.965C242.212 182.955 241.506 183.746 240.494 184.336C239.483 184.905 238.208 185.19 236.669 185.19ZM259.612 168.085C260.982 168.085 262.183 168.349 263.216 168.876C264.27 169.403 265.092 170.204 265.682 171.278C266.272 172.353 266.567 173.713 266.567 175.357V185H263.532V175.705C263.532 174.082 263.132 172.859 262.331 172.037C261.551 171.215 260.444 170.804 259.011 170.804C257.936 170.804 256.998 171.015 256.197 171.437C255.396 171.858 254.774 172.48 254.332 173.302C253.91 174.124 253.699 175.146 253.699 176.369V185H250.664V168.243H253.573V172.764L253.099 171.563C253.647 170.467 254.49 169.613 255.628 169.002C256.766 168.391 258.094 168.085 259.612 168.085ZM279.361 185.19C277.675 185.19 276.178 184.821 274.872 184.083C273.565 183.345 272.532 182.334 271.773 181.048C271.014 179.741 270.635 178.266 270.635 176.622C270.635 174.957 271.014 173.481 271.773 172.195C272.532 170.91 273.565 169.908 274.872 169.192C276.178 168.454 277.675 168.085 279.361 168.085C281.026 168.085 282.512 168.454 283.819 169.192C285.147 169.908 286.18 170.91 286.917 172.195C287.676 173.46 288.056 174.935 288.056 176.622C288.056 178.287 287.676 179.762 286.917 181.048C286.18 182.334 285.147 183.345 283.819 184.083C282.512 184.821 281.026 185.19 279.361 185.19ZM279.361 182.534C280.436 182.534 281.395 182.292 282.238 181.807C283.102 181.322 283.777 180.637 284.262 179.752C284.747 178.845 284.989 177.802 284.989 176.622C284.989 175.42 284.747 174.387 284.262 173.523C283.777 172.638 283.102 171.953 282.238 171.468C281.395 170.983 280.436 170.741 279.361 170.741C278.286 170.741 277.327 170.983 276.484 171.468C275.641 171.953 274.966 172.638 274.461 173.523C273.955 174.387 273.702 175.42 273.702 176.622C273.702 177.802 273.955 178.845 274.461 179.752C274.966 180.637 275.641 181.322 276.484 181.807C277.327 182.292 278.286 182.534 279.361 182.534ZM308.205 185.19C306.414 185.19 304.833 184.821 303.463 184.083C302.114 183.345 301.06 182.334 300.301 181.048C299.564 179.762 299.195 178.287 299.195 176.622C299.195 174.957 299.553 173.481 300.27 172.195C301.007 170.91 302.009 169.908 303.273 169.192C304.559 168.454 306.003 168.085 307.605 168.085C309.228 168.085 310.661 168.444 311.905 169.16C313.148 169.877 314.118 170.889 314.813 172.195C315.53 173.481 315.888 174.988 315.888 176.717C315.888 176.843 315.878 176.991 315.857 177.159C315.857 177.328 315.846 177.486 315.825 177.633H301.566V175.452H314.244L313.011 176.211C313.032 175.136 312.811 174.177 312.347 173.334C311.884 172.49 311.241 171.837 310.419 171.373C309.618 170.889 308.68 170.646 307.605 170.646C306.551 170.646 305.613 170.889 304.791 171.373C303.969 171.837 303.326 172.501 302.862 173.365C302.399 174.208 302.167 175.178 302.167 176.274V176.78C302.167 177.897 302.42 178.898 302.926 179.783C303.452 180.647 304.18 181.322 305.107 181.807C306.034 182.292 307.099 182.534 308.3 182.534C309.291 182.534 310.187 182.365 310.988 182.028C311.81 181.691 312.526 181.185 313.138 180.51L314.813 182.471C314.055 183.356 313.106 184.03 311.968 184.494C310.851 184.958 309.597 185.19 308.205 185.19ZM335.518 185.19C333.895 185.19 332.44 184.831 331.155 184.115C329.89 183.398 328.889 182.397 328.151 181.111C327.413 179.825 327.044 178.329 327.044 176.622C327.044 174.914 327.413 173.428 328.151 172.164C328.889 170.878 329.89 169.877 331.155 169.16C332.44 168.444 333.895 168.085 335.518 168.085C336.93 168.085 338.205 168.401 339.343 169.034C340.481 169.666 341.388 170.615 342.062 171.879C342.758 173.144 343.106 174.725 343.106 176.622C343.106 178.519 342.768 180.099 342.094 181.364C341.44 182.629 340.545 183.588 339.406 184.241C338.268 184.874 336.972 185.19 335.518 185.19ZM335.771 182.534C336.824 182.534 337.773 182.292 338.616 181.807C339.48 181.322 340.155 180.637 340.639 179.752C341.145 178.845 341.398 177.802 341.398 176.622C341.398 175.42 341.145 174.387 340.639 173.523C340.155 172.638 339.48 171.953 338.616 171.468C337.773 170.983 336.824 170.741 335.771 170.741C334.696 170.741 333.737 170.983 332.893 171.468C332.05 171.953 331.376 172.638 330.87 173.523C330.364 174.387 330.111 175.42 330.111 176.622C330.111 177.802 330.364 178.845 330.87 179.752C331.376 180.637 332.05 181.322 332.893 181.807C333.737 182.292 334.696 182.534 335.771 182.534ZM341.493 185V180.479L341.683 176.59L341.367 172.701V161.541H344.402V185H341.493ZM357.606 185.19C355.814 185.19 354.234 184.821 352.864 184.083C351.515 183.345 350.461 182.334 349.702 181.048C348.964 179.762 348.595 178.287 348.595 176.622C348.595 174.957 348.954 173.481 349.67 172.195C350.408 170.91 351.409 169.908 352.674 169.192C353.96 168.454 355.403 168.085 357.005 168.085C358.628 168.085 360.062 168.444 361.305 169.16C362.549 169.877 363.518 170.889 364.214 172.195C364.931 173.481 365.289 174.988 365.289 176.717C365.289 176.843 365.278 176.991 365.257 177.159C365.257 177.328 365.247 177.486 365.226 177.633H350.967V175.452H363.645L362.412 176.211C362.433 175.136 362.212 174.177 361.748 173.334C361.284 172.49 360.641 171.837 359.819 171.373C359.018 170.889 358.08 170.646 357.005 170.646C355.951 170.646 355.014 170.889 354.192 171.373C353.369 171.837 352.727 172.501 352.263 173.365C351.799 174.208 351.567 175.178 351.567 176.274V176.78C351.567 177.897 351.82 178.898 352.326 179.783C352.853 180.647 353.58 181.322 354.508 181.807C355.435 182.292 356.5 182.534 357.701 182.534C358.692 182.534 359.587 182.365 360.388 182.028C361.21 181.691 361.927 181.185 362.538 180.51L364.214 182.471C363.455 183.356 362.507 184.03 361.368 184.494C360.251 184.958 358.997 185.19 357.606 185.19ZM374.309 185.19C372.918 185.19 371.59 185 370.326 184.621C369.082 184.241 368.102 183.777 367.385 183.229L368.65 180.827C369.366 181.311 370.252 181.722 371.306 182.06C372.36 182.397 373.434 182.566 374.531 182.566C375.943 182.566 376.954 182.365 377.566 181.965C378.198 181.564 378.514 181.006 378.514 180.289C378.514 179.762 378.324 179.351 377.945 179.056C377.566 178.761 377.06 178.54 376.427 178.392C375.816 178.245 375.131 178.118 374.372 178.013C373.614 177.886 372.855 177.739 372.096 177.57C371.337 177.38 370.642 177.128 370.009 176.811C369.377 176.474 368.871 176.021 368.492 175.452C368.112 174.862 367.923 174.082 367.923 173.112C367.923 172.101 368.207 171.215 368.776 170.456C369.345 169.698 370.146 169.118 371.179 168.718C372.233 168.296 373.477 168.085 374.91 168.085C376.006 168.085 377.113 168.222 378.23 168.496C379.368 168.749 380.295 169.118 381.012 169.603L379.716 172.006C378.957 171.5 378.166 171.152 377.344 170.962C376.522 170.773 375.7 170.678 374.878 170.678C373.55 170.678 372.56 170.899 371.906 171.342C371.253 171.763 370.926 172.311 370.926 172.986C370.926 173.555 371.116 173.997 371.495 174.314C371.896 174.609 372.402 174.841 373.013 175.009C373.645 175.178 374.341 175.325 375.1 175.452C375.858 175.557 376.617 175.705 377.376 175.894C378.135 176.063 378.82 176.305 379.431 176.622C380.063 176.938 380.569 177.38 380.949 177.95C381.349 178.519 381.549 179.277 381.549 180.226C381.549 181.238 381.254 182.112 380.664 182.85C380.074 183.588 379.241 184.167 378.166 184.589C377.091 184.989 375.806 185.19 374.309 185.19ZM392.646 185.19C390.939 185.19 389.411 184.821 388.062 184.083C386.734 183.345 385.69 182.334 384.932 181.048C384.173 179.762 383.793 178.287 383.793 176.622C383.793 174.957 384.173 173.481 384.932 172.195C385.69 170.91 386.734 169.908 388.062 169.192C389.411 168.454 390.939 168.085 392.646 168.085C394.164 168.085 395.513 168.391 396.693 169.002C397.894 169.592 398.822 170.478 399.475 171.658L397.167 173.144C396.619 172.322 395.945 171.721 395.144 171.342C394.364 170.941 393.521 170.741 392.614 170.741C391.518 170.741 390.538 170.983 389.674 171.468C388.81 171.953 388.125 172.638 387.619 173.523C387.113 174.387 386.86 175.42 386.86 176.622C386.86 177.823 387.113 178.866 387.619 179.752C388.125 180.637 388.81 181.322 389.674 181.807C390.538 182.292 391.518 182.534 392.614 182.534C393.521 182.534 394.364 182.344 395.144 181.965C395.945 181.564 396.619 180.953 397.167 180.131L399.475 181.585C398.822 182.745 397.894 183.64 396.693 184.273C395.513 184.884 394.164 185.19 392.646 185.19ZM410.455 185.19C409.022 185.19 407.757 184.926 406.661 184.399C405.586 183.872 404.743 183.071 404.132 181.996C403.542 180.9 403.247 179.53 403.247 177.886V168.243H406.282V177.539C406.282 179.183 406.672 180.416 407.452 181.238C408.253 182.06 409.37 182.471 410.803 182.471C411.857 182.471 412.774 182.26 413.554 181.838C414.333 181.396 414.934 180.763 415.356 179.941C415.777 179.098 415.988 178.087 415.988 176.906V168.243H419.023V185H416.146V180.479L416.62 181.68C416.072 182.797 415.25 183.662 414.154 184.273C413.058 184.884 411.825 185.19 410.455 185.19ZM433.686 185.19C432.252 185.19 430.956 184.874 429.797 184.241C428.659 183.588 427.752 182.629 427.078 181.364C426.424 180.099 426.098 178.519 426.098 176.622C426.098 174.725 426.435 173.144 427.109 171.879C427.805 170.615 428.722 169.666 429.86 169.034C431.019 168.401 432.294 168.085 433.686 168.085C435.33 168.085 436.784 168.444 438.049 169.16C439.313 169.877 440.314 170.878 441.052 172.164C441.79 173.428 442.159 174.914 442.159 176.622C442.159 178.329 441.79 179.825 441.052 181.111C440.314 182.397 439.313 183.398 438.049 184.115C436.784 184.831 435.33 185.19 433.686 185.19ZM424.801 185V161.541H427.836V172.701L427.52 176.59L427.71 180.479V185H424.801ZM433.433 182.534C434.508 182.534 435.467 182.292 436.31 181.807C437.174 181.322 437.848 180.637 438.333 179.752C438.839 178.845 439.092 177.802 439.092 176.622C439.092 175.42 438.839 174.387 438.333 173.523C437.848 172.638 437.174 171.953 436.31 171.468C435.467 170.983 434.508 170.741 433.433 170.741C432.379 170.741 431.42 170.983 430.556 171.468C429.712 171.953 429.038 172.638 428.532 173.523C428.047 174.387 427.805 175.42 427.805 176.622C427.805 177.802 428.047 178.845 428.532 179.752C429.038 180.637 429.712 181.322 430.556 181.807C431.42 182.292 432.379 182.534 433.433 182.534ZM446.352 185V168.243H449.261V172.796L448.977 171.658C449.44 170.499 450.22 169.613 451.316 169.002C452.412 168.391 453.761 168.085 455.363 168.085V171.026C455.237 171.004 455.11 170.994 454.984 170.994C454.878 170.994 454.773 170.994 454.667 170.994C453.044 170.994 451.759 171.479 450.81 172.448C449.862 173.418 449.388 174.82 449.388 176.653V185H446.352ZM468.271 185V181.459L468.113 180.795V174.756C468.113 173.471 467.733 172.48 466.974 171.784C466.237 171.068 465.12 170.709 463.623 170.709C462.632 170.709 461.663 170.878 460.714 171.215C459.766 171.531 458.965 171.964 458.311 172.512L457.047 170.235C457.911 169.54 458.944 169.013 460.145 168.654C461.368 168.275 462.643 168.085 463.971 168.085C466.268 168.085 468.039 168.644 469.282 169.761C470.526 170.878 471.148 172.585 471.148 174.883V185H468.271ZM462.769 185.19C461.526 185.19 460.43 184.979 459.481 184.557C458.554 184.136 457.837 183.556 457.331 182.818C456.826 182.06 456.573 181.206 456.573 180.258C456.573 179.351 456.783 178.529 457.205 177.791C457.648 177.054 458.354 176.464 459.323 176.021C460.314 175.578 461.642 175.357 463.307 175.357H468.618V177.539H463.433C461.916 177.539 460.893 177.791 460.367 178.297C459.84 178.803 459.576 179.414 459.576 180.131C459.576 180.953 459.903 181.617 460.556 182.123C461.21 182.608 462.116 182.85 463.275 182.85C464.413 182.85 465.404 182.597 466.247 182.091C467.111 181.585 467.733 180.848 468.113 179.878L468.713 181.965C468.313 182.955 467.607 183.746 466.595 184.336C465.583 184.905 464.308 185.19 462.769 185.19ZM492.432 185.19C490.746 185.19 489.25 184.821 487.943 184.083C486.636 183.345 485.603 182.334 484.844 181.048C484.086 179.741 483.706 178.266 483.706 176.622C483.706 174.957 484.086 173.481 484.844 172.195C485.603 170.91 486.636 169.908 487.943 169.192C489.25 168.454 490.746 168.085 492.432 168.085C494.097 168.085 495.583 168.454 496.89 169.192C498.218 169.908 499.251 170.91 499.989 172.195C500.747 173.46 501.127 174.935 501.127 176.622C501.127 178.287 500.747 179.762 499.989 181.048C499.251 182.334 498.218 183.345 496.89 184.083C495.583 184.821 494.097 185.19 492.432 185.19ZM492.432 182.534C493.507 182.534 494.466 182.292 495.309 181.807C496.174 181.322 496.848 180.637 497.333 179.752C497.818 178.845 498.06 177.802 498.06 176.622C498.06 175.42 497.818 174.387 497.333 173.523C496.848 172.638 496.174 171.953 495.309 171.468C494.466 170.983 493.507 170.741 492.432 170.741C491.357 170.741 490.398 170.983 489.555 171.468C488.712 171.953 488.038 172.638 487.532 173.523C487.026 174.387 486.773 175.42 486.773 176.622C486.773 177.802 487.026 178.845 487.532 179.752C488.038 180.637 488.712 181.322 489.555 181.807C490.398 182.292 491.357 182.534 492.432 182.534ZM518.621 185.19C517.23 185.19 515.902 185 514.637 184.621C513.394 184.241 512.413 183.777 511.697 183.229L512.961 180.827C513.678 181.311 514.563 181.722 515.617 182.06C516.671 182.397 517.746 182.566 518.842 182.566C520.254 182.566 521.266 182.365 521.877 181.965C522.51 181.564 522.826 181.006 522.826 180.289C522.826 179.762 522.636 179.351 522.257 179.056C521.877 178.761 521.371 178.54 520.739 178.392C520.128 178.245 519.443 178.118 518.684 178.013C517.925 177.886 517.166 177.739 516.408 177.57C515.649 177.38 514.953 177.128 514.321 176.811C513.689 176.474 513.183 176.021 512.803 175.452C512.424 174.862 512.234 174.082 512.234 173.112C512.234 172.101 512.519 171.215 513.088 170.456C513.657 169.698 514.458 169.118 515.491 168.718C516.545 168.296 517.788 168.085 519.221 168.085C520.318 168.085 521.424 168.222 522.541 168.496C523.679 168.749 524.607 169.118 525.323 169.603L524.027 172.006C523.268 171.5 522.478 171.152 521.656 170.962C520.834 170.773 520.012 170.678 519.19 170.678C517.862 170.678 516.871 170.899 516.218 171.342C515.565 171.763 515.238 172.311 515.238 172.986C515.238 173.555 515.428 173.997 515.807 174.314C516.207 174.609 516.713 174.841 517.325 175.009C517.957 175.178 518.652 175.325 519.411 175.452C520.17 175.557 520.929 175.705 521.688 175.894C522.446 176.063 523.131 176.305 523.743 176.622C524.375 176.938 524.881 177.38 525.26 177.95C525.661 178.519 525.861 179.277 525.861 180.226C525.861 181.238 525.566 182.112 524.976 182.85C524.385 183.588 523.553 184.167 522.478 184.589C521.403 184.989 520.117 185.19 518.621 185.19ZM537.116 185.19C535.324 185.19 533.743 184.821 532.373 184.083C531.024 183.345 529.97 182.334 529.212 181.048C528.474 179.762 528.105 178.287 528.105 176.622C528.105 174.957 528.463 173.481 529.18 172.195C529.918 170.91 530.919 169.908 532.183 169.192C533.469 168.454 534.913 168.085 536.515 168.085C538.138 168.085 539.571 168.444 540.815 169.16C542.058 169.877 543.028 170.889 543.723 172.195C544.44 173.481 544.798 174.988 544.798 176.717C544.798 176.843 544.788 176.991 544.767 177.159C544.767 177.328 544.756 177.486 544.735 177.633H530.476V175.452H543.154L541.921 176.211C541.942 175.136 541.721 174.177 541.257 173.334C540.794 172.49 540.151 171.837 539.329 171.373C538.528 170.889 537.59 170.646 536.515 170.646C535.461 170.646 534.523 170.889 533.701 171.373C532.879 171.837 532.236 172.501 531.772 173.365C531.309 174.208 531.077 175.178 531.077 176.274V176.78C531.077 177.897 531.33 178.898 531.836 179.783C532.363 180.647 533.09 181.322 534.017 181.807C534.945 182.292 536.009 182.534 537.21 182.534C538.201 182.534 539.097 182.365 539.898 182.028C540.72 181.691 541.437 181.185 542.048 180.51L543.723 182.471C542.965 183.356 542.016 184.03 540.878 184.494C539.761 184.958 538.507 185.19 537.116 185.19ZM556.063 185.19C554.63 185.19 553.366 184.926 552.27 184.399C551.195 183.872 550.351 183.071 549.74 181.996C549.15 180.9 548.855 179.53 548.855 177.886V168.243H551.89V177.539C551.89 179.183 552.28 180.416 553.06 181.238C553.861 182.06 554.978 182.471 556.411 182.471C557.465 182.471 558.382 182.26 559.162 181.838C559.942 181.396 560.542 180.763 560.964 179.941C561.386 179.098 561.596 178.087 561.596 176.906V168.243H564.632V185H561.754V180.479L562.229 181.68C561.681 182.797 560.859 183.662 559.763 184.273C558.667 184.884 557.434 185.19 556.063 185.19ZM585.824 185.19C584.201 185.19 582.747 184.831 581.461 184.115C580.197 183.398 579.195 182.397 578.458 181.111C577.72 179.825 577.351 178.329 577.351 176.622C577.351 174.914 577.72 173.428 578.458 172.164C579.195 170.878 580.197 169.877 581.461 169.16C582.747 168.444 584.201 168.085 585.824 168.085C587.237 168.085 588.512 168.401 589.65 169.034C590.788 169.666 591.695 170.615 592.369 171.879C593.065 173.144 593.412 174.725 593.412 176.622C593.412 178.519 593.075 180.099 592.401 181.364C591.747 182.629 590.851 183.588 589.713 184.241C588.575 184.874 587.279 185.19 585.824 185.19ZM586.077 182.534C587.131 182.534 588.08 182.292 588.923 181.807C589.787 181.322 590.461 180.637 590.946 179.752C591.452 178.845 591.705 177.802 591.705 176.622C591.705 175.42 591.452 174.387 590.946 173.523C590.461 172.638 589.787 171.953 588.923 171.468C588.08 170.983 587.131 170.741 586.077 170.741C585.002 170.741 584.043 170.983 583.2 171.468C582.357 171.953 581.683 172.638 581.177 173.523C580.671 174.387 580.418 175.42 580.418 176.622C580.418 177.802 580.671 178.845 581.177 179.752C581.683 180.637 582.357 181.322 583.2 181.807C584.043 182.292 585.002 182.534 586.077 182.534ZM591.8 185V180.479L591.99 176.59L591.673 172.701V161.541H594.709V185H591.8ZM607.913 185.19C606.121 185.19 604.54 184.821 603.17 184.083C601.821 183.345 600.768 182.334 600.009 181.048C599.271 179.762 598.902 178.287 598.902 176.622C598.902 174.957 599.261 173.481 599.977 172.195C600.715 170.91 601.716 169.908 602.981 169.192C604.266 168.454 605.71 168.085 607.312 168.085C608.935 168.085 610.368 168.444 611.612 169.16C612.856 169.877 613.825 170.889 614.521 172.195C615.237 173.481 615.596 174.988 615.596 176.717C615.596 176.843 615.585 176.991 615.564 177.159C615.564 177.328 615.554 177.486 615.532 177.633H601.273V175.452H613.952L612.719 176.211C612.74 175.136 612.518 174.177 612.055 173.334C611.591 172.49 610.948 171.837 610.126 171.373C609.325 170.889 608.387 170.646 607.312 170.646C606.258 170.646 605.32 170.889 604.498 171.373C603.676 171.837 603.033 172.501 602.57 173.365C602.106 174.208 601.874 175.178 601.874 176.274V176.78C601.874 177.897 602.127 178.898 602.633 179.783C603.16 180.647 603.887 181.322 604.814 181.807C605.742 182.292 606.806 182.534 608.008 182.534C608.998 182.534 609.894 182.365 610.695 182.028C611.517 181.691 612.234 181.185 612.845 180.51L614.521 182.471C613.762 183.356 612.813 184.03 611.675 184.494C610.558 184.958 609.304 185.19 607.913 185.19ZM624.616 185.19C623.225 185.19 621.897 185 620.632 184.621C619.389 184.241 618.409 183.777 617.692 183.229L618.957 180.827C619.673 181.311 620.559 181.722 621.612 182.06C622.666 182.397 623.741 182.566 624.837 182.566C626.25 182.566 627.261 182.365 627.873 181.965C628.505 181.564 628.821 181.006 628.821 180.289C628.821 179.762 628.631 179.351 628.252 179.056C627.873 178.761 627.367 178.54 626.734 178.392C626.123 178.245 625.438 178.118 624.679 178.013C623.92 177.886 623.162 177.739 622.403 177.57C621.644 177.38 620.949 177.128 620.316 176.811C619.684 176.474 619.178 176.021 618.799 175.452C618.419 174.862 618.23 174.082 618.23 173.112C618.23 172.101 618.514 171.215 619.083 170.456C619.652 169.698 620.453 169.118 621.486 168.718C622.54 168.296 623.783 168.085 625.217 168.085C626.313 168.085 627.419 168.222 628.536 168.496C629.675 168.749 630.602 169.118 631.319 169.603L630.022 172.006C629.264 171.5 628.473 171.152 627.651 170.962C626.829 170.773 626.007 170.678 625.185 170.678C623.857 170.678 622.867 170.899 622.213 171.342C621.56 171.763 621.233 172.311 621.233 172.986C621.233 173.555 621.423 173.997 621.802 174.314C622.203 174.609 622.708 174.841 623.32 175.009C623.952 175.178 624.648 175.325 625.406 175.452C626.165 175.557 626.924 175.705 627.683 175.894C628.442 176.063 629.127 176.305 629.738 176.622C630.37 176.938 630.876 177.38 631.255 177.95C631.656 178.519 631.856 179.277 631.856 180.226C631.856 181.238 631.561 182.112 630.971 182.85C630.381 183.588 629.548 184.167 628.473 184.589C627.398 184.989 626.113 185.19 624.616 185.19ZM642.953 185.19C641.245 185.19 639.717 184.821 638.368 184.083C637.04 183.345 635.997 182.334 635.238 181.048C634.48 179.762 634.1 178.287 634.1 176.622C634.1 174.957 634.48 173.481 635.238 172.195C635.997 170.91 637.04 169.908 638.368 169.192C639.717 168.454 641.245 168.085 642.953 168.085C644.47 168.085 645.819 168.391 647 169.002C648.201 169.592 649.128 170.478 649.782 171.658L647.474 173.144C646.926 172.322 646.251 171.721 645.45 171.342C644.671 170.941 643.827 170.741 642.921 170.741C641.825 170.741 640.845 170.983 639.981 171.468C639.117 171.953 638.432 172.638 637.926 173.523C637.42 174.387 637.167 175.42 637.167 176.622C637.167 177.823 637.42 178.866 637.926 179.752C638.432 180.637 639.117 181.322 639.981 181.807C640.845 182.292 641.825 182.534 642.921 182.534C643.827 182.534 644.671 182.344 645.45 181.965C646.251 181.564 646.926 180.953 647.474 180.131L649.782 181.585C649.128 182.745 648.201 183.64 647 184.273C645.819 184.884 644.47 185.19 642.953 185.19ZM660.641 185.19C658.955 185.19 657.459 184.821 656.152 184.083C654.845 183.345 653.812 182.334 653.053 181.048C652.295 179.741 651.915 178.266 651.915 176.622C651.915 174.957 652.295 173.481 653.053 172.195C653.812 170.91 654.845 169.908 656.152 169.192C657.459 168.454 658.955 168.085 660.641 168.085C662.307 168.085 663.793 168.454 665.099 169.192C666.427 169.908 667.46 170.91 668.198 172.195C668.957 173.46 669.336 174.935 669.336 176.622C669.336 178.287 668.957 179.762 668.198 181.048C667.46 182.334 666.427 183.345 665.099 184.083C663.793 184.821 662.307 185.19 660.641 185.19ZM660.641 182.534C661.716 182.534 662.675 182.292 663.519 181.807C664.383 181.322 665.057 180.637 665.542 179.752C666.027 178.845 666.269 177.802 666.269 176.622C666.269 175.42 666.027 174.387 665.542 173.523C665.057 172.638 664.383 171.953 663.519 171.468C662.675 170.983 661.716 170.741 660.641 170.741C659.566 170.741 658.607 170.983 657.764 171.468C656.921 171.953 656.247 172.638 655.741 173.523C655.235 174.387 654.982 175.42 654.982 176.622C654.982 177.802 655.235 178.845 655.741 179.752C656.247 180.637 656.921 181.322 657.764 181.807C658.607 182.292 659.566 182.534 660.641 182.534ZM682.481 168.085C683.851 168.085 685.052 168.349 686.085 168.876C687.139 169.403 687.961 170.204 688.551 171.278C689.141 172.353 689.437 173.713 689.437 175.357V185H686.401V175.705C686.401 174.082 686.001 172.859 685.2 172.037C684.42 171.215 683.313 170.804 681.88 170.804C680.805 170.804 679.867 171.015 679.066 171.437C678.265 171.858 677.644 172.48 677.201 173.302C676.779 174.124 676.569 175.146 676.569 176.369V185H673.533V168.243H676.442V172.764L675.968 171.563C676.516 170.467 677.359 169.613 678.497 169.002C679.635 168.391 680.963 168.085 682.481 168.085ZM700.808 185.19C699.122 185.19 697.815 184.737 696.887 183.83C695.96 182.924 695.496 181.628 695.496 179.941V164.576H698.531V179.815C698.531 180.721 698.753 181.417 699.195 181.902C699.659 182.386 700.312 182.629 701.156 182.629C702.104 182.629 702.894 182.365 703.527 181.838L704.475 184.02C704.012 184.42 703.453 184.715 702.8 184.905C702.167 185.095 701.503 185.19 700.808 185.19ZM692.651 170.741V168.243H703.337V170.741H692.651ZM714.766 185.19C713.08 185.19 711.583 184.821 710.276 184.083C708.97 183.345 707.937 182.334 707.178 181.048C706.419 179.741 706.04 178.266 706.04 176.622C706.04 174.957 706.419 173.481 707.178 172.195C707.937 170.91 708.97 169.908 710.276 169.192C711.583 168.454 713.08 168.085 714.766 168.085C716.431 168.085 717.917 168.454 719.224 169.192C720.552 169.908 721.585 170.91 722.322 172.195C723.081 173.46 723.46 174.935 723.46 176.622C723.46 178.287 723.081 179.762 722.322 181.048C721.585 182.334 720.552 183.345 719.224 184.083C717.917 184.821 716.431 185.19 714.766 185.19ZM714.766 182.534C715.841 182.534 716.8 182.292 717.643 181.807C718.507 181.322 719.182 180.637 719.666 179.752C720.151 178.845 720.394 177.802 720.394 176.622C720.394 175.42 720.151 174.387 719.666 173.523C719.182 172.638 718.507 171.953 717.643 171.468C716.8 170.983 715.841 170.741 714.766 170.741C713.691 170.741 712.732 170.983 711.889 171.468C711.046 171.953 710.371 172.638 709.865 173.523C709.36 174.387 709.107 175.42 709.107 176.622C709.107 177.802 709.36 178.845 709.865 179.752C710.371 180.637 711.046 181.322 711.889 181.807C712.732 182.292 713.691 182.534 714.766 182.534Z" fill="white"/>
<rect x="299" y="80" width="426" height="53" rx="7" fill="url(#paint0_linear_188_112)"/>
<path d="M326.908 121V98.9137H318.163V92.5278H343.666V98.9137H334.961V121H326.908ZM346.666 121V92.5278H359.682C362.285 92.5278 364.522 92.9481 366.393 93.7887C368.291 94.6293 369.756 95.8496 370.786 97.4494C371.816 99.0222 372.332 100.893 372.332 103.063C372.332 105.205 371.816 107.062 370.786 108.635C369.756 110.181 368.291 111.374 366.393 112.214C364.522 113.028 362.285 113.435 359.682 113.435H351.14L354.72 110.059V121H346.666ZM364.278 121L357.201 110.628H365.783L372.901 121H364.278ZM354.72 110.913L351.14 107.211H359.194C360.875 107.211 362.122 106.845 362.936 106.113C363.776 105.381 364.197 104.364 364.197 103.063C364.197 101.734 363.776 100.703 362.936 99.9712C362.122 99.2391 360.875 98.873 359.194 98.873H351.14L354.72 95.1716V110.913ZM373.358 121L385.927 92.5278H393.858L406.467 121H398.088L388.245 96.4732H391.418L381.574 121H373.358ZM380.232 115.468L382.306 109.53H396.217L398.292 115.468H380.232ZM408.75 121V92.5278H422.214C425.359 92.5278 428.125 93.1108 430.511 94.2768C432.898 95.4428 434.755 97.0834 436.084 99.1984C437.439 101.314 438.117 103.835 438.117 106.764C438.117 109.665 437.439 112.187 436.084 114.329C434.755 116.444 432.898 118.085 430.511 119.251C428.125 120.417 425.359 121 422.214 121H408.75ZM416.804 114.573H421.888C423.515 114.573 424.925 114.275 426.118 113.679C427.339 113.055 428.288 112.16 428.966 110.994C429.644 109.801 429.982 108.391 429.982 106.764C429.982 105.11 429.644 103.7 428.966 102.534C428.288 101.368 427.339 100.486 426.118 99.8899C424.925 99.2662 423.515 98.9544 421.888 98.9544H416.804V114.573ZM449.757 103.551H462.977V109.57H449.757V103.551ZM450.327 114.777H465.214V121H442.355V92.5278H464.685V98.751H450.327V114.777ZM469.683 121V92.5278H482.699C485.302 92.5278 487.539 92.9481 489.41 93.7887C491.308 94.6293 492.772 95.8496 493.803 97.4494C494.833 99.0222 495.348 100.893 495.348 103.063C495.348 105.205 494.833 107.062 493.803 108.635C492.772 110.181 491.308 111.374 489.41 112.214C487.539 113.028 485.302 113.435 482.699 113.435H474.157L477.736 110.059V121H469.683ZM487.295 121L480.217 110.628H488.8L495.918 121H487.295ZM477.736 110.913L474.157 107.211H482.211C483.892 107.211 485.139 106.845 485.953 106.113C486.793 105.381 487.214 104.364 487.214 103.063C487.214 101.734 486.793 100.703 485.953 99.9712C485.139 99.2391 483.892 98.873 482.211 98.873H474.157L477.736 95.1716V110.913ZM498.368 121V115.956L515.126 96.0665L516.102 98.9137H498.734V92.5278H523.261V97.5714L506.503 117.461L505.527 114.614H523.871V121H498.368ZM530.245 121L541.349 95.497L543.505 98.9137H529.065L532.36 95.2123V103.307H525.486V92.5278H549.077V97.5714L539.031 121H530.245Z" fill="white"/>
<rect x="577" y="106" width="126" height="2" fill="white"/>
<path d="M571 107L580.75 100.938V113.062L571 107Z" fill="white"/>
<defs>
<linearGradient id="paint0_linear_188_112" x1="299" y1="106.5" x2="725" y2="106.5" gradientUnits="userSpaceOnUse">
<stop stop-color="#CEAD28"/>
<stop offset="1" stop-color="#D59200"/>
</linearGradient>
</defs>
</svg>
